<svg height='300px' width='300px'  fill="#000000" xmlns="http://www.w3.org/2000/svg" xmlns:xlink="http://www.w3.org/1999/xlink" version="1.1" x="0px" y="0px" viewBox="0 0 100 100" enable-background="new 0 0 100 100" xml:space="preserve"><g><g><path fill="#000000" d="M66.956,69.884H30.559c-0.345,0-0.625-0.28-0.625-0.625V32.862c0-0.345,0.28-0.625,0.625-0.625h36.397    c0.345,0,0.625,0.28,0.625,0.625v36.397C67.581,69.604,67.301,69.884,66.956,69.884z M31.184,68.634h35.147V33.487H31.184V68.634z    "></path></g><g><path fill="#000000" d="M48.958,64.36c-0.183,0-0.356-0.08-0.476-0.219L37.76,51.579c-1.346-1.344-2.169-3.435-2.169-5.556    c0-4.552,3.709-8.256,8.269-8.256c1.845,0,3.63,0.62,5.083,1.755c1.455-1.138,3.24-1.76,5.082-1.76    c4.559,0,8.269,3.706,8.269,8.262c0,2.081-0.792,4.131-2.124,5.511c-0.011,0.015-0.022,0.03-0.034,0.044L49.433,64.141    C49.314,64.28,49.141,64.36,48.958,64.36C48.958,64.36,48.958,64.36,48.958,64.36z M43.859,39.017    c-3.87,0-7.019,3.143-7.019,7.006c0,1.797,0.687,3.558,1.837,4.708l10.279,12.041L59.114,50.85    c0.025-0.042,0.056-0.082,0.092-0.118c1.15-1.15,1.836-2.91,1.836-4.708c0-3.866-3.148-7.012-7.019-7.012    c-1.715,0-3.372,0.636-4.666,1.79c-0.237,0.212-0.595,0.212-0.832,0C47.235,39.651,45.578,39.017,43.859,39.017z"></path></g><g><path fill="#000000" d="M59.041,46.272c-0.345,0-0.625-0.28-0.625-0.625c0-0.529-0.104-1.042-0.308-1.525    c-0.198-0.468-0.481-0.887-0.84-1.245c-0.36-0.361-0.779-0.644-1.245-0.84c-0.318-0.134-0.467-0.5-0.333-0.818    c0.134-0.318,0.499-0.468,0.818-0.333c0.617,0.26,1.169,0.632,1.644,1.108c0.473,0.471,0.845,1.024,1.107,1.641    c0.27,0.639,0.407,1.316,0.407,2.013C59.666,45.992,59.386,46.272,59.041,46.272z"></path></g><g><path fill="#000000" d="M84.677,88.529c-2.088,0-4.057-0.629-5.445-1.734h-2.191c-0.345,0-0.625-0.28-0.625-0.625v-5.878    c0-0.345,0.28-0.625,0.625-0.625h2.249c1.382-1.074,3.331-1.686,5.388-1.686c4.042,0,7.332,2.366,7.332,5.274    S88.72,88.529,84.677,88.529z M77.666,85.545h1.791c0.149,0,0.294,0.054,0.407,0.151c1.171,1.006,2.925,1.583,4.813,1.583    c3.354,0,6.082-1.805,6.082-4.024c0-2.219-2.728-4.024-6.082-4.024c-1.86,0-3.597,0.562-4.766,1.54    c-0.113,0.094-0.255,0.146-0.401,0.146h-1.844V85.545z"></path></g><g><path fill="#000000" d="M79.51,86.795c-0.345,0-0.625-0.28-0.625-0.625v-5.878c0-0.345,0.28-0.625,0.625-0.625    s0.625,0.28,0.625,0.625v5.878C80.135,86.515,79.855,86.795,79.51,86.795z"></path></g><g><path fill="#000000" d="M87.905,82.81c-0.123,0-0.247-0.036-0.355-0.111c-0.694-0.481-1.628-0.746-2.63-0.746    c-0.345,0-0.625-0.28-0.625-0.625s0.28-0.625,0.625-0.625c1.254,0,2.441,0.344,3.342,0.969c0.284,0.196,0.354,0.586,0.158,0.87    C88.298,82.716,88.104,82.81,87.905,82.81z"></path></g><g><path fill="#000000" d="M15.224,25.913c-1.817,0-3.526-0.708-4.811-1.993c-1.285-1.285-1.993-2.994-1.993-4.811    s0.708-3.526,1.993-4.811c1.285-1.285,2.993-1.993,4.811-1.993c1.817,0,3.526,0.708,4.812,1.993c2.652,2.652,2.652,6.969,0,9.622    C18.75,25.205,17.041,25.913,15.224,25.913z M15.224,13.555c-1.484,0-2.878,0.578-3.927,1.627    c-1.049,1.049-1.627,2.444-1.627,3.927s0.578,2.878,1.627,3.927c1.049,1.049,2.443,1.627,3.927,1.627    c1.484,0,2.879-0.578,3.928-1.627c2.165-2.166,2.165-5.689,0-7.854C18.103,14.133,16.708,13.555,15.224,13.555z"></path></g><g><path fill="#000000" d="M63.5,82.393L63.5,82.393L50.292,82.39c-0.345,0-0.625-0.28-0.625-0.625V69.942    c0-0.345,0.28-0.625,0.625-0.625s0.625,0.28,0.625,0.625V81.14L63.5,81.143c0.345,0,0.625,0.28,0.625,0.625    S63.845,82.393,63.5,82.393z"></path></g><g><path fill="#000000" d="M76.292,82.396L76.292,82.396l-6.037,0c-0.345,0-0.625-0.28-0.625-0.625s0.28-0.625,0.625-0.625l0,0    l6.037,0c0.345,0,0.625,0.28,0.625,0.625S76.637,82.396,76.292,82.396z"></path></g><g><path fill="#000000" d="M76.292,85.287L76.292,85.287L49.375,85.28c-1.433,0-2.598-1.166-2.598-2.598v-12.74    c0-0.345,0.28-0.625,0.625-0.625s0.625,0.28,0.625,0.625v12.74c0,0.743,0.605,1.348,1.348,1.348l26.917,0.006    c0.345,0,0.625,0.28,0.625,0.625S76.637,85.287,76.292,85.287z"></path></g><g><path fill="#000000" d="M66.96,82.376c-0.17,0-0.33-0.06-0.45-0.18c-0.11-0.12-0.18-0.27-0.18-0.44c0-0.17,0.07-0.33,0.18-0.44    c0.24-0.24,0.65-0.24,0.89,0c0.11,0.11,0.18,0.27,0.18,0.44c0,0.17-0.06,0.32-0.18,0.44C67.29,82.316,67.12,82.376,66.96,82.376z"></path></g><g><path fill="#000000" d="M47.401,33.287c-0.345,0-0.625-0.28-0.625-0.625V21.463L34.193,21.46c-0.345,0-0.625-0.28-0.625-0.625    s0.28-0.625,0.625-0.625l0,0l13.208,0.003c0.345,0,0.625,0.28,0.625,0.625v11.823C48.026,33.007,47.747,33.287,47.401,33.287z"></path></g><g><path fill="#000000" d="M27.438,21.458L27.438,21.458l-6.037,0c-0.345,0-0.625-0.28-0.625-0.625s0.28-0.625,0.625-0.625l0,0    l6.037,0c0.345,0,0.625,0.28,0.625,0.625S27.784,21.458,27.438,21.458z"></path></g><g><path fill="#000000" d="M50.292,33.287c-0.345,0-0.625-0.28-0.625-0.625v-12.74c0-0.743-0.605-1.348-1.348-1.348l-26.917-0.006    c-0.345,0-0.625-0.28-0.625-0.625s0.28-0.625,0.625-0.625l0,0l26.917,0.006c1.433,0,2.598,1.166,2.598,2.598v12.74    C50.917,33.007,50.637,33.287,50.292,33.287z"></path></g><g><path fill="#000000" d="M30.74,21.476c-0.17,0-0.33-0.07-0.44-0.19c-0.12-0.11-0.19-0.27-0.19-0.44c0-0.16,0.07-0.33,0.18-0.44    c0.24-0.23,0.66-0.23,0.89,0c0.12,0.12,0.18,0.28,0.18,0.44c0,0.17-0.07,0.33-0.18,0.44C31.06,21.406,30.9,21.476,30.74,21.476z"></path></g></g></svg>