<svg height='300px' width='300px'  fill="#000000" xmlns="http://www.w3.org/2000/svg" xmlns:xlink="http://www.w3.org/1999/xlink" version="1.1" x="0px" y="0px" viewBox="0 0 100 100" enable-background="new 0 0 100 100" xml:space="preserve"><g><g><path fill="#000000" d="M82.125,95.625h-64.25V61.708h64.25V95.625z M19.125,94.375h61.75V62.958h-61.75V94.375z"></path></g><g><path fill="#000000" d="M34.348,55.51c-0.137,0-0.273-0.044-0.389-0.135c-0.271-0.214-0.315-0.608-0.101-0.878    c0.322-0.408,0.866-0.7,1.418-0.764l9.591-1.238c0.336-0.05,0.655,0.197,0.7,0.54c0.044,0.342-0.198,0.656-0.54,0.7l-9.6,1.239    c-0.232,0.027-0.472,0.15-0.591,0.3C34.714,55.429,34.531,55.51,34.348,55.51z"></path></g><g><path fill="#000000" d="M65.652,55.51c-0.184,0-0.366-0.081-0.489-0.237c-0.119-0.15-0.358-0.273-0.582-0.298l-9.607-1.241    c-0.343-0.044-0.584-0.357-0.54-0.7c0.045-0.343,0.36-0.589,0.7-0.54l9.599,1.239c0.543,0.062,1.086,0.355,1.409,0.763    c0.215,0.27,0.17,0.664-0.101,0.878C65.926,55.466,65.789,55.51,65.652,55.51z"></path></g><g><path fill="#000000" d="M50.031,58.59c-0.148,0-0.297-0.052-0.415-0.158l-5.084-4.516c-0.134-0.119-0.21-0.289-0.21-0.467V52    c0-0.345,0.28-0.625,0.625-0.625s0.625,0.28,0.625,0.625v1.168l4.452,3.955l4.298-3.948V52c0-0.345,0.28-0.625,0.625-0.625    s0.625,0.28,0.625,0.625v1.449c0,0.175-0.073,0.342-0.202,0.46l-4.916,4.516C50.335,58.535,50.183,58.59,50.031,58.59z"></path></g><g><path fill="#000000" d="M46.63,43.58c-0.271,0-0.521-0.1-0.71-0.29c-0.19-0.19-0.29-0.45-0.29-0.71c0-0.26,0.1-0.52,0.29-0.71    c0.37-0.37,1.04-0.37,1.41,0.01c0.189,0.18,0.3,0.44,0.3,0.7c0,0.26-0.11,0.52-0.29,0.71C47.149,43.48,46.89,43.58,46.63,43.58z"></path></g><g><path fill="#000000" d="M53.97,43.58c-0.27,0-0.53-0.11-0.71-0.29c-0.19-0.19-0.29-0.44-0.29-0.71c0-0.27,0.1-0.52,0.29-0.71    c0.36-0.37,1.04-0.37,1.41,0.01c0.189,0.18,0.29,0.43,0.29,0.7c0,0.27-0.101,0.52-0.29,0.71C54.49,43.47,54.229,43.58,53.97,43.58    z"></path></g><g><path fill="#000000" d="M62.547,40.541c-0.345,0-0.625-0.28-0.625-0.625v-6.891c0-0.975-0.851-1.858-1.647-2.609    c-0.476-0.445-1.973-0.948-2.851-0.703c-0.343,0.096-0.432,0.272-0.471,0.415c-0.083,0.3-0.371,0.496-0.687,0.452    c-0.31-0.042-0.541-0.307-0.541-0.619c0-0.755-1.275-1.402-2.319-1.402l-10.823,0.809c-1.274,0.002-2.424,0.394-3.12,1.049    c-0.915,0.859-1.379,1.737-1.379,2.609v6.891c0,0.345-0.28,0.625-0.625,0.625s-0.625-0.28-0.625-0.625v-6.891    c0-1.231,0.597-2.415,1.772-3.52c0.937-0.881,2.369-1.386,3.93-1.386l10.823-0.809c0.001,0,0.003,0,0.004,0    c1.231,0,2.536,0.549,3.188,1.427c0.159-0.096,0.338-0.172,0.534-0.228c1.298-0.361,3.236,0.238,4.045,0.995    c0.714,0.673,2.041,1.924,2.041,3.52v6.891C63.172,40.261,62.892,40.541,62.547,40.541z"></path></g><g><path fill="#000000" d="M50.29,48.805c-0.974,0-1.79-0.324-2.429-0.963c-0.244-0.244-0.243-0.64,0.001-0.884    c0.244-0.243,0.64-0.244,0.884,0.001c0.256,0.256,0.693,0.596,1.544,0.596c0.852,0,1.288-0.34,1.542-0.596    c0.244-0.244,0.642-0.246,0.884-0.002c0.245,0.243,0.246,0.639,0.003,0.884C52.082,48.48,51.265,48.805,50.29,48.805z"></path></g><g><path fill="#000000" stroke="#000000" stroke-width="1.25" stroke-linecap="round" stroke-linejoin="round" stroke-miterlimit="10" d="    M59.784,37.456"></path></g><g><path fill="#000000" d="M55.447,52.241H44.826c-1.249,0-2.698-0.611-3.608-1.521c-1.015-1.015-1.621-2.327-1.621-3.508V36.456    c0-0.195,0.092-0.378,0.246-0.496c0.154-0.119,0.356-0.159,0.544-0.107c0.01,0.003,0.977,0.26,2.612,0.26    c1.932,0,3.947-0.342,5.989-1.016l5.349-1.766c0.266-0.088,0.561,0.013,0.716,0.247c0.022,0.033,2.292,3.398,4.686,3.255    c0.166-0.015,0.345,0.047,0.471,0.165c0.128,0.118,0.2,0.284,0.2,0.458v9.756c0,1.247-0.569,2.591-1.486,3.508    C57.969,51.672,56.67,52.241,55.447,52.241z M40.847,37.213v9.999c0,1.009,0.648,2.018,1.256,2.625    c0.68,0.68,1.8,1.154,2.724,1.154h10.621c0.886,0,1.879-0.442,2.592-1.155c0.69-0.691,1.12-1.696,1.12-2.624v-9.146    c-2.258-0.247-4.166-2.482-4.865-3.405l-4.913,1.622c-2.17,0.716-4.316,1.08-6.382,1.08C42.079,37.363,41.35,37.288,40.847,37.213    z"></path></g><g><path fill="#000000" d="M38.78,44.756c-1.264,0-2.292-1.028-2.292-2.292s1.028-2.292,2.292-2.292c0.345,0,0.625,0.28,0.625,0.625    s-0.28,0.625-0.625,0.625c-0.574,0-1.042,0.467-1.042,1.042c0,0.575,0.468,1.042,1.042,1.042c0.345,0,0.625,0.28,0.625,0.625    S39.125,44.756,38.78,44.756z"></path></g><g><path fill="#000000" d="M61.114,44.756c-0.345,0-0.625-0.28-0.625-0.625s0.28-0.625,0.625-0.625c0.574,0,1.042-0.467,1.042-1.042    c0-0.574-0.468-1.042-1.042-1.042c-0.345,0-0.625-0.28-0.625-0.625s0.28-0.625,0.625-0.625c1.264,0,2.292,1.028,2.292,2.292    S62.378,44.756,61.114,44.756z"></path></g><g><path fill="#000000" d="M48.195,40.541h-3.139c-0.345,0-0.625-0.28-0.625-0.625s0.28-0.625,0.625-0.625h3.139    c0.345,0,0.625,0.28,0.625,0.625S48.54,40.541,48.195,40.541z"></path></g><g><path fill="#000000" d="M55.534,40.541h-3.139c-0.345,0-0.625-0.28-0.625-0.625s0.28-0.625,0.625-0.625h3.139    c0.345,0,0.625,0.28,0.625,0.625S55.879,40.541,55.534,40.541z"></path></g><g><path fill="#000000" d="M31.822,62.744c-0.068,0-0.138-0.011-0.206-0.035c-0.326-0.114-0.498-0.47-0.384-0.796l2.525-7.24    c0.114-0.326,0.469-0.497,0.796-0.384c0.326,0.114,0.498,0.47,0.384,0.796l-2.525,7.24C32.322,62.583,32.081,62.744,31.822,62.744    z"></path></g><g><path fill="#000000" d="M68.178,62.75c-0.259,0-0.5-0.161-0.59-0.419l-2.525-7.24c-0.114-0.326,0.058-0.683,0.384-0.796    c0.326-0.111,0.683,0.059,0.796,0.384l2.525,7.24c0.114,0.326-0.058,0.683-0.384,0.796C68.315,62.738,68.246,62.75,68.178,62.75z"></path></g><g><rect x="49.375" y="57.965" fill="#000000" width="1.25" height="4.369"></rect></g><g><path fill="#000000" d="M75.334,62.744c-0.345,0-0.625-0.28-0.625-0.625V12.333H25.292v49.786c0,0.345-0.28,0.625-0.625,0.625    s-0.625-0.28-0.625-0.625V11.708c0-0.345,0.28-0.625,0.625-0.625h50.667c0.345,0,0.625,0.28,0.625,0.625v50.411    C75.959,62.464,75.679,62.744,75.334,62.744z"></path></g><g><path fill="#000000" d="M75.334,49.85h-16.08c-0.345,0-0.625-0.28-0.625-0.625s0.28-0.625,0.625-0.625h16.08    c0.345,0,0.625,0.28,0.625,0.625S75.679,49.85,75.334,49.85z"></path></g><g><path fill="#000000" d="M40.841,49.85H24.667c-0.345,0-0.625-0.28-0.625-0.625s0.28-0.625,0.625-0.625h16.174    c0.345,0,0.625,0.28,0.625,0.625S41.186,49.85,40.841,49.85z"></path></g><g><path fill="#000000" d="M75.334,37.344H62.547c-0.345,0-0.625-0.28-0.625-0.625s0.28-0.625,0.625-0.625h12.787    c0.345,0,0.625,0.28,0.625,0.625S75.679,37.344,75.334,37.344z"></path></g><g><path fill="#000000" d="M37.46,37.344H24.667c-0.345,0-0.625-0.28-0.625-0.625s0.28-0.625,0.625-0.625H37.46    c0.345,0,0.625,0.28,0.625,0.625S37.805,37.344,37.46,37.344z"></path></g><g><path fill="#000000" d="M75.334,24.838H24.667c-0.345,0-0.625-0.28-0.625-0.625s0.28-0.625,0.625-0.625h50.667    c0.345,0,0.625,0.28,0.625,0.625S75.679,24.838,75.334,24.838z"></path></g><g><g><path fill="#000000" d="M37.564,24.838c-0.345,0-0.625-0.28-0.625-0.625V16.5c0-0.345,0.28-0.625,0.625-0.625     s0.625,0.28,0.625,0.625v7.713C38.189,24.558,37.909,24.838,37.564,24.838z"></path></g><g><path fill="#000000" d="M32.435,24.838c-0.345,0-0.625-0.28-0.625-0.625V16.5c0-0.345,0.28-0.625,0.625-0.625     s0.625,0.28,0.625,0.625v7.713C33.06,24.558,32.779,24.838,32.435,24.838z"></path></g><g><path fill="#000000" d="M38.618,17.125h-7.236c-0.345,0-0.625-0.28-0.625-0.625s0.28-0.625,0.625-0.625h7.236     c0.345,0,0.625,0.28,0.625,0.625S38.963,17.125,38.618,17.125z"></path></g></g><g><g><path fill="#000000" d="M47.564,24.838c-0.345,0-0.625-0.28-0.625-0.625V16.5c0-0.345,0.28-0.625,0.625-0.625     s0.625,0.28,0.625,0.625v7.713C48.189,24.558,47.909,24.838,47.564,24.838z"></path></g><g><path fill="#000000" d="M42.435,24.838c-0.345,0-0.625-0.28-0.625-0.625V16.5c0-0.345,0.28-0.625,0.625-0.625     s0.625,0.28,0.625,0.625v7.713C43.06,24.558,42.779,24.838,42.435,24.838z"></path></g><g><path fill="#000000" d="M48.618,17.125h-7.236c-0.345,0-0.625-0.28-0.625-0.625s0.28-0.625,0.625-0.625h7.236     c0.345,0,0.625,0.28,0.625,0.625S48.963,17.125,48.618,17.125z"></path></g></g><g><g><path fill="#000000" d="M67.564,24.838c-0.345,0-0.625-0.28-0.625-0.625V16.5c0-0.345,0.28-0.625,0.625-0.625     s0.625,0.28,0.625,0.625v7.713C68.189,24.558,67.909,24.838,67.564,24.838z"></path></g><g><path fill="#000000" d="M62.435,24.838c-0.345,0-0.625-0.28-0.625-0.625V16.5c0-0.345,0.28-0.625,0.625-0.625     s0.625,0.28,0.625,0.625v7.713C63.06,24.558,62.779,24.838,62.435,24.838z"></path></g><g><path fill="#000000" d="M68.618,17.125h-7.236c-0.345,0-0.625-0.28-0.625-0.625s0.28-0.625,0.625-0.625h7.236     c0.345,0,0.625,0.28,0.625,0.625S68.963,17.125,68.618,17.125z"></path></g></g><g><g><path fill="#000000" d="M67.564,37.344c-0.345,0-0.625-0.28-0.625-0.625v-7.713c0-0.345,0.28-0.625,0.625-0.625     s0.625,0.28,0.625,0.625v7.713C68.189,37.064,67.909,37.344,67.564,37.344z"></path></g><g><path fill="#000000" d="M62.435,32.945c-0.345,0-0.625-0.28-0.625-0.625v-3.314c0-0.345,0.28-0.625,0.625-0.625     s0.625,0.28,0.625,0.625v3.314C63.06,32.666,62.779,32.945,62.435,32.945z"></path></g><g><path fill="#000000" d="M68.618,29.631h-7.236c-0.345,0-0.625-0.28-0.625-0.625s0.28-0.625,0.625-0.625h7.236     c0.345,0,0.625,0.28,0.625,0.625S68.963,29.631,68.618,29.631z"></path></g></g><g><g><path fill="#000000" d="M57.564,24.838c-0.345,0-0.625-0.28-0.625-0.625V16.5c0-0.345,0.28-0.625,0.625-0.625     s0.625,0.28,0.625,0.625v7.713C58.189,24.558,57.909,24.838,57.564,24.838z"></path></g><g><path fill="#000000" d="M52.435,24.838c-0.345,0-0.625-0.28-0.625-0.625V16.5c0-0.345,0.28-0.625,0.625-0.625     s0.625,0.28,0.625,0.625v7.713C53.06,24.558,52.779,24.838,52.435,24.838z"></path></g><g><path fill="#000000" d="M58.618,17.125h-7.236c-0.345,0-0.625-0.28-0.625-0.625s0.28-0.625,0.625-0.625h7.236     c0.345,0,0.625,0.28,0.625,0.625S58.963,17.125,58.618,17.125z"></path></g></g><g><g><path fill="#000000" d="M37.564,32.837c-0.345,0-0.625-0.28-0.625-0.625v-3.206c0-0.345,0.28-0.625,0.625-0.625     s0.625,0.28,0.625,0.625v3.206C38.189,32.557,37.909,32.837,37.564,32.837z"></path></g><g><path fill="#000000" d="M32.435,37.344c-0.345,0-0.625-0.28-0.625-0.625v-7.713c0-0.345,0.28-0.625,0.625-0.625     s0.625,0.28,0.625,0.625v7.713C33.06,37.064,32.779,37.344,32.435,37.344z"></path></g><g><path fill="#000000" d="M38.618,29.631h-7.236c-0.345,0-0.625-0.28-0.625-0.625s0.28-0.625,0.625-0.625h7.236     c0.345,0,0.625,0.28,0.625,0.625S38.963,29.631,38.618,29.631z"></path></g></g><g><g><path fill="#000000" stroke="#000000" stroke-width="1.25" stroke-linecap="round" stroke-linejoin="round" stroke-miterlimit="10" d="     M41.382,28.852"></path></g></g><g><path fill="#000000" d="M64.9,91.375H35.1c-0.345,0-0.625-0.28-0.625-0.625V66.583c0-0.345,0.28-0.625,0.625-0.625H64.9    c0.345,0,0.625,0.28,0.625,0.625V90.75C65.525,91.095,65.245,91.375,64.9,91.375z M35.725,90.125h28.551V67.208H35.725V90.125z"></path></g></g><g><g><g><path fill="#000000" d="M50,87.195c-5.644,0-10.235-4.592-10.235-10.236c0-0.345,0.28-0.625,0.625-0.625H59.61     c0.345,0,0.625,0.28,0.625,0.625C60.235,82.603,55.644,87.195,50,87.195z M41.036,77.584c0.322,4.664,4.22,8.361,8.964,8.361     s8.642-3.697,8.964-8.361H41.036z"></path></g><g><path fill="#000000" d="M53.777,77.584c-0.122,0-0.246-0.036-0.354-0.111c-0.284-0.196-0.354-0.585-0.158-0.87l5.202-7.529     c0.197-0.283,0.585-0.355,0.87-0.159c0.284,0.196,0.354,0.585,0.158,0.87l-5.202,7.529C54.171,77.49,53.977,77.584,53.777,77.584     z"></path></g></g></g><g display="none"><g display="inline"><line fill="#000000" stroke="#000000" stroke-linecap="round" stroke-linejoin="round" stroke-miterlimit="10" x1="48.521" y1="76.37" x2="54.541" y2="86.062"></line><line fill="#000000" stroke="#000000" stroke-linecap="round" stroke-linejoin="round" stroke-miterlimit="10" x1="49.524" y1="86.062" x2="54.541" y2="77.985"></line><line fill="#000000" stroke="#000000" stroke-linecap="round" stroke-linejoin="round" stroke-miterlimit="10" x1="45.459" y1="80.577" x2="45.459" y2="71.271"></line><path fill="#000000" stroke="#000000" stroke-linecap="round" stroke-linejoin="round" stroke-miterlimit="10" d="M45.459,71.271    h3.079c0.942,0,1.706,0.763,1.706,1.704v1.689c0,0.943-0.764,1.705-1.706,1.705h-3.079"></path></g></g></svg>