<svg height='300px' width='300px'  fill="#000000" xmlns="http://www.w3.org/2000/svg" xmlns:xlink="http://www.w3.org/1999/xlink" version="1.1" x="0px" y="0px" viewBox="0 0 100 100" enable-background="new 0 0 100 100" xml:space="preserve"><g><g><g><path fill="#000000" d="M81.124,45.173c-2.099,0-4.073-0.817-5.558-2.302l-8.529-8.53c-3.064-3.064-3.065-8.05,0-11.115     c1.545-1.545,3.519-2.363,5.618-2.363c2.1,0,4.073,0.817,5.557,2.302l8.53,8.531c1.484,1.484,2.302,3.458,2.302,5.557     s-0.817,4.073-2.302,5.557C85.196,44.356,83.223,45.173,81.124,45.173z M72.654,21.864c-1.832,0-3.555,0.713-4.851,2.009     c-2.735,2.736-2.735,7.087-0.06,9.762l8.529,8.53c1.296,1.295,3.019,2.009,4.851,2.009c1.833,0,3.555-0.713,4.85-2.009     c1.356-1.356,2.069-3.079,2.069-4.911s-0.713-3.555-2.009-4.85l-8.53-8.531C76.209,22.578,74.487,21.864,72.654,21.864z"></path></g><g><path fill="#000000" d="M69.295,25.928c-0.124,0-0.246-0.042-0.336-0.131c-0.195-0.194-0.227-0.479-0.033-0.675l0.061-0.062     c2.022-2.022,5.31-2.021,7.332-0.001c0.195,0.195,0.195,0.512,0,0.707s-0.512,0.195-0.707,0c-1.631-1.631-4.285-1.63-5.916,0     C69.591,25.871,69.441,25.928,69.295,25.928z"></path></g><g><path fill="#000000" d="M71.655,38.753c-0.128,0-0.256-0.049-0.354-0.146c-0.195-0.195-0.195-0.512,0-0.707l10.467-10.468     c0.195-0.195,0.512-0.195,0.707,0s0.195,0.512,0,0.707L72.009,38.607C71.911,38.705,71.783,38.753,71.655,38.753z"></path></g></g><g><path fill="#000000" d="M19.167,62.154c-2.1,0-4.073-0.817-5.558-2.302c-3.125-3.125-3.125-8.11-0.061-11.174l8.53-8.53    c1.484-1.484,3.458-2.302,5.557-2.302s4.073,0.818,5.557,2.302c1.546,1.544,2.363,3.518,2.363,5.617s-0.817,4.073-2.302,5.557    l-8.53,8.53C23.239,61.336,21.266,62.154,19.167,62.154z M27.635,38.846c-1.832,0-3.555,0.713-4.85,2.009l-8.53,8.53    c-2.674,2.674-2.674,7.025,0,9.7c1.356,1.356,3.079,2.069,4.911,2.069c1.832,0,3.555-0.713,4.85-2.009l8.53-8.53    c1.295-1.295,2.009-3.018,2.009-4.85s-0.713-3.555-2.009-4.85C31.189,39.56,29.467,38.846,27.635,38.846z"></path></g><g><g><path fill="#000000" d="M38.592,28.239c-4.803,0-8.71-3.907-8.71-8.71c0-4.802,3.908-8.709,8.71-8.709     c4.802,0,8.709,3.907,8.709,8.709C47.301,24.332,43.394,28.239,38.592,28.239z M38.592,11.82c-4.251,0-7.71,3.458-7.71,7.709     c0,4.251,3.459,7.71,7.71,7.71c4.251,0,7.709-3.458,7.709-7.71C46.301,15.278,42.843,11.82,38.592,11.82z"></path></g><g><path fill="#000000" d="M44.065,20.029c-0.276,0-0.5-0.224-0.5-0.5c0-2.742-2.231-4.973-4.973-4.973c-0.276,0-0.5-0.224-0.5-0.5     s0.224-0.5,0.5-0.5c3.293,0,5.973,2.68,5.973,5.973C44.565,19.806,44.341,20.029,44.065,20.029z"></path></g></g><g><g><path fill="#000000" d="M38.708,81.544c-2.327,0-4.514-0.906-6.159-2.551c-1.646-1.645-2.551-3.832-2.551-6.159     s0.906-4.514,2.551-6.159c1.645-1.646,3.832-2.551,6.159-2.551s4.514,0.906,6.159,2.551c3.396,3.396,3.396,8.921,0,12.317     C43.222,80.638,41.035,81.544,38.708,81.544z M38.708,65.124c-2.06,0-3.996,0.802-5.452,2.258     c-1.457,1.456-2.258,3.392-2.258,5.452s0.802,3.996,2.258,5.452c1.456,1.457,3.392,2.258,5.452,2.258s3.996-0.802,5.452-2.258     c3.006-3.006,3.006-7.897,0-10.903C42.704,65.926,40.768,65.124,38.708,65.124z"></path></g><g><path fill="#000000" d="M35.765,76.276c-0.128,0-0.256-0.049-0.354-0.146c-0.195-0.195-0.195-0.512,0-0.707l5.887-5.886     c0.195-0.195,0.512-0.195,0.707,0s0.195,0.512,0,0.707l-5.887,5.886C36.021,76.228,35.893,76.276,35.765,76.276z"></path></g></g><g><g><path fill="#000000" d="M72.057,72.675c-2.822,0-7.89-1.994-12.367-6.37c-0.018-0.014-0.035-0.028-0.05-0.044l0.268-0.439l0,0     l-0.349,0.355c-0.031-0.03-0.06-0.066-0.085-0.106l-0.009,0.009c-4.598-4.684-8.118-12.373-5.594-14.897     c0.542-0.542,1.38-0.817,2.489-0.817c2.822,0,7.889,1.994,12.367,6.37c0.016,0.012,0.031,0.025,0.045,0.04l0.085,0.087     c0.03,0.03,0.06,0.067,0.087,0.108l0.01-0.009c4.598,4.685,8.119,12.375,5.594,14.898C74.004,72.4,73.166,72.675,72.057,72.675z      M60.261,65.482c0.031,0.019,0.061,0.042,0.088,0.068c4.287,4.208,9.074,6.125,11.708,6.125c0.823,0,1.439-0.182,1.783-0.525     c1.518-1.517-0.204-7.993-5.601-13.491c-0.011-0.012-0.022-0.024-0.033-0.037c-0.027-0.026-0.058-0.056-0.06-0.058l0.006-0.01     c-0.03-0.019-0.059-0.041-0.084-0.066c-4.288-4.208-9.075-6.125-11.709-6.125c-0.822,0-1.438,0.181-1.782,0.524     c-1.517,1.517,0.205,7.993,5.601,13.49c0.012,0.012,0.023,0.025,0.034,0.039c0.026,0.025,0.056,0.054,0.056,0.055L60.261,65.482z     "></path></g><g><path fill="#000000" d="M61.699,64.528c-0.128,0-0.256-0.049-0.354-0.146c-0.195-0.195-0.195-0.512,0-0.707l5.018-5.017     c0.195-0.195,0.512-0.195,0.707,0s0.195,0.512,0,0.707l-5.018,5.017C61.955,64.479,61.827,64.528,61.699,64.528z"></path></g></g></g></svg>