<svg height='300px' width='300px'  fill="#000000" xmlns="http://www.w3.org/2000/svg" xmlns:xlink="http://www.w3.org/1999/xlink" version="1.1" x="0px" y="0px" viewBox="0 0 100 100" enable-background="new 0 0 100 100" xml:space="preserve"><g><g><path fill="#000000" d="M52.7,57.37c-5.84,0-10.591-4.751-10.591-10.591S46.86,36.188,52.7,36.188s10.591,4.751,10.591,10.591    S58.54,57.37,52.7,57.37z M52.7,37.188c-5.289,0-9.591,4.302-9.591,9.591s4.302,9.591,9.591,9.591s9.591-4.302,9.591-9.591    S57.989,37.188,52.7,37.188z"></path></g><g><path fill="#000000" d="M65.653,20.197c-0.761,0-1.514-0.126-2.236-0.376c-3.746-1.294-5.681-5.566-4.314-9.523    c1.076-3.113,3.904-5.205,7.036-5.205c0.762,0,1.515,0.127,2.237,0.376c1.82,0.629,3.27,1.969,4.083,3.774    c0.809,1.795,0.891,3.836,0.23,5.748C71.613,18.105,68.786,20.197,65.653,20.197z M66.139,6.093c-2.706,0-5.154,1.821-6.09,4.531    c-1.187,3.435,0.471,7.137,3.695,8.251c0.617,0.213,1.26,0.321,1.91,0.321c2.707,0,5.154-1.821,6.091-4.531    c0.577-1.669,0.507-3.449-0.196-5.01c-0.699-1.552-1.941-2.703-3.498-3.24C67.432,6.202,66.79,6.093,66.139,6.093z"></path></g><g><path fill="#000000" d="M57.252,38.159c-0.054,0-0.109-0.009-0.163-0.027c-0.261-0.09-0.4-0.375-0.31-0.636l6.328-18.311    c0.091-0.261,0.377-0.398,0.636-0.31c0.261,0.09,0.4,0.375,0.31,0.636l-6.328,18.311C57.653,38.029,57.459,38.159,57.252,38.159z"></path></g><g><g><path fill="#000000" d="M17.658,64.022c-3.335,0-6.248-2.161-7.083-5.255c-0.501-1.858-0.215-3.807,0.807-5.489     c1.017-1.675,2.642-2.884,4.574-3.406C16.626,49.692,17.314,49.6,18,49.6c3.335,0,6.247,2.161,7.082,5.254     c1.032,3.826-1.382,7.817-5.381,8.896C19.031,63.931,18.344,64.022,17.658,64.022z M18,50.6c-0.598,0-1.198,0.08-1.783,0.238     c-1.684,0.454-3.097,1.505-3.98,2.958c-0.878,1.446-1.125,3.119-0.696,4.71c0.717,2.659,3.233,4.516,6.117,4.516     c0.598,0,1.197-0.08,1.782-0.238c3.467-0.936,5.564-4.376,4.676-7.67C23.399,52.457,20.884,50.6,18,50.6z"></path></g><g><path fill="#000000" d="M24.598,55.484c-0.22,0-0.422-0.147-0.482-0.37c-0.072-0.267,0.086-0.541,0.353-0.613l18.495-4.99     c0.268-0.071,0.541,0.086,0.613,0.353c0.072,0.267-0.086,0.541-0.353,0.613l-18.495,4.99     C24.685,55.479,24.642,55.484,24.598,55.484z"></path></g></g><g><g><path fill="#000000" d="M57.09,90.584c-3.71,0-6.869-2.991-7.192-6.81c-0.167-1.971,0.418-3.888,1.649-5.397     c1.235-1.514,2.97-2.438,4.886-2.599c3.959-0.332,7.446,2.764,7.787,6.785c0.345,4.075-2.588,7.662-6.537,7.996     C57.484,90.576,57.286,90.584,57.09,90.584z M57.028,76.752c-0.169,0-0.339,0.007-0.51,0.021     c-1.644,0.139-3.133,0.933-4.195,2.235c-1.066,1.307-1.573,2.97-1.428,4.681c0.295,3.48,3.292,6.163,6.706,5.873     c3.399-0.288,5.922-3.39,5.625-6.916C62.944,79.342,60.223,76.752,57.028,76.752z"></path></g><g><path fill="#000000" d="M56.475,76.776c-0.257,0-0.476-0.197-0.498-0.458l-1.593-18.829c-0.023-0.275,0.181-0.517,0.456-0.54     c0.273-0.023,0.517,0.181,0.54,0.456l1.593,18.829c0.023,0.275-0.181,0.517-0.456,0.54     C56.503,76.775,56.489,76.776,56.475,76.776z"></path></g></g><g><g><path fill="#000000" d="M81.117,61.222c-0.586,0-1.174-0.073-1.748-0.216c-1.863-0.465-3.433-1.628-4.42-3.274     s-1.275-3.578-0.809-5.44c0.801-3.207,3.666-5.446,6.967-5.446c0.586,0,1.174,0.073,1.748,0.216     c3.845,0.961,6.19,4.871,5.229,8.715C87.283,58.982,84.418,61.222,81.117,61.222z M81.106,47.845     c-2.841,0-5.307,1.928-5.997,4.688c-0.401,1.604-0.153,3.267,0.697,4.684c0.851,1.417,2.202,2.418,3.805,2.819     c0.495,0.124,1.001,0.186,1.505,0.186c2.842,0,5.308-1.928,5.998-4.688c0.827-3.31-1.192-6.676-4.502-7.503     C82.118,47.907,81.611,47.845,81.106,47.845z"></path></g><g><path fill="#000000" d="M74.625,52.912c-0.041,0-0.082-0.005-0.122-0.015l-11.899-2.986c-0.268-0.067-0.431-0.339-0.363-0.606     c0.066-0.269,0.339-0.433,0.606-0.363l11.899,2.986c0.268,0.067,0.431,0.339,0.363,0.606     C75.053,52.76,74.849,52.912,74.625,52.912z"></path></g></g></g></svg>