<?xml version="1.0" encoding="UTF-8"?>
<svg width="1000px" height="1000px" viewBox="0 0 1000 1000" version="1.1" xmlns="http://www.w3.org/2000/svg" xmlns:xlink="http://www.w3.org/1999/xlink">
    <!-- Generator: Sketch 61.2 (89653) - https://sketch.com -->
    <title>Artboard</title>
    <desc>Created with Sketch.</desc>
    <g id="Artboard" stroke="none" stroke-width="1" fill="none" fill-rule="evenodd">
        <g id="1" transform="translate(150.000000, 184.000000)" fill="#0B5439" fill-rule="nonzero" stroke="#0B5439" stroke-width="5">
            <g id="Group" transform="translate(478.000000, 90.000000)">
                <path d="M147.005607,217.346389 C128.256228,217.346389 110.623416,210.048513 97.3586106,196.783708 L21.1730711,120.589236 C-6.19619759,93.2199669 -6.20513012,48.6823775 21.1730711,21.3041763 C34.9738284,7.50341902 52.6066405,0.196610328 71.3560188,0.196610328 C90.1143296,0.196610328 107.738209,7.49448649 120.994082,20.759292 L197.188554,96.9626965 C210.444427,110.218569 217.751236,127.851382 217.751236,146.60076 C217.751236,165.350138 210.45336,182.98295 197.188554,196.238823 C183.378864,210.048513 165.754985,217.346389 147.005607,217.346389 Z M71.3470863,9.13807181 C54.9826932,9.13807181 39.5919458,15.506965 28.0153883,27.0835225 C3.58492162,51.5229217 3.58492162,90.3883552 27.4794366,114.28287 L103.664976,190.477342 C115.241534,202.044967 130.632281,208.422793 146.996674,208.422793 C163.37,208.422793 178.751814,202.0539 190.319439,190.477342 C202.431949,178.364833 208.800842,162.974086 208.800842,146.609692 C208.800842,130.245299 202.431949,114.854552 190.855391,103.286927 L114.660919,27.0835225 C103.102227,15.5158975 87.7204119,9.13807181 71.3470863,9.13807181 Z" id="Shape"></path>
                <path d="M41.3427215,45.4398695 C40.2350879,45.4398695 39.1453194,45.0647033 38.3413918,44.2697082 C36.5995486,42.5367976 36.3137077,39.9910268 38.0466183,38.2402512 L38.5915026,37.6864344 C56.6530762,19.6248608 86.0232314,19.6337933 104.084805,37.6775018 C105.826648,39.419345 105.826648,42.2509567 104.084805,43.9927998 C102.342962,45.734643 99.5113501,45.734643 97.7695069,43.9927998 C83.2005522,29.4238451 59.4936204,29.4327776 44.9246656,43.9927998 C43.9867501,44.9307153 42.6468708,45.4398695 41.3427215,45.4398695 Z" id="Path"></path>
                <path d="M62.4234899,159.999553 C61.2801262,159.999553 60.1367625,159.561859 59.2613746,158.695404 C57.5195315,156.953561 57.5195315,154.121949 59.2613746,152.380106 L152.758155,58.8743931 C154.499998,57.1325499 157.33161,57.1325499 159.073453,58.8743931 C160.815296,60.6162362 160.815296,63.4478479 159.073453,65.189691 L65.5856051,158.695404 C64.7102173,159.570792 63.5668536,159.999553 62.4234899,159.999553 Z" id="Path"></path>
            </g>
            <path d="M70.6390145,459 C51.8839456,459 34.2631118,451.706558 21.0005987,438.449811 C-6.90873002,410.552616 -6.90873002,366.051012 20.4558086,338.698371 L96.6371124,262.550189 C109.890694,249.30237 127.520459,242 146.266597,242 C165.012735,242 182.6425,249.30237 195.896082,262.550189 C209.703385,276.333635 217,293.955735 217,312.693722 C217,331.43171 209.703385,349.053809 196.440872,362.301629 L120.259568,438.449811 C107.005986,451.69763 89.3851524,459 70.6390145,459 Z M146.266597,250.927102 C129.905032,250.927102 114.516945,257.292126 102.951319,268.86165 L26.7700152,345.009832 C2.88856074,368.880903 2.88856074,407.722725 26.7700152,431.602723 C38.8804311,443.707874 54.2685186,450.072898 70.6300835,450.072898 C86.9916484,450.072898 102.379736,443.707874 113.945362,432.13835 L190.126666,355.990168 C201.692291,344.429571 208.069015,329.048173 208.069015,312.693722 C208.069015,296.339271 201.701222,280.957874 190.126666,269.397277 C178.007319,257.301053 162.628162,250.927102 146.266597,250.927102 Z" id="Shape"></path>
            <g id="Group" transform="translate(167.000000, 0.000000)">
                <path d="M78.0443413,155.93485 C35.2109411,155.93485 0.368114897,121.092024 0.368114897,78.2586235 C0.368114897,35.4341414 35.2198592,0.591315123 78.0443413,0.591315123 C120.868823,0.591315123 155.71165,35.4341414 155.71165,78.2586235 C155.71165,121.092024 120.868823,155.93485 78.0443413,155.93485 Z M78.0443413,9.50936638 C40.1337054,9.50936638 9.28616615,40.3479876 9.28616615,78.2586235 C9.28616615,116.169259 40.1337054,147.016799 78.0443413,147.016799 C115.954977,147.016799 146.793598,116.178177 146.793598,78.2586235 C146.793598,40.3479876 115.954977,9.50936638 78.0443413,9.50936638 Z" id="Shape"></path>
                <path d="M126.852836,82.7176491 C124.391454,82.7176491 122.39381,80.7200056 122.39381,78.2586235 C122.39381,53.805327 102.497638,33.9091546 78.0443413,33.9091546 C75.5829592,33.9091546 73.5853157,31.9115111 73.5853157,29.450129 C73.5853157,26.9887468 75.5829592,24.9911034 78.0443413,24.9911034 C107.411484,24.9911034 131.311861,48.8914807 131.311861,78.2586235 C131.311861,80.7289237 129.314218,82.7176491 126.852836,82.7176491 Z" id="Path"></path>
            </g>
            <g id="Group" transform="translate(167.000000, 477.000000)">
                <path d="M78.4808284,155.682172 C57.6818259,155.682172 38.1341601,147.602417 23.4309546,132.932223 C8.71881106,118.262029 0.629813531,98.7582506 0.629813531,78.0059454 C0.629813531,57.2536401 8.72774917,37.749862 23.4309546,23.0796677 C38.1341601,8.40055534 57.6818259,0.329718952 78.4808284,0.329718952 C99.2798309,0.329718952 118.827497,8.40947339 133.530702,23.0796677 C163.884554,53.3653698 163.884554,102.637603 133.530702,132.923305 C118.827497,147.602417 99.2798309,155.682172 78.4808284,155.682172 Z M78.4808284,9.24777021 C60.0683036,9.24777021 42.7641056,16.4000473 29.7502046,29.3847299 C16.7273655,42.3694126 9.56793234,59.6347598 9.56793234,78.0059454 C9.56793234,96.3771309 16.7363036,113.642478 29.7502046,126.627161 C42.7641056,139.620761 60.0683036,146.764121 78.4808284,146.764121 C96.8933531,146.764121 114.197551,139.611843 127.211452,126.627161 C154.079437,99.8194987 154.079437,56.2013101 127.211452,29.393648 C114.197551,16.4000473 96.8933531,9.24777021 78.4808284,9.24777021 Z" id="Shape"></path>
                <path d="M52.1759447,108.701878 C51.0318655,108.701878 49.8877863,108.264893 49.0118507,107.399842 C47.2689175,105.660822 47.2689175,102.8338 49.0118507,101.09478 L101.630556,48.6031304 C103.373489,46.8641104 106.206873,46.8641104 107.949806,48.6031304 C109.692739,50.3421504 109.692739,53.1691726 107.949806,54.9081926 L55.3311007,107.399842 C54.4641031,108.273811 53.3200239,108.701878 52.1759447,108.701878 Z" id="Path"></path>
            </g>
            <g id="Group" transform="translate(374.000000, 354.000000)">
                <path d="M170.11284,199.433509 C144.922179,199.433509 99.682536,181.634012 59.718471,142.571527 C59.5577935,142.446555 59.4060426,142.321584 59.2721447,142.178759 L61.6644541,138.260014 L61.6644541,138.260014 L58.5490959,141.428931 C58.2723735,141.161135 58.0135042,140.83978 57.790341,140.482719 L57.7100023,140.563058 C16.6658274,98.7512016 -14.7555505,30.1151293 7.77500572,7.58457313 C12.6131838,2.74639506 20.0936141,0.291599908 29.9931334,0.291599908 C55.1837949,0.291599908 100.414511,18.0910964 140.387503,57.1535821 C140.530327,57.2607004 140.664225,57.3767453 140.789197,57.5106432 L141.547951,58.2872511 C141.815747,58.5550469 142.083543,58.8853285 142.324559,59.2513161 L142.413825,59.1709773 C183.458,100.99176 214.888304,169.636759 192.348821,192.158389 C187.49279,196.978714 180.01236,199.433509 170.11284,199.433509 Z M64.8155184,135.224994 C65.0922408,135.394598 65.3600366,135.599908 65.6010529,135.831998 C103.869078,173.394827 146.600366,190.506981 170.11284,190.506981 C177.459373,190.506981 182.958114,188.882353 186.02884,185.820554 C199.579309,172.279011 184.207828,114.470817 136.031357,65.3927672 C135.933165,65.2856489 135.834974,65.1785306 135.736782,65.0624857 C135.495766,64.830396 135.219043,64.5626001 135.20119,64.5447471 L135.254749,64.4554818 C134.986954,64.2858778 134.728084,64.0894942 134.504921,63.866331 C96.2279698,26.3035019 53.4966812,9.19134813 29.9842069,9.19134813 C22.6466011,9.19134813 17.1478599,10.8070497 14.0771344,13.8688487 C0.535591669,27.4103914 15.9070726,85.2185855 64.0746166,134.287709 C64.181735,134.394827 64.2799268,134.510872 64.3781186,134.635843 C64.6102083,134.859007 64.8780041,135.117876 64.8780041,135.126802 L64.8155184,135.224994 Z" id="Shape"></path>
                <path d="M77.6518654,126.709087 C76.5092699,126.709087 75.3666743,126.271687 74.4918746,125.405814 C72.7512016,123.665141 72.7512016,120.835431 74.4918746,119.094759 L119.285191,74.3103685 C121.025864,72.5696956 123.855573,72.5696956 125.596246,74.3103685 C127.336919,76.0510414 127.336919,78.8807507 125.596246,80.6214237 L80.8029297,125.405814 C79.9370565,126.271687 78.794461,126.709087 77.6518654,126.709087 Z" id="Path"></path>
            </g>
        </g>
    </g>
</svg>