<?xml version="1.0" encoding="UTF-8"?>
<svg width="39px" height="22px" viewBox="0 0 39 22" version="1.1" xmlns="http://www.w3.org/2000/svg" xmlns:xlink="http://www.w3.org/1999/xlink">
    <!-- Generator: Sketch 64 (93537) - https://sketch.com -->
    <title>aaa</title>
    <desc>Created with Sketch.</desc>
    <g id="Page-1" stroke="none" stroke-width="1" fill="none" fill-rule="evenodd">
        <g id="aaa" fill="#FFFFFF">
            <path d="M38.1748,1.29026 C37.3896,0.505134 36.1154,0.505134 35.3302,1.29026 L19.7332,16.8888 L4.13475,1.29182 C3.34962,0.506729 2.07538,0.506744 1.29026,1.29186 C0.505134,2.07699 0.505134,3.35126 1.29026,4.13639 L18.3126,21.1587 L18.3149,21.161 C18.7053,21.5473 19.2191,21.7449 19.7333,21.7449 C20.2457,21.7449 20.764,21.5483 21.1566,21.1531 L21.1592,21.1505 L38.1748,4.13487 L38.175,4.13466 C38.9598,3.34955 38.9599,2.07544 38.1748,1.29026 Z M2.16556,2.16715 C2.18913,2.14358 2.21385,2.12185 2.23955,2.10196 C2.21386,2.12185 2.18914,2.14357 2.16557,2.16714 C1.86385,2.46886 1.86385,2.95937 2.16557,3.26109 L19.1856,20.2811 C19.258,20.3528 19.341,20.4075 19.4295,20.4452 C19.341,20.4075 19.258,20.3528 19.1856,20.2811 L2.16556,3.2611 C1.86384,2.95938 1.86384,2.46887 2.16556,2.16715 Z" id="Shape"></path>
        </g>
    </g>
</svg>