<?xml version="1.0" encoding="UTF-8"?>
<svg width="800px" height="800px" viewBox="0 0 800 800" version="1.1" xmlns="http://www.w3.org/2000/svg" xmlns:xlink="http://www.w3.org/1999/xlink">
    <!-- Generator: Sketch 61.2 (89653) - https://sketch.com -->
    <title>Artboard</title>
    <desc>Created with Sketch.</desc>
    <g id="Artboard" stroke="none" stroke-width="1" fill="none" fill-rule="evenodd">
        <g id="1" transform="translate(237.000000, 222.000000)" fill="#0B5439" fill-rule="nonzero" stroke="#0B5439" stroke-width="3.6">
            <g id="Group" transform="translate(269.100000, 50.670000)">
                <path d="M82.8607602,122.313554 C72.2925392,122.313554 62.3536787,118.206612 54.8768763,110.741728 L11.9343528,67.8626319 C-3.49253103,52.46034 -3.49756591,27.3964276 11.9343528,11.9891088 C19.7132482,4.22261374 29.6521087,0.110644157 40.2203297,0.110644157 C50.7935856,0.110644157 60.7274112,4.21758688 68.1991787,11.6824705 L111.146737,54.5665934 C118.618505,62.0264501 122.737039,71.9494672 122.737039,82.5008415 C122.737039,93.0522157 118.623539,102.975233 111.146737,110.43509 C103.362807,118.206612 93.4289812,122.313554 82.8607602,122.313554 Z M40.2152948,5.14252869 C30.9913878,5.14252869 22.3162831,8.72667821 15.7910737,15.2414858 C2.02066668,28.9949684 2.02066668,50.8668261 15.4889807,64.3136704 L58.4315042,107.192766 C64.9567136,113.702547 73.6318183,117.291723 82.8557253,117.291723 C92.0846672,117.291723 100.754737,113.707574 107.274911,107.192766 C114.102214,100.376347 117.692086,91.7150716 117.692086,82.5058683 C117.692086,73.2966651 114.102214,64.6353893 107.577005,58.1256086 L64.6294461,15.2414858 C58.1143065,8.73170507 49.4442367,5.14252869 40.2152948,5.14252869 Z" id="Shape"></path>
                <path d="M23.3031203,25.5716783 C22.6787947,25.5716783 22.0645389,25.3605503 21.6113994,24.9131599 C20.629597,23.9379495 20.4684807,22.5052951 21.4452482,21.520031 L21.7523761,21.2083658 C31.932911,11.0440596 48.4876088,11.0490865 58.6681438,21.203339 C59.6499461,22.1835762 59.6499461,23.7770901 58.6681438,24.7573273 C57.6863414,25.7375646 56.0902833,25.7375646 55.1084809,24.7573273 C46.8965855,16.5585225 33.5340041,16.5635493 25.3221087,24.7573273 C24.7934459,25.2851474 24.0382133,25.5716783 23.3031203,25.5716783 Z" id="Path"></path>
                <path d="M35.1854459,90.041128 C34.5409808,90.041128 33.8965157,89.7948119 33.4030971,89.3072067 C32.4212948,88.3269695 32.4212948,86.7334556 33.4030971,85.7532184 L86.1032253,33.1320722 C87.0850276,32.151835 88.6810858,32.151835 89.6628881,33.1320722 C90.6446905,34.1123095 90.6446905,35.7058234 89.6628881,36.6860606 L36.9677948,89.3072067 C36.4743762,89.7998388 35.8299111,90.041128 35.1854459,90.041128 Z" id="Path"></path>
            </g>
            <path d="M39.8443105,258.57 C29.2654145,258.57 19.3262898,254.456095 11.845499,246.978557 C-3.89690578,231.242997 -3.89690578,206.141631 11.5382073,190.713229 L54.5086754,147.761443 C61.9844286,140.28894 71.9285908,136.17 82.5024493,136.17 C93.0763077,136.17 103.02047,140.28894 110.496223,147.761443 C118.284306,155.536069 122.4,165.475908 122.4,176.045169 C122.4,186.61443 118.284306,196.554269 110.803515,204.026771 L67.8330468,246.978557 C60.3572936,254.45106 50.4181689,258.57 39.8443105,258.57 Z M82.5024493,141.205379 C73.2736219,141.205379 64.5938896,144.795605 58.0702371,151.321456 L15.0997689,194.273242 C1.629308,207.737846 1.629308,229.646781 15.0997689,243.116421 C21.9307132,249.944395 30.6104455,253.534621 39.8392729,253.534621 C49.0681003,253.534621 57.7478326,249.944395 64.2714851,243.418544 L107.241953,200.466758 C113.765606,193.945942 117.36243,185.269984 117.36243,176.045169 C117.36243,166.820354 113.770643,158.144395 107.241953,151.623579 C100.405971,144.80064 91.7312767,141.205379 82.5024493,141.205379 Z" id="Shape"></path>
            <g id="Group" transform="translate(93.600000, 0.270000)">
                <path d="M44.0544698,88.0221041 C19.8758721,88.0221041 0.207793497,68.3540255 0.207793497,44.1754278 C0.207793497,20.0018641 19.8809061,0.33378556 44.0544698,0.33378556 C68.2280334,0.33378556 87.896112,20.0018641 87.896112,44.1754278 C87.896112,68.3540255 68.2280334,88.0221041 44.0544698,88.0221041 Z M44.0544698,5.36784713 C22.654674,5.36784713 5.24185507,22.775632 5.24185507,44.1754278 C5.24185507,65.5752235 22.654674,82.9880425 44.0544698,82.9880425 C65.4542655,82.9880425 82.8620504,65.5802576 82.8620504,44.1754278 C82.8620504,22.775632 65.4542655,5.36784713 44.0544698,5.36784713 Z" id="Shape"></path>
                <path d="M71.6058888,46.6924586 C70.2164878,46.6924586 69.088858,45.5648288 69.088858,44.1754278 C69.088858,30.372031 57.8578666,19.1410396 44.0544698,19.1410396 C42.6650688,19.1410396 41.537439,18.0134098 41.537439,16.6240088 C41.537439,15.2346078 42.6650688,14.106978 44.0544698,14.106978 C60.6316345,14.106978 74.1229195,27.598263 74.1229195,44.1754278 C74.1229195,45.5698628 72.9952898,46.6924586 71.6058888,46.6924586 Z" id="Path"></path>
            </g>
            <g id="Group" transform="translate(94.500000, 268.470000)">
                <path d="M43.9492639,87.8794723 C32.3018225,87.8794723 21.3551296,83.3186125 13.1213346,75.0375813 C4.88253419,66.75655 0.352695578,55.7470573 0.352695578,44.032796 C0.352695578,32.3185348 4.88753954,21.3090421 13.1213346,13.0280108 C21.3551296,4.74194548 32.3018225,0.186119754 43.9492639,0.186119754 C55.5967053,0.186119754 66.5433982,4.74697954 74.7771932,13.0280108 C91.77535,30.1236839 91.77535,57.9368741 74.7771932,75.0325472 C66.5433982,83.3186125 55.5967053,87.8794723 43.9492639,87.8794723 Z M43.9492639,5.22018133 C33.63825,5.22018133 23.9478991,9.25749871 16.6601146,16.5870924 C9.36732469,23.916686 5.35804211,33.6626292 5.35804211,44.032796 C5.35804211,54.4029629 9.37233003,64.1489061 16.6601146,71.4784997 C23.9478991,78.8131274 33.63825,82.8454108 43.9492639,82.8454108 C54.2602778,82.8454108 63.9506286,78.8080934 71.2384132,71.4784997 C86.2844849,56.3461106 86.2844849,31.7245155 71.2384132,16.5921264 C63.9506286,9.25749871 54.2602778,5.22018133 43.9492639,5.22018133 Z" id="Shape"></path>
                <path d="M29.218529,61.360036 C28.5778447,61.360036 27.9371603,61.113367 27.4466364,60.625063 C26.4705938,59.643421 26.4705938,58.0476235 27.4466364,57.0659814 L56.9131114,27.435495 C57.889154,26.453853 59.4758488,26.453853 60.4518914,27.435495 C61.427934,28.417137 61.427934,30.0129346 60.4518914,30.9945766 L30.9854164,60.625063 C30.4998978,61.118401 29.8592134,61.360036 29.218529,61.360036 Z" id="Path"></path>
            </g>
            <g id="Group" transform="translate(210.600000, 199.170000)">
                <path d="M95.6884728,112.181349 C81.5187257,112.181349 56.0714265,102.169132 33.59164,80.1964837 C33.5012589,80.1261873 33.4158989,80.0558909 33.3405814,79.9755522 L34.6862554,77.7712577 L34.6862554,77.7712577 L32.9338664,79.5537737 C32.7782101,79.4031386 32.6325961,79.2223764 32.5070668,79.0215295 L32.4618763,79.0667201 C9.37452792,55.5475509 -8.29999714,16.9397602 4.37344072,4.26632238 C7.09491588,1.54484722 11.3026579,0.164024949 16.8711376,0.164024949 C31.0408846,0.164024949 56.4831626,10.1762417 78.9679704,32.1488899 C79.0483091,32.209144 79.1236267,32.2744192 79.1939231,32.3497368 L79.6207227,32.7865787 C79.7713579,32.9372139 79.921993,33.1229973 80.0575647,33.3288653 L80.1077764,33.2836748 C103.195125,56.8078651 120.874671,95.4206769 108.196212,108.089094 C105.464694,110.800526 101.256952,112.181349 95.6884728,112.181349 Z M36.4587291,76.0640593 C36.6143854,76.1594615 36.7650206,76.2749485 36.9005922,76.405499 C58.4263561,97.5345903 82.462706,107.160177 95.6884728,107.160177 C99.8208972,107.160177 102.913939,106.246324 104.641222,104.524062 C112.263361,96.9069438 103.616903,64.3898346 76.5176385,36.7834316 C76.4624056,36.7231775 76.4071727,36.6629234 76.3519398,36.5976482 C76.2163682,36.4670977 76.0607118,36.3164626 76.0506695,36.3064202 L76.0807965,36.2562085 C75.9301614,36.1608062 75.7845474,36.0503405 75.6590181,35.9248112 C54.128233,14.7957198 30.0918832,5.17013333 16.8661164,5.17013333 C12.7387131,5.17013333 9.64567121,6.07896544 7.91838808,7.8012274 C0.301270314,15.4183452 8.94772831,47.9354543 36.0419718,75.5368362 C36.1022259,75.5970903 36.1574588,75.6623655 36.2126917,75.7326619 C36.3432422,75.8581912 36.4938773,76.0038052 36.4938773,76.0088264 L36.4587291,76.0640593 Z" id="Shape"></path>
                <path d="M43.6791743,71.2738613 C43.0364643,71.2738613 42.3937543,71.0278239 41.9016794,70.5407702 C40.9225509,69.5616417 40.9225509,67.9699302 41.9016794,66.9908017 L67.09792,41.7995823 C68.0770485,40.8204538 69.66876,40.8204538 70.6478885,41.7995823 C71.6270171,42.7787108 71.6270171,44.3704223 70.6478885,45.3495508 L45.451648,70.5407702 C44.9645943,71.0278239 44.3218843,71.2738613 43.6791743,71.2738613 Z" id="Path"></path>
            </g>
        </g>
    </g>
</svg>