<?xml version="1.0" encoding="UTF-8"?>
<svg width="800px" height="800px" viewBox="0 0 800 800" version="1.1" xmlns="http://www.w3.org/2000/svg" xmlns:xlink="http://www.w3.org/1999/xlink">
    <!-- Generator: Sketch 61.2 (89653) - https://sketch.com -->
    <title>Artboard</title>
    <desc>Created with Sketch.</desc>
    <g id="Artboard" stroke="none" stroke-width="1" fill="none" fill-rule="evenodd">
        <g id="2" transform="translate(210.000000, 192.000000)" fill="#0B5439" fill-rule="nonzero" stroke="#0B5439" stroke-width="3.2">
            <path d="M206.64,254.32 C178.187163,254.32 155.04,231.172837 155.04,202.72 C155.04,174.267163 178.187163,151.12 206.64,151.12 C235.092837,151.12 258.24,174.267163 258.24,202.72 C258.24,231.172837 235.092837,254.32 206.64,254.32 Z M206.64,155.992061 C180.871668,155.992061 159.912061,176.951668 159.912061,202.72 C159.912061,228.488332 180.871668,249.447939 206.64,249.447939 C232.408332,249.447939 253.367939,228.488332 253.367939,202.72 C253.367939,176.951668 232.408332,155.992061 206.64,155.992061 Z" id="Shape"></path>
            <path d="M269.848359,74.32 C266.145183,74.32 262.480937,73.7060169 258.967542,72.4877966 C240.738768,66.1822881 231.322676,45.365339 237.974768,26.0833475 C243.210796,10.9140678 256.972402,0.72 272.213331,0.72 C275.921373,0.72 279.58562,1.33885593 283.099014,2.55220339 C291.955493,5.61724576 299.011479,12.1469068 302.967698,20.9424576 C306.904451,29.6892797 307.303479,39.6348305 304.086923,48.9517797 C298.850895,64.1259322 285.094155,74.32 269.848359,74.32 Z M272.213331,5.59288136 C259.045402,5.59288136 247.132951,14.4663983 242.57819,27.6719068 C236.802014,44.4102542 244.870169,62.449661 260.558789,67.8780508 C263.561233,68.9159746 266.690197,69.4422458 269.853226,69.4422458 C283.026021,69.4422458 294.933606,60.5687288 299.493233,47.3632203 C302.301029,39.2303814 301.960395,30.5566525 298.539458,22.9500847 C295.137986,15.3873729 289.094169,9.77868644 281.5175,7.16194915 C278.505324,6.12402542 275.381226,5.59288136 272.213331,5.59288136 Z" id="Shape"></path>
            <path d="M228.643414,161.52 C228.384054,161.52 228.119891,161.476376 227.86053,161.389129 C226.606956,160.952892 225.939344,159.571477 226.371611,158.306391 L256.764783,69.5516375 C257.201853,68.2865514 258.575501,67.6225024 259.81947,68.0490448 C261.073044,68.4852814 261.740656,69.8666972 261.308389,71.1317833 L230.915217,159.886536 C230.569404,160.889881 229.637628,161.52 228.643414,161.52 Z" id="Path"></path>
            <g id="Group" transform="translate(0.640000, 215.920000)">
                <path d="M35.6556614,70.9584474 C19.4212529,70.9584474 5.2410934,60.4566734 1.17640641,45.4208157 C-1.26240578,36.3915255 0.129810363,26.9200042 5.10479252,18.7460182 C10.0554352,10.6060499 17.9657542,4.73069376 27.370515,2.19393947 C30.6320004,1.31919661 33.9811077,0.87210582 37.3204793,0.87210582 C53.5548878,0.87210582 67.7301795,11.3738798 71.7948664,26.4048779 C76.8185275,44.9980233 65.0674444,64.3930163 45.6007578,69.6366138 C42.3392725,70.5162163 38.995033,70.9584474 35.6556614,70.9584474 Z M37.3204793,5.73178836 C34.4094819,5.73178836 31.4887488,6.12056296 28.6410339,6.8883928 C20.4435095,9.09468868 13.5651829,14.202215 9.26683728,21.2633338 C4.99283108,28.2904347 3.7904626,36.4206836 5.87878681,44.1524385 C9.36906294,57.0743344 21.6166707,66.0987649 35.6556614,66.0987649 C38.5666588,66.0987649 41.4825241,65.7099903 44.3302389,64.9421604 C61.2072087,60.3934976 71.4151711,43.6761896 67.092486,27.6683953 C63.6022099,14.7562188 51.3594701,5.73178836 37.3204793,5.73178836 Z" id="Shape"></path>
                <path d="M69.4388084,29.4664779 C68.3678729,29.4664779 67.3845594,28.7521046 67.092486,27.6683953 C66.7419981,26.3708601 67.5111245,25.0393071 68.8108507,24.6894099 L158.842451,0.439594074 C160.147045,0.0945566138 161.475978,0.857526772 161.826466,2.15506201 C162.176954,3.45259725 161.407828,4.78415026 160.108102,5.13404741 L70.0765018,29.3838633 C69.8623147,29.4421795 69.6529955,29.4664779 69.4388084,29.4664779 Z" id="Path"></path>
            </g>
            <g id="Group" transform="translate(193.440000, 252.720000)">
                <path d="M34.9494809,163.735058 C17.0618549,163.735058 1.83085473,149.183587 0.273522335,130.603824 C-0.531661908,121.01474 2.28889367,111.68837 8.22411405,104.346956 C14.1786203,96.9812161 22.5438578,92.4858768 31.78178,91.702598 C50.8699502,90.0873895 67.68239,105.149695 69.3265088,124.712205 C70.9899133,144.53743 56.8485637,161.988492 37.8086082,163.613431 C36.8491371,163.696137 35.8944875,163.735058 34.9494809,163.735058 Z M34.6505502,96.4411916 C33.835723,96.4411916 33.0160744,96.4752472 32.1916043,96.5433584 C24.2651199,97.2196053 17.0859622,101.082483 11.965569,107.416825 C6.82588992,113.775492 4.38140841,121.86613 5.08052048,130.190292 C6.50285193,147.12079 20.9527751,160.173815 37.4132482,158.76294 C53.8013994,157.361796 65.9659494,142.2703 64.533975,125.116007 C63.1743226,109.041764 50.055123,96.4411916 34.6505502,96.4411916 Z" id="Shape"></path>
                <path d="M31.9842814,96.5579536 C30.7451656,96.5579536 29.6892653,95.5995317 29.5831931,94.3297443 L21.9026033,2.72504419 C21.7917096,1.3871456 22.775288,0.209794839 24.1011902,0.0978978658 C25.4174495,-0.0139991072 26.5938863,0.978478392 26.7047799,2.31637698 L34.3853698,93.9210771 C34.4962634,95.2589757 33.512685,96.4363265 32.1867829,96.5482235 C32.1192824,96.5530885 32.0517819,96.5579536 31.9842814,96.5579536 Z" id="Path"></path>
            </g>
            <g id="Group" transform="translate(252.640000, 203.920000)">
                <path d="M91.9118994,69.8731374 C89.0685541,69.8731374 86.2155045,69.5184448 83.4303847,68.8236359 C74.3908756,66.5642924 66.7730392,60.9135043 61.9839917,52.9159143 C57.1949442,44.9183243 55.7975322,35.5311165 58.0586225,26.484025 C61.9451747,10.9018432 75.8465132,0.0229829103 91.8633782,0.0229829103 C94.7067235,0.0229829103 97.5597731,0.377675542 100.344893,1.0724844 C119.001314,5.74179425 130.379547,24.7397147 125.716655,43.4169541 C121.830103,58.9894183 107.928764,69.8731374 91.9118994,69.8731374 Z M91.8585261,4.87692728 C78.0736386,4.87692728 66.1082981,14.2446998 62.7603318,27.6549966 C60.8146296,35.4485169 62.0179566,43.5287066 66.142263,50.4136307 C70.2714214,57.2985548 76.8266425,62.1622167 84.604599,64.1105968 C87.0064009,64.7130884 89.4615762,65.0143342 91.9070473,65.0143342 C105.696787,65.0143342 117.662127,55.6465617 121.010094,42.2362649 C125.022801,26.1536264 115.226361,9.7988949 99.1658265,5.78066468 C96.7688767,5.17817308 94.3088492,4.87692728 91.8585261,4.87692728 Z" id="Shape"></path>
                <path d="M60.4119032,29.496483 C60.2129661,29.496483 60.0140289,29.472189 59.8199439,29.4236009 L2.08450722,14.9152146 C0.784137694,14.5896748 -0.00675869966,13.2680804 0.323185808,11.9707799 C0.643426065,10.6637619 1.96805622,9.86691815 3.26357363,10.2070344 L60.9990103,24.7154207 C62.2993799,25.0409605 63.0902763,26.3625549 62.7603318,27.6598554 C62.4886127,28.7579449 61.4987792,29.496483 60.4119032,29.496483 Z" id="Path"></path>
            </g>
        </g>
    </g>
</svg>