<?xml version="1.0" encoding="UTF-8"?>
<svg width="1000px" height="1000px" viewBox="0 0 1000 1000" version="1.1" xmlns="http://www.w3.org/2000/svg" xmlns:xlink="http://www.w3.org/1999/xlink">
    <!-- Generator: Sketch 61.2 (89653) - https://sketch.com -->
    <title>Artboard</title>
    <desc>Created with Sketch.</desc>
    <g id="Artboard" stroke="none" stroke-width="1" fill="none" fill-rule="evenodd">
        <g id="2" transform="translate(154.000000, 122.000000)" fill="#0B5439" fill-rule="nonzero" stroke="#0B5439" stroke-width="5">
            <path d="M376,463 C324.167312,463 282,420.832688 282,369 C282,317.167312 324.167312,275 376,275 C427.832688,275 470,317.167312 470,369 C470,420.832688 427.832688,463 376,463 Z M376,283.87546 C329.05769,283.87546 290.87546,322.05769 290.87546,369 C290.87546,415.94231 329.05769,454.12454 376,454.12454 C422.94231,454.12454 461.12454,415.94231 461.12454,369 C461.12454,322.05769 422.94231,283.87546 376,283.87546 Z" id="Shape"></path>
            <path d="M490.833381,134 C484.100333,134 477.438067,132.88215 471.050077,130.664195 C437.90685,119.184057 420.786684,81.2836335 432.881396,46.1778337 C442.401447,18.5598517 467.422548,0 495.133329,0 C501.875224,0 508.537491,1.1267214 514.925481,3.33580508 C531.02817,8.91618114 543.857235,20.8044227 551.050359,36.8180614 C558.208093,52.742982 558.933599,70.8503708 553.085314,87.8132945 C543.565263,115.440148 518.553009,134 490.833381,134 Z M495.133329,8.87182203 C471.191639,8.87182203 449.532638,25.02741 441.251255,49.0700477 C430.749116,79.5447564 445.418489,112.388242 473.943252,122.271451 C479.402241,124.161149 485.091268,125.119306 490.842228,125.119306 C514.792766,125.119306 536.44292,108.963718 544.73315,84.9210805 C549.838234,70.1140095 549.2189,54.3221663 542.999015,40.4732521 C536.81452,26.7041843 525.825762,16.4927172 512.05,11.7285487 C506.573317,9.83885064 500.893137,8.87182203 495.133329,8.87182203 Z" id="Shape"></path>
            <path d="M416.438122,293 C415.95919,293 415.471389,292.920303 414.992457,292.760909 C412.677618,291.963938 411.444811,289.440198 412.243031,287.128983 L468.366787,124.980876 C469.173876,122.669661 471.710443,121.456495 474.007543,122.235755 C476.322382,123.032726 477.555189,125.556466 476.756969,127.867681 L420.633213,290.015788 C419.994637,291.84882 418.274029,293 416.438122,293 Z" id="Path"></path>
            <g id="Group" transform="translate(0.000000, 393.000000)">
                <path d="M65.04304,129.558963 C35.42824,129.558963 9.5608,110.384376 2.146,82.9312646 C-2.30288,66.4452011 0.2368,49.1516931 9.31216,34.2272804 C18.34312,19.3649788 32.77312,8.63750265 49.92928,4.00578836 C55.87888,2.4086455 61.98832,1.59232804 68.08,1.59232804 C97.6948,1.59232804 123.55336,20.7669153 130.96816,48.2111534 C140.13232,82.1593122 118.696,117.571519 83.18488,127.145503 C77.23528,128.751519 71.13472,129.558963 65.04304,129.558963 Z M68.08,10.4653439 C62.76976,10.4653439 57.44176,11.1751852 52.24696,12.5771217 C37.29304,16.6054709 24.7456,25.9310106 16.90456,38.8235026 C9.10792,51.6538836 6.91456,66.4984392 10.72408,80.6154074 C17.09104,104.208757 39.43312,120.685947 65.04304,120.685947 C70.35328,120.685947 75.6724,119.976106 80.8672,118.574169 C111.65416,110.269026 130.27552,79.7458519 122.39008,50.5181376 C116.02312,26.9425344 93.68992,10.4653439 68.08,10.4653439 Z" id="Shape"></path>
                <path d="M126.67024,53.8011534 C124.71664,53.8011534 122.92288,52.4968201 122.39008,50.5181376 C121.75072,48.1490423 123.15376,45.717836 125.52472,45.0789788 L289.76032,0.80262963 C292.14016,0.172645503 294.5644,1.56570899 295.20376,3.93480423 C295.84312,6.30389947 294.44008,8.73510582 292.06912,9.37396296 L127.83352,53.6503122 C127.4428,53.7567884 127.06096,53.8011534 126.67024,53.8011534 Z" id="Path"></path>
            </g>
            <g id="Group" transform="translate(351.000000, 459.000000)">
                <path d="M64.0238335,298.26737 C31.2555531,298.26737 3.35393647,271.759735 0.501064622,237.913978 C-0.973949617,220.446058 4.19301643,203.456711 15.0657262,190.083251 C25.9737656,176.665477 41.2980153,168.476559 58.2209332,167.049702 C93.1884863,164.107364 123.987137,191.545557 126.998992,227.181532 C130.046177,263.29608 104.140688,295.085744 69.2614589,298.045808 C67.5038072,298.19647 65.754988,298.26737 64.0238335,298.26737 Z M63.4762234,175.681744 C61.9835444,175.681744 60.4820329,175.743781 58.9716889,175.867856 C44.4511895,177.099738 31.2997152,184.136536 21.9196846,195.675466 C12.5043242,207.258709 8.02628697,221.99699 9.30698795,237.160668 C11.912552,268.002049 38.3833165,291.780045 68.5372004,289.20993 C98.558598,286.657539 120.842795,259.166171 118.219566,227.917117 C115.728824,198.63553 91.6958072,175.681744 63.4762234,175.681744 Z" id="Shape"></path>
                <path d="M58.5918949,175.894443 C56.3219628,175.894443 54.3876627,174.148537 54.1933494,171.835434 L40.1233034,4.96406677 C39.9201577,2.5268887 41.7219715,0.382172 44.1508872,0.178335289 C46.562138,-0.0255014223 48.7172486,1.78244158 48.9203943,4.21961965 L62.9904403,171.090987 C63.193586,173.528165 61.3917722,175.672881 58.9628565,175.876718 C58.8392026,175.88558 58.7155487,175.894443 58.5918949,175.894443 Z" id="Path"></path>
            </g>
            <g id="Group" transform="translate(460.000000, 370.000000)">
                <path d="M167.999344,127.786455 C162.802192,127.786455 157.587302,127.137781 152.496576,125.86709 C135.973888,121.735123 122.049777,111.400763 113.296211,96.7744882 C104.542646,82.1482138 101.988414,64.9805576 106.121303,48.4349179 C113.22526,19.9376749 138.634546,0.0420319559 167.910656,0.0420319559 C173.107808,0.0420319559 178.322698,0.690706336 183.413424,1.96139725 C217.514194,10.5007956 238.311673,45.2448617 229.788697,79.4024551 C222.68474,107.881926 197.275454,127.786455 167.999344,127.786455 Z M167.901787,8.91909642 C142.705354,8.91909642 120.834743,26.0512088 114.715229,50.576432 C111.158816,64.8294964 113.358293,79.606832 120.896825,92.1982237 C128.444225,104.789615 140.426056,113.684452 154.64284,117.247718 C159.032926,118.349576 163.52057,118.900505 167.990476,118.900505 C193.195778,118.900505 215.066389,101.768392 221.185902,77.2431691 C228.52045,47.8306733 210.61422,17.9205642 181.258291,10.5718832 C176.877074,9.47002534 172.380562,8.91909642 167.901787,8.91909642 Z" id="Shape"></path>
                <path d="M110.4227,53.9442072 C110.059077,53.9442072 109.695454,53.8997774 109.340699,53.8109179 L3.81012523,27.27747 C1.43327055,26.6821113 -0.0123537553,24.2651328 0.590728776,21.892584 C1.17607359,19.5022634 3.59727257,18.0449675 5.9652584,18.666984 L111.495833,45.200432 C113.872687,45.7957906 115.318312,48.2127691 114.715229,50.5853179 C114.218573,52.5935427 112.409325,53.9442072 110.4227,53.9442072 Z" id="Path"></path>
            </g>
        </g>
    </g>
</svg>