<?xml version="1.0" encoding="UTF-8"?>
<svg width="1000px" height="1000px" viewBox="0 0 1000 1000" version="1.1" xmlns="http://www.w3.org/2000/svg" xmlns:xlink="http://www.w3.org/1999/xlink">
    <!-- Generator: Sketch 61.2 (89653) - https://sketch.com -->
    <title>Artboard</title>
    <desc>Created with Sketch.</desc>
    <g id="Artboard" stroke="none" stroke-width="1" fill="none" fill-rule="evenodd">
        <g id="3" transform="translate(162.000000, 193.000000)" fill="#0B5439" fill-rule="nonzero" stroke="#0B5439" stroke-width="5">
            <path d="M471.953117,465 L178.046883,465 C175.261004,465 173,462.738996 173,459.953117 L173,166.046883 C173,163.261004 175.261004,161 178.046883,161 L471.953117,161 C474.738996,161 477,163.261004 477,166.046883 L477,459.953117 C477,462.738996 474.738996,465 471.953117,465 Z M183.093766,454.906234 L466.906234,454.906234 L466.906234,171.093766 L183.093766,171.093766 L183.093766,454.906234 Z" id="Shape"></path>
            <path d="M326.624799,421 C325.151369,421 323.758454,420.353335 322.792271,419.229754 L236.463768,317.687157 C225.626409,306.823182 219,289.920972 219,272.776261 C219,235.981014 248.863124,206.040417 285.5781,206.040417 C300.433172,206.040417 314.805153,211.052072 326.504026,220.226634 C338.219002,211.027822 352.590982,206 367.4219,206 C404.128824,206 434,235.956764 434,272.784345 C434,289.605722 427.623188,306.176517 416.898551,317.331491 C416.809984,317.452741 416.721417,317.573991 416.624799,317.687157 L330.449275,419.229754 C329.491143,420.353335 328.098229,421 326.624799,421 C326.624799,421 326.624799,421 326.624799,421 Z M285.570048,216.14456 C254.410628,216.14456 229.056361,241.550417 229.056361,272.776261 C229.056361,287.301978 234.587762,301.536694 243.847021,310.832506 L326.608696,408.163697 L408.396135,311.794421 C408.597424,311.454921 408.847021,311.131589 409.136876,310.84059 C418.396135,301.544778 423.919485,287.318144 423.919485,272.784345 C423.919485,241.534251 398.573269,216.104143 367.405797,216.104143 C353.597424,216.104143 340.256039,221.245131 329.837359,230.573276 C327.929147,232.286939 325.046699,232.286939 323.138486,230.573276 C312.752013,221.269381 299.410628,216.14456 285.570048,216.14456 Z" id="Shape"></path>
            <path d="M407.876055,274 C405.047638,274 402.752111,271.733478 402.752111,268.940799 C402.752111,264.658691 401.899486,260.506099 400.227031,256.596348 C398.603765,252.808018 396.283643,249.41633 393.340449,246.518419 C390.389057,243.596225 386.953965,241.305418 383.133552,239.718853 C380.526489,238.63416 379.30494,235.671492 380.403514,233.09737 C381.502088,230.523249 384.494471,229.30904 387.109733,230.401828 C392.168091,232.506456 396.693559,235.517692 400.587757,239.37078 C404.465558,243.183394 407.51533,247.659775 409.663287,252.654218 C411.876831,257.826746 413,263.306872 413,268.948894 C413,271.733478 410.704473,274 407.876055,274 Z" id="Path"></path>
            <path d="M614.749134,615 C597.87803,615 581.968449,609.931267 570.753367,601.026735 L553.050019,601.026735 C550.262409,601.026735 548,598.770383 548,595.990235 L548,548.622962 C548,545.842814 550.262409,543.586462 553.050019,543.586462 L571.222008,543.586462 C582.388611,534.931741 598.136591,530 614.757214,530 C647.416699,530 674,549.066174 674,572.5 C674,595.933826 647.416699,615 614.749134,615 Z M558.100038,590.953735 L572.571374,590.953735 C573.775298,590.953735 574.946903,591.388889 575.859946,592.170554 C585.321662,600.277304 599.494036,604.927 614.749134,604.927 C641.849558,604.927 663.891881,590.381589 663.891881,572.5 C663.891881,554.618411 641.849558,540.073 614.749134,540.073 C599.720277,540.073 585.685264,544.60182 576.239708,552.482935 C575.326664,553.240425 574.1793,553.659462 572.999615,553.659462 L558.100038,553.659462 L558.100038,590.953735 Z" id="Shape"></path>
            <path d="M573,601 C570.24,601 568,598.760943 568,596.002104 L568,548.997896 C568,546.239057 570.24,544 573,544 C575.76,544 578,546.239057 578,548.997896 L578,596.002104 C578,598.760943 575.76,601 573,601 Z" id="Path"></path>
            <path d="M640.974986,569 C639.987749,569 638.992487,568.70954 638.125645,568.104414 C632.555384,564.223541 625.058809,562.08543 617.016445,562.08543 C614.247367,562.08543 612,559.826293 612,557.042715 C612,554.259136 614.247367,552 617.016445,552 C627.08144,552 636.608672,554.77551 643.840379,559.818225 C646.119851,561.39962 646.681693,564.546274 645.108536,566.837684 C644.129326,568.241576 642.572222,569 640.974986,569 Z" id="Path"></path>
            <path d="M54.5120176,110 C39.954649,110 26.2625505,104.276896 15.9674384,93.8896238 C5.67232635,83.5023516 0,69.6876837 0,55 C0,40.3123163 5.67232635,26.4976484 15.9674384,16.1103762 C26.2625505,5.72310406 39.9466373,0 54.5120176,0 C69.0693863,0 82.7614847,5.72310406 93.0646086,16.1103762 C114.311797,37.547766 114.311797,72.4441505 93.0646086,93.8896238 C82.7614847,104.276896 69.0693863,110 54.5120176,110 Z M54.5120176,10.1043504 C42.6225652,10.1043504 31.4541713,14.776602 23.0498346,23.2561728 C14.645498,31.7357437 10.0147005,43.0121987 10.0147005,55 C10.0147005,66.9878013 14.645498,78.2642563 23.0498346,86.7438272 C31.4541713,95.223398 42.6225652,99.8956496 54.5120176,99.8956496 C66.40147,99.8956496 77.5778758,95.223398 85.9822124,86.7438272 C103.327674,69.2350088 103.327674,40.7569077 85.9822124,23.2561728 C77.5778758,14.776602 66.40147,10.1043504 54.5120176,10.1043504 Z" id="Shape"></path>
            <path d="M443.942247,566 L443.942247,566 L337.057753,565.97591 C334.265874,565.97591 332,563.727516 332,560.957173 L332,466.018737 C332,463.248394 334.265874,461 337.057753,461 C339.849633,461 342.115507,463.248394 342.115507,466.018737 L342.115507,555.938437 L443.942247,555.962527 C446.734126,555.962527 449,558.210921 449,560.981263 C449,563.751606 446.734126,566 443.942247,566 Z" id="Path"></path>
            <path d="M547.939618,566 L547.939618,566 L499.060382,566 C496.267051,566 494,563.76 494,561 C494,558.24 496.267051,556 499.060382,556 L499.060382,556 L547.939618,556 C550.732949,556 553,558.24 553,561 C553,563.76 550.732949,566 547.939618,566 Z" id="Path"></path>
            <path d="M546.961015,590 L546.961015,590 L329.946052,589.943456 C318.392668,589.943456 309,580.524922 309,568.957733 L309,466.048528 C309,463.261741 311.257465,461 314.038985,461 C316.820504,461 319.077969,463.261741 319.077969,466.048528 L319.077969,568.957733 C319.077969,574.959424 323.955707,579.846399 329.946052,579.846399 L546.961015,579.894865 C549.742535,579.894865 552,582.156606 552,584.943394 C552,587.730182 549.742535,590 546.961015,590 Z" id="Path"></path>
            <path d="M472.04,566 C470.68,566 469.4,565.516129 468.44,564.548387 C467.56,563.580645 467,562.370968 467,561 C467,559.629032 467.56,558.33871 468.44,557.451613 C470.36,555.516129 473.64,555.516129 475.56,557.451613 C476.44,558.33871 477,559.629032 477,561 C477,562.370968 476.52,563.580645 475.56,564.548387 C474.68,565.516129 473.32,566 472.04,566 Z" id="Path"></path>
            <path d="M313.942247,169 C311.150367,169 308.884493,166.751778 308.884493,163.981647 L308.884493,74.0607938 L207.057753,74.0367057 C204.265874,74.0367057 202,71.7884836 202,69.0183528 C202,66.2482221 204.265874,64 207.057753,64 L207.057753,64 L313.942247,64.0240881 C316.734126,64.0240881 319,66.2723102 319,69.0424409 L319,163.973618 C319,166.751778 316.742219,169 313.942247,169 Z" id="Path"></path>
            <path d="M152.939618,74 L152.939618,74 L104.060382,74 C101.267051,74 99,71.76 99,69 C99,66.24 101.267051,64 104.060382,64 L104.060382,64 L152.939618,64 C155.732949,64 158,66.24 158,69 C158,71.76 155.741046,74 152.939618,74 Z" id="Path"></path>
            <path d="M337.961015,170 C335.179496,170 332.922031,167.738118 332.922031,164.951155 L332.922031,62.0355063 C332.922031,56.0334398 328.044293,51.1461582 322.053948,51.1461582 L105.038985,51.0976893 C102.257465,51.0976893 100,48.8358069 100,46.0488446 C100,43.2618824 102.257465,41 105.038985,41 L105.038985,41 L322.053948,41.0484689 C333.607332,41.0484689 343,50.4675935 343,62.0355063 L343,164.951155 C343,167.738118 340.742535,170 337.961015,170 Z" id="Path"></path>
            <path d="M180.04,74 C178.68,74 177.4,73.4366197 176.52,72.4708249 C175.56,71.5855131 175,70.2977867 175,68.9295775 C175,67.6418511 175.56,66.2736419 176.44,65.38833 C178.36,63.5372233 181.72,63.5372233 183.56,65.38833 C184.52,66.3541247 185,67.6418511 185,68.9295775 C185,70.2977867 184.44,71.5855131 183.56,72.4708249 C182.6,73.4366197 181.32,74 180.04,74 Z" id="Path"></path>
        </g>
    </g>
</svg>