<?xml version="1.0" encoding="UTF-8"?>
<svg width="1000px" height="1000px" viewBox="0 0 1000 1000" version="1.1" xmlns="http://www.w3.org/2000/svg" xmlns:xlink="http://www.w3.org/1999/xlink">
    <!-- Generator: Sketch 61.2 (89653) - https://sketch.com -->
    <title>Artboard</title>
    <desc>Created with Sketch.</desc>
    <g id="Artboard" stroke="none" stroke-width="1" fill="none" fill-rule="evenodd">
        <g id="Group" transform="translate(266.000000, 193.000000)" fill="#0B5439" fill-rule="nonzero">
            <path d="M467.485825,615.69685 L0.514175258,615.69685 L0.514175258,368.930646 L467.485825,368.930646 L467.485825,615.69685 Z M9.5992268,606.602362 L458.400773,606.602362 L458.400773,378.025134 L9.5992268,378.025134 L9.5992268,606.602362 Z" id="Shape"></path>
            <path d="M120.240619,323.836535 C119.244897,323.836535 118.256443,323.516409 117.413351,322.854331 C115.443711,321.297354 115.123918,318.430772 116.679278,316.466362 C119.019588,313.497921 122.973402,311.373449 126.985361,310.907811 L196.693144,301.90063 C199.135206,301.53685 201.453711,303.333921 201.780773,305.829449 C202.100567,308.317701 200.341701,310.602236 197.856031,310.922362 L128.082835,319.936819 C126.396649,320.13326 124.65232,321.028157 123.787423,322.119496 C122.900722,323.247213 121.57067,323.836535 120.240619,323.836535 Z" id="Path"></path>
            <path d="M347.759381,323.836535 C346.422062,323.836535 345.099278,323.247213 344.205309,322.11222 C343.340412,321.020882 341.603351,320.125984 339.975309,319.944094 L270.151237,310.915087 C267.658299,310.594961 265.906701,308.317701 266.226495,305.822173 C266.553557,303.326646 268.84299,301.53685 271.314124,301.893354 L341.080052,310.907811 C345.026598,311.358898 348.973144,313.490646 351.320722,316.459087 C352.883351,318.423496 352.556289,321.290079 350.586649,322.847055 C349.750825,323.516409 348.755103,323.836535 347.759381,323.836535 Z" id="Path"></path>
            <path d="M234.225309,346.245354 C233.149639,346.245354 232.066701,345.867024 231.209072,345.095811 L194.258351,312.239244 C193.284433,311.373449 192.732062,310.136598 192.732062,308.841543 L192.732062,298.299213 C192.732062,295.789134 194.767113,293.751969 197.274588,293.751969 C199.782062,293.751969 201.817113,295.789134 201.817113,298.299213 L201.817113,306.797102 L234.174433,335.572063 L265.412474,306.848031 L265.412474,298.299213 C265.412474,295.789134 267.447526,293.751969 269.955,293.751969 C272.462474,293.751969 274.497526,295.789134 274.497526,298.299213 L274.497526,308.841543 C274.497526,310.114772 273.966959,311.329795 273.029381,312.188315 L237.299691,345.044882 C236.434794,345.845197 235.330052,346.245354 234.225309,346.245354 Z" id="Path"></path>
            <path d="M209.506701,237.03874 C207.537062,237.03874 205.720052,236.311181 204.346392,234.928819 C202.965464,233.546457 202.23866,231.654803 202.23866,229.76315 C202.23866,227.871496 202.965464,225.979843 204.346392,224.59748 C207.035567,221.905512 211.905155,221.905512 214.59433,224.670236 C215.96799,225.979843 216.774742,227.871496 216.774742,229.76315 C216.774742,231.654803 215.975258,233.546457 214.66701,234.928819 C213.278814,236.311181 211.396392,237.03874 209.506701,237.03874 Z" id="Path"></path>
            <path d="M262.854124,237.03874 C260.891753,237.03874 259.002062,236.238425 257.693814,234.928819 C256.312887,233.546457 255.586082,231.727559 255.586082,229.76315 C255.586082,227.79874 256.312887,225.979843 257.693814,224.59748 C260.310309,221.905512 265.252577,221.905512 267.941753,224.670236 C269.315412,225.979843 270.049485,227.79874 270.049485,229.76315 C270.049485,231.727559 269.315412,233.546457 267.941753,234.928819 C266.633505,236.238425 264.736546,237.03874 262.854124,237.03874 Z" id="Path"></path>
            <path d="M325.192113,214.92822 C322.684639,214.92822 320.649588,212.891055 320.649588,210.380976 L320.649588,160.244882 C320.649588,153.151181 314.464485,146.726835 308.679124,141.262866 C305.219536,138.025228 294.339278,134.365606 287.957938,136.148126 C285.465,136.846583 284.818144,138.127087 284.534691,139.167496 C283.931443,141.350173 281.838247,142.776189 279.541546,142.456063 C277.288454,142.150488 275.609536,140.222457 275.609536,137.952472 C275.609536,132.459402 266.342784,127.752094 258.754948,127.752094 L180.092938,133.638047 C170.833454,133.652598 162.475206,136.50463 157.416649,141.270142 C150.766392,147.519874 147.394021,153.907843 147.394021,160.252157 L147.394021,210.388252 C147.394021,212.898331 145.358969,214.935496 142.851495,214.935496 C140.344021,214.935496 138.308969,212.898331 138.308969,210.388252 L138.308969,160.252157 C138.308969,151.295906 142.64799,142.681606 151.187938,134.642079 C157.998093,128.232283 168.405928,124.55811 179.75134,124.55811 L258.413351,118.672157 C258.420619,118.672157 258.435155,118.672157 258.442423,118.672157 C267.389381,118.672157 276.874175,122.666457 281.612938,129.054425 C282.768557,128.355969 284.069536,127.803024 285.494072,127.395591 C294.92799,124.769102 309.013454,129.127181 314.893299,134.634803 C320.08268,139.531276 329.727391,148.633039 329.727391,160.244882 L329.727391,210.380976 C329.734639,212.891055 327.699588,214.92822 325.192113,214.92822 Z" id="Path"></path>
            <path d="M236.107732,275.053701 C229.02866,275.053701 223.097938,272.696409 218.45366,268.047307 C216.680258,266.272063 216.687526,263.390929 218.460928,261.615685 C220.23433,259.847717 223.112474,259.840441 224.885876,261.622961 C226.746495,263.485512 229.922629,265.959213 236.107732,265.959213 C242.300103,265.959213 245.468969,263.485512 247.315052,261.622961 C249.088454,259.847717 251.981134,259.833165 253.74,261.608409 C255.52067,263.376378 255.527938,266.257512 253.761804,268.040031 C249.132062,272.689134 243.194072,275.053701 236.107732,275.053701 Z" id="Path"></path>
            <path d="M273.589021,300.05263 L196.395155,300.05263 C187.317371,300.05263 176.785979,295.607244 170.172062,288.986457 C162.795,281.601732 158.390567,272.056157 158.390567,263.463685 L158.390567,185.207433 C158.390567,183.788693 159.059227,182.45726 160.178505,181.59874 C161.297784,180.732945 162.765928,180.441921 164.13232,180.820252 C164.205,180.842079 171.233196,182.711906 183.116443,182.711906 C197.158299,182.711906 211.803402,180.223654 226.644742,175.319906 L265.521495,162.471213 C267.454794,161.830961 269.598866,162.565795 270.725412,164.268283 C270.885309,164.508378 287.383763,188.99074 304.783454,187.950331 C305.989948,187.841197 307.290928,188.292283 308.206701,189.150803 C309.13701,190.009323 309.660309,191.217071 309.660309,192.483024 L309.660309,263.463685 C309.660309,272.536346 305.524794,282.31474 298.86,288.986457 C291.919021,295.912819 282.477835,300.05263 273.589021,300.05263 Z M167.475619,190.715055 L167.475619,263.463685 C167.475619,270.804756 172.185309,278.145827 176.604278,282.56211 C181.546546,287.509512 189.686753,290.958142 196.402423,290.958142 L273.596289,290.958142 C280.035773,290.958142 287.252938,287.742331 292.435052,282.554835 C297.45,277.527402 300.575258,270.215433 300.575258,263.463685 L300.575258,196.921134 C284.164021,195.124063 270.296598,178.863118 265.216237,172.147748 L229.508351,183.948756 C213.736701,189.158079 198.139485,191.806394 183.123711,191.806394 C176.429845,191.806394 171.131443,191.260724 167.475619,190.715055 Z" id="Shape"></path>
            <path d="M152.452577,245.594835 C143.265773,245.594835 135.794227,238.115528 135.794227,228.919181 C135.794227,219.722835 143.265773,212.243528 152.452577,212.243528 C154.960052,212.243528 156.995103,214.280693 156.995103,216.790772 C156.995103,219.30085 154.960052,221.338016 152.452577,221.338016 C148.280722,221.338016 144.879278,224.735717 144.879278,228.919181 C144.879278,233.102646 148.280722,236.500346 152.452577,236.500346 C154.960052,236.500346 156.995103,238.537512 156.995103,241.047591 C156.995103,243.557669 154.960052,245.594835 152.452577,245.594835 Z" id="Path"></path>
            <path d="M314.77701,245.594835 C312.269536,245.594835 310.234485,243.557669 310.234485,241.047591 C310.234485,238.537512 312.269536,236.500346 314.77701,236.500346 C318.948866,236.500346 322.350309,233.102646 322.350309,228.919181 C322.350309,224.742992 318.948866,221.338016 314.77701,221.338016 C312.269536,221.338016 310.234485,219.30085 310.234485,216.790772 C310.234485,214.280693 312.269536,212.243528 314.77701,212.243528 C323.963814,212.243528 331.435361,219.722835 331.435361,228.919181 C331.435361,238.115528 323.963814,245.594835 314.77701,245.594835 Z" id="Path"></path>
            <path d="M220.881186,214.92822 L198.066804,214.92822 C195.55933,214.92822 193.524278,212.891055 193.524278,210.380976 C193.524278,207.870898 195.55933,205.833732 198.066804,205.833732 L220.881186,205.833732 C223.38866,205.833732 225.423711,207.870898 225.423711,210.380976 C225.423711,212.891055 223.38866,214.92822 220.881186,214.92822 Z" id="Path"></path>
            <path d="M274.22134,214.92822 L251.406959,214.92822 C248.899485,214.92822 246.864433,212.891055 246.864433,210.380976 C246.864433,207.870898 248.899485,205.833732 251.406959,205.833732 L274.22134,205.833732 C276.728814,205.833732 278.763866,207.870898 278.763866,210.380976 C278.763866,212.891055 276.728814,214.92822 274.22134,214.92822 Z" id="Path"></path>
            <path d="M101.881546,376.468157 C101.38732,376.468157 100.878557,376.388126 100.38433,376.213512 C98.0149485,375.384094 96.7648454,372.793984 97.5934021,370.422142 L115.945206,317.746866 C116.773763,315.375024 119.353918,314.130898 121.730567,314.953039 C124.099948,315.782457 125.350052,318.372567 124.521495,320.744409 L106.169691,373.419685 C105.515567,375.296787 103.763969,376.468157 101.881546,376.468157 Z" id="Path"></path>
            <path d="M366.118454,376.511811 C364.236031,376.511811 362.484433,375.340441 361.830309,373.463339 L343.478505,320.788063 C342.649948,318.41622 343.900052,315.818835 346.269433,314.996693 C348.638814,314.189102 351.233505,315.425953 352.054794,317.79052 L370.406598,370.465795 C371.235155,372.837638 369.985052,375.435024 367.61567,376.257165 C367.114175,376.424504 366.61268,376.511811 366.118454,376.511811 Z" id="Path"></path>
            <rect id="Rectangle" x="229.457474" y="341.69811" width="9.08505155" height="31.7870551"></rect>
            <path d="M418.128557,376.468157 C415.621082,376.468157 413.586031,374.430992 413.586031,371.920913 L413.586031,9.6983622 L54.4212371,9.6983622 L54.4212371,371.920913 C54.4212371,374.430992 52.3861856,376.468157 49.8787113,376.468157 C47.3712371,376.468157 45.3361856,374.430992 45.3361856,371.920913 L45.3361856,5.15111811 C45.3361856,2.64103937 47.3712371,0.603874016 49.8787113,0.603874016 L418.128557,0.603874016 C420.636031,0.603874016 422.671082,2.64103937 422.671082,5.15111811 L422.671082,371.920913 C422.671082,374.430992 420.636031,376.468157 418.128557,376.468157 Z" id="Path"></path>
            <path d="M418.128557,282.656693 L301.258454,282.656693 C298.750979,282.656693 296.715928,280.619528 296.715928,278.109449 C296.715928,275.59937 298.750979,273.562205 301.258454,273.562205 L418.128557,273.562205 C420.636031,273.562205 422.671082,275.59937 422.671082,278.109449 C422.671082,280.619528 420.636031,282.656693 418.128557,282.656693 Z" id="Path"></path>
            <path d="M167.43201,282.656693 L49.8787113,282.656693 C47.3712371,282.656693 45.3361856,280.619528 45.3361856,278.109449 C45.3361856,275.59937 47.3712371,273.562205 49.8787113,273.562205 L167.43201,273.562205 C169.939485,273.562205 171.974536,275.59937 171.974536,278.109449 C171.974536,280.619528 169.939485,282.656693 167.43201,282.656693 Z" id="Path"></path>
            <path d="M418.128557,191.668157 L325.192113,191.668157 C322.684639,191.668157 320.649588,189.630992 320.649588,187.120913 C320.649588,184.610835 322.684639,182.573669 325.192113,182.573669 L418.128557,182.573669 C420.636031,182.573669 422.671082,184.610835 422.671082,187.120913 C422.671082,189.630992 420.636031,191.668157 418.128557,191.668157 Z" id="Path"></path>
            <path d="M142.858763,191.668157 L49.8787113,191.668157 C47.3712371,191.668157 45.3361856,189.630992 45.3361856,187.120913 C45.3361856,184.610835 47.3712371,182.573669 49.8787113,182.573669 L142.858763,182.573669 C145.366237,182.573669 147.401289,184.610835 147.401289,187.120913 C147.401289,189.630992 145.366237,191.668157 142.858763,191.668157 Z" id="Path"></path>
            <path d="M418.128557,100.679622 L49.8787113,100.679622 C47.3712371,100.679622 45.3361856,98.6424567 45.3361856,96.132378 C45.3361856,93.6222992 47.3712371,91.5851339 49.8787113,91.5851339 L418.128557,91.5851339 C420.636031,91.5851339 422.671082,93.6222992 422.671082,96.132378 C422.671082,98.6424567 420.636031,100.679622 418.128557,100.679622 Z" id="Path"></path>
            <g transform="translate(93.484536, 34.952756)" id="Path">
                <path d="M50.1301031,65.7268661 C47.6226289,65.7268661 45.5875773,63.6897008 45.5875773,61.179622 L45.5875773,5.06299213 C45.5875773,2.55291339 47.6226289,0.515748031 50.1301031,0.515748031 C52.6375773,0.515748031 54.6726289,2.55291339 54.6726289,5.06299213 L54.6726289,61.179622 C54.6726289,63.6897008 52.6375773,65.7268661 50.1301031,65.7268661 Z"></path>
                <path d="M12.8523196,65.7268661 C10.3448454,65.7268661 8.30979381,63.6897008 8.30979381,61.179622 L8.30979381,5.06299213 C8.30979381,2.55291339 10.3448454,0.515748031 12.8523196,0.515748031 C15.3597938,0.515748031 17.3948454,2.55291339 17.3948454,5.06299213 L17.3948454,61.179622 C17.3948454,63.6897008 15.3525258,65.7268661 12.8523196,65.7268661 Z"></path>
                <path d="M57.7906186,9.61023622 L5.19907216,9.61023622 C2.69159794,9.61023622 0.656546392,7.57307087 0.656546392,5.06299213 C0.656546392,2.55291339 2.69159794,0.515748031 5.19907216,0.515748031 L57.7906186,0.515748031 C60.2980928,0.515748031 62.3331443,2.55291339 62.3331443,5.06299213 C62.3331443,7.57307087 60.2980928,9.61023622 57.7906186,9.61023622 Z"></path>
            </g>
            <g transform="translate(166.164948, 34.952756)" id="Path">
                <path d="M50.1301031,65.7268661 C47.6226289,65.7268661 45.5875773,63.6897008 45.5875773,61.179622 L45.5875773,5.06299213 C45.5875773,2.55291339 47.6226289,0.515748031 50.1301031,0.515748031 C52.6375773,0.515748031 54.6726289,2.55291339 54.6726289,5.06299213 L54.6726289,61.179622 C54.6726289,63.6897008 52.6375773,65.7268661 50.1301031,65.7268661 Z"></path>
                <path d="M12.8523196,65.7268661 C10.3448454,65.7268661 8.30979381,63.6897008 8.30979381,61.179622 L8.30979381,5.06299213 C8.30979381,2.55291339 10.3448454,0.515748031 12.8523196,0.515748031 C15.3597938,0.515748031 17.3948454,2.55291339 17.3948454,5.06299213 L17.3948454,61.179622 C17.3948454,63.6897008 15.3525258,65.7268661 12.8523196,65.7268661 Z"></path>
                <path d="M57.7906186,9.61023622 L5.19907216,9.61023622 C2.69159794,9.61023622 0.656546392,7.57307087 0.656546392,5.06299213 C0.656546392,2.55291339 2.69159794,0.515748031 5.19907216,0.515748031 L57.7906186,0.515748031 C60.2980928,0.515748031 62.3331443,2.55291339 62.3331443,5.06299213 C62.3331443,7.57307087 60.2980928,9.61023622 57.7906186,9.61023622 Z"></path>
            </g>
            <g transform="translate(311.525773, 34.952756)" id="Path">
                <path d="M50.1301031,65.7268661 C47.6226289,65.7268661 45.5875773,63.6897008 45.5875773,61.179622 L45.5875773,5.06299213 C45.5875773,2.55291339 47.6226289,0.515748031 50.1301031,0.515748031 C52.6375773,0.515748031 54.6726289,2.55291339 54.6726289,5.06299213 L54.6726289,61.179622 C54.6726289,63.6897008 52.6375773,65.7268661 50.1301031,65.7268661 Z"></path>
                <path d="M12.8523196,65.7268661 C10.3448454,65.7268661 8.30979381,63.6897008 8.30979381,61.179622 L8.30979381,5.06299213 C8.30979381,2.55291339 10.3448454,0.515748031 12.8523196,0.515748031 C15.3597938,0.515748031 17.3948454,2.55291339 17.3948454,5.06299213 L17.3948454,61.179622 C17.3948454,63.6897008 15.3525258,65.7268661 12.8523196,65.7268661 Z"></path>
                <path d="M57.7906186,9.61023622 L5.19907216,9.61023622 C2.69159794,9.61023622 0.656546392,7.57307087 0.656546392,5.06299213 C0.656546392,2.55291339 2.69159794,0.515748031 5.19907216,0.515748031 L57.7906186,0.515748031 C60.2980928,0.515748031 62.3331443,2.55291339 62.3331443,5.06299213 C62.3331443,7.57307087 60.2980928,9.61023622 57.7906186,9.61023622 Z"></path>
            </g>
            <g transform="translate(311.525773, 126.110236)" id="Path">
                <path d="M50.1301031,65.5579213 C47.6226289,65.5579213 45.5875773,63.5207559 45.5875773,61.0106772 L45.5875773,4.89404724 C45.5875773,2.3839685 47.6226289,0.34680315 50.1301031,0.34680315 C52.6375773,0.34680315 54.6726289,2.3839685 54.6726289,4.89404724 L54.6726289,61.0106772 C54.6726289,63.5207559 52.6375773,65.5579213 50.1301031,65.5579213 Z"></path>
                <path d="M12.8523196,33.5525984 C10.3448454,33.5525984 8.30979381,31.5154331 8.30979381,29.0053543 L8.30979381,4.89404724 C8.30979381,2.3839685 10.3448454,0.34680315 12.8523196,0.34680315 C15.3597938,0.34680315 17.3948454,2.3839685 17.3948454,4.89404724 L17.3948454,29.0053543 C17.3948454,31.5227087 15.3525258,33.5525984 12.8523196,33.5525984 Z"></path>
                <path d="M57.7906186,9.44129134 L5.19907216,9.44129134 C2.69159794,9.44129134 0.656546392,7.40412598 0.656546392,4.89404724 C0.656546392,2.3839685 2.69159794,0.34680315 5.19907216,0.34680315 L57.7906186,0.34680315 C60.2980928,0.34680315 62.3331443,2.3839685 62.3331443,4.89404724 C62.3331443,7.40412598 60.2980928,9.44129134 57.7906186,9.44129134 Z"></path>
            </g>
            <g transform="translate(238.845361, 34.952756)" id="Path">
                <path d="M50.1301031,65.7268661 C47.6226289,65.7268661 45.5875773,63.6897008 45.5875773,61.179622 L45.5875773,5.06299213 C45.5875773,2.55291339 47.6226289,0.515748031 50.1301031,0.515748031 C52.6375773,0.515748031 54.6726289,2.55291339 54.6726289,5.06299213 L54.6726289,61.179622 C54.6726289,63.6897008 52.6375773,65.7268661 50.1301031,65.7268661 Z"></path>
                <path d="M12.8523196,65.7268661 C10.3448454,65.7268661 8.30979381,63.6897008 8.30979381,61.179622 L8.30979381,5.06299213 C8.30979381,2.55291339 10.3448454,0.515748031 12.8523196,0.515748031 C15.3597938,0.515748031 17.3948454,2.55291339 17.3948454,5.06299213 L17.3948454,61.179622 C17.3948454,63.6897008 15.3525258,65.7268661 12.8523196,65.7268661 Z"></path>
                <path d="M57.7906186,9.61023622 L5.19907216,9.61023622 C2.69159794,9.61023622 0.656546392,7.57307087 0.656546392,5.06299213 C0.656546392,2.55291339 2.69159794,0.515748031 5.19907216,0.515748031 L57.7906186,0.515748031 C60.2980928,0.515748031 62.3331443,2.55291339 62.3331443,5.06299213 C62.3331443,7.57307087 60.2980928,9.61023622 57.7906186,9.61023622 Z"></path>
            </g>
            <g transform="translate(93.484536, 126.110236)" id="Path">
                <path d="M50.1301031,32.7668346 C47.6226289,32.7668346 45.5875773,30.7296693 45.5875773,28.2195906 L45.5875773,4.89404724 C45.5875773,2.3839685 47.6226289,0.34680315 50.1301031,0.34680315 C52.6375773,0.34680315 54.6726289,2.3839685 54.6726289,4.89404724 L54.6726289,28.2195906 C54.6726289,30.7296693 52.6375773,32.7668346 50.1301031,32.7668346 Z"></path>
                <path d="M12.8523196,65.5579213 C10.3448454,65.5579213 8.30979381,63.5207559 8.30979381,61.0106772 L8.30979381,4.89404724 C8.30979381,2.3839685 10.3448454,0.34680315 12.8523196,0.34680315 C15.3597938,0.34680315 17.3948454,2.3839685 17.3948454,4.89404724 L17.3948454,61.0106772 C17.3948454,63.5207559 15.3525258,65.5579213 12.8523196,65.5579213 Z"></path>
                <path d="M57.7906186,9.44129134 L5.19907216,9.44129134 C2.69159794,9.44129134 0.656546392,7.40412598 0.656546392,4.89404724 C0.656546392,2.3839685 2.69159794,0.34680315 5.19907216,0.34680315 L57.7906186,0.34680315 C60.2980928,0.34680315 62.3331443,2.3839685 62.3331443,4.89404724 C62.3331443,7.40412598 60.2980928,9.44129134 57.7906186,9.44129134 Z"></path>
            </g>
            <path d="M342.293814,584.775591 L125.706186,584.775591 C123.198711,584.775591 121.16366,582.738425 121.16366,580.228346 L121.16366,404.39915 C121.16366,401.889071 123.198711,399.851906 125.706186,399.851906 L342.293814,399.851906 C344.801289,399.851906 346.83634,401.889071 346.83634,404.39915 L346.83634,580.228346 C346.83634,582.738425 344.801289,584.775591 342.293814,584.775591 Z M130.248711,575.681102 L337.758557,575.681102 L337.758557,408.946394 L130.248711,408.946394 L130.248711,575.681102 Z" id="Shape"></path>
        </g>
        <g id="Group" transform="translate(425.000000, 613.000000)" fill="#0B5439" fill-rule="nonzero">
            <path d="M75,133.992143 C34.0354839,133.992143 0.713709677,100.536143 0.713709677,59.4155714 C0.713709677,56.902 2.74596774,54.862 5.25,54.862 L144.75,54.862 C147.254032,54.862 149.28629,56.902 149.28629,59.4155714 C149.28629,100.536143 115.964516,133.992143 75,133.992143 Z M9.93870968,63.9691429 C12.2758065,97.9497143 40.5677419,124.885 75,124.885 C109.432258,124.885 137.724194,97.9497143 140.06129,63.9691429 L9.93870968,63.9691429 Z" id="Shape"></path>
            <path d="M102.41371,63.9691429 C101.528226,63.9691429 100.628226,63.7068571 99.8443548,63.1604286 C97.7830645,61.7324286 97.275,58.8982857 98.6975806,56.8218571 L136.454032,1.96771429 C137.883871,-0.0941428571 140.7,-0.618714286 142.768548,0.809285714 C144.829839,2.23728571 145.337903,5.07142857 143.915323,7.14785714 L106.158871,62.002 C105.273387,63.2842857 103.865323,63.9691429 102.41371,63.9691429 Z" id="Path"></path>
        </g>
        <g id="Group" transform="translate(484.000000, 686.000000)" fill="#073D1A" stroke="#0B5439">
            <path d="M12.353,6.554 L9.227,6.554 L8.269,6.554 L0.051,14.872 L8.17124146e-14,25.965 L8.169,34.182 L9.227,34.182 L12.353,34.182 L12.857,34.182 L17.344,34.131 L19.814,34.131 L17.344,36.703 L16.286,37.813 L17.344,37.813 L30.099,37.813 L26.469,33.879 L28.89,31.56 L27.075,31.511 L28.334,30.2 L26.672,28.435 L23.847,31.309 C23.797,31.309 22.235,31.258 22.235,31.258 L27.629,25.762 L27.629,14.52 L22.789,9.63 L28.89,3.579 L25.209,-7.10542736e-15 L18.755,6.554 L17.344,6.554 L14.571,6.554 L12.857,6.554 L12.353,6.554 Z M9.227,7.31 L12.353,7.31 L12.857,7.31 L14.571,7.31 L17.344,7.31 L19.057,7.31 L25.209,1.008 L27.832,3.579 L21.73,9.63 L26.923,14.872 L26.874,25.46 L20.52,31.962 C21.479,32.013 23.242,32.065 24.15,32.013 L26.62,29.493 L27.328,30.2 L25.36,32.217 L27.075,32.268 L25.411,33.829 L28.436,37.057 L18.05,37.057 L21.579,33.376 L17.344,33.376 L12.857,33.425 L12.353,33.425 L9.227,33.425 L8.472,33.476 L0.757,25.661 L0.757,15.175 L8.572,7.31 L9.227,7.31 Z" id="Fill-40"></path>
            <path d="M9.227,23.2923 L5.95,20.0163 L9.227,16.7873 L12.857,13.1073 L14.571,11.3943 L15.024,10.9393 L14.571,10.9393 L12.857,10.9393 L12.353,10.9393 L10.133,10.9903 L9.227,11.8483 L4.437,16.3343 L4.437,16.9393 L4.488,18.5033 L4.437,18.4523 L4.336,24.6533 L9.227,29.4933 L9.63,29.9473 L12.353,29.9983 L12.857,29.9983 L15.832,30.0473 L14.571,28.7363 L12.857,27.0233 L9.227,23.2923 Z M9.227,24.3513 L12.353,27.5773 L12.857,28.0813 L14.067,29.2413 L12.857,29.2413 L9.933,29.1903 L9.227,28.4853 L5.042,24.3513 L5.144,20.2163 L9.227,24.3513 Z M12.857,12.0493 L12.353,12.5543 L9.227,15.7293 L5.244,19.7123 C5.244,19.7123 5.144,16.7373 5.194,16.6883 L9.227,12.8553 L10.436,11.6953 L12.353,11.6953 L12.857,11.6953 L13.26,11.6953 L12.857,12.0493 Z" id="Fill-42"></path>
            <path d="M11.4961,20.0159 L12.3531,20.9729 L12.8571,21.5269 L14.5711,23.3919 L18.8571,28.0319 L22.8901,24.0989 L22.9411,16.6379 L18.9581,12.4019 L16.2101,15.2119 L12.8571,18.6029 L11.4961,20.0159 Z M12.8571,19.6619 L14.5711,17.9479 L16.2101,16.2709 L17.3441,15.1249 L18.9581,13.4599 L22.1841,16.9399 L22.1841,23.7949 L18.9081,26.9729 L14.5711,22.2829 L12.8571,20.4689 L12.5031,20.0649 L12.8571,19.6619 Z" id="Fill-44"></path>
        </g>
    </g>
</svg>