<?xml version="1.0" encoding="UTF-8"?>
<svg width="800px" height="800px" viewBox="0 0 800 800" version="1.1" xmlns="http://www.w3.org/2000/svg" xmlns:xlink="http://www.w3.org/1999/xlink">
    <!-- Generator: Sketch 61.2 (89653) - https://sketch.com -->
    <title>Artboard</title>
    <desc>Created with Sketch.</desc>
    <g id="Artboard" stroke="none" stroke-width="1" fill="none" fill-rule="evenodd">
        <g id="4" transform="translate(250.000000, 204.000000)">
            <g id="Group" fill="#0B5439" fill-rule="nonzero">
                <path d="M299.190928,394.045984 L0.329072165,394.045984 L0.329072165,236.115613 L299.190928,236.115613 L299.190928,394.045984 Z M6.14350515,388.225512 L293.376495,388.225512 L293.376495,241.936086 L6.14350515,241.936086 L6.14350515,388.225512 Z" id="Shape"></path>
                <path d="M76.9539959,207.255383 C76.316734,207.255383 75.6841237,207.050502 75.1445443,206.626772 C73.8839753,205.630307 73.6793072,203.795694 74.6747381,202.538472 C76.1725361,200.63867 78.7029773,199.279007 81.2706309,198.980999 L125.883612,193.216403 C127.446532,192.983584 128.930375,194.13371 129.139695,195.730847 C129.344363,197.323329 128.218689,198.785431 126.62786,198.990312 L81.9730144,204.759564 C80.8938557,204.885286 79.7774845,205.458021 79.2239505,206.156477 C78.6564619,206.878216 77.8052289,207.255383 76.9539959,207.255383 Z" id="Path"></path>
                <path d="M222.566004,207.255383 C221.71012,207.255383 220.863538,206.878216 220.291398,206.151821 C219.737864,205.453364 218.626144,204.88063 217.584198,204.76422 L172.896792,198.985655 C171.301311,198.780775 170.180289,197.323329 170.384957,195.726191 C170.594276,194.129053 172.059513,192.983584 173.641039,193.211747 L218.291233,198.980999 C220.817023,199.269694 223.342812,200.634013 224.845262,202.533815 C225.845344,203.791037 225.636025,205.62565 224.375456,206.622115 C223.840528,207.050502 223.203266,207.255383 222.566004,207.255383 Z" id="Path"></path>
                <path d="M149.904198,221.597027 C149.215769,221.597027 148.522689,221.354895 147.973806,220.861319 L124.325344,199.833116 C123.702037,199.279007 123.34852,198.487423 123.34852,197.658588 L123.34852,190.911496 C123.34852,189.305046 124.650953,188.00126 126.255736,188.00126 C127.86052,188.00126 129.162953,189.305046 129.162953,190.911496 L129.162953,196.350146 L149.871637,214.76612 L169.863984,196.38274 L169.863984,190.911496 C169.863984,189.305046 171.166416,188.00126 172.7712,188.00126 C174.375984,188.00126 175.678416,189.305046 175.678416,190.911496 L175.678416,197.658588 C175.678416,198.473454 175.338854,199.251069 174.738804,199.800522 L151.871802,220.828724 C151.318268,221.340926 150.611233,221.597027 149.904198,221.597027 Z" id="Path"></path>
                <path d="M134.084289,151.704794 C132.82372,151.704794 131.660833,151.239156 130.781691,150.354444 C129.897897,149.469732 129.432742,148.259074 129.432742,147.048416 C129.432742,145.837757 129.897897,144.627099 130.781691,143.742387 C132.502763,142.019528 135.619299,142.019528 137.340371,143.788951 C138.219513,144.627099 138.735835,145.837757 138.735835,147.048416 C138.735835,148.259074 138.224165,149.469732 137.386887,150.354444 C136.498441,151.239156 135.293691,151.704794 134.084289,151.704794 Z" id="Path"></path>
                <path d="M168.226639,151.704794 C166.970722,151.704794 165.76132,151.192592 164.924041,150.354444 C164.040247,149.469732 163.575093,148.305638 163.575093,147.048416 C163.575093,145.791194 164.040247,144.627099 164.924041,143.742387 C166.598598,142.019528 169.761649,142.019528 171.482722,143.788951 C172.361864,144.627099 172.83167,145.791194 172.83167,147.048416 C172.83167,148.305638 172.361864,149.469732 171.482722,150.354444 C170.645443,151.192592 169.43139,151.704794 168.226639,151.704794 Z" id="Path"></path>
                <path d="M208.122953,137.554061 C206.518169,137.554061 205.215736,136.250275 205.215736,134.643825 L205.215736,102.556724 C205.215736,98.0167559 201.25727,93.9051742 197.554639,90.4082343 C195.340503,88.3361461 188.377138,85.993988 184.29308,87.1348006 C182.6976,87.5818129 182.283612,88.4013354 182.102202,89.0671975 C181.716124,90.4641109 180.376478,91.3767609 178.90659,91.1718803 C177.46461,90.9763124 176.390103,89.7423723 176.390103,88.2895824 C176.390103,84.774017 170.459381,81.7613405 165.603167,81.7613405 L115.25948,85.5283502 C109.33341,85.537663 103.984132,87.3629631 100.746656,90.4128907 C96.4904907,94.4127194 94.3321732,98.5010192 94.3321732,102.561381 L94.3321732,134.648481 C94.3321732,136.254932 93.0297402,137.558717 91.4249567,137.558717 C89.8201732,137.558717 88.5177402,136.254932 88.5177402,134.648481 L88.5177402,102.561381 C88.5177402,96.8293795 91.2947134,91.316228 96.7602804,86.1709304 C101.118779,82.0686614 107.779794,79.7171906 115.040858,79.7171906 L165.384544,75.9501808 C165.389196,75.9501808 165.398499,75.9501808 165.403151,75.9501808 C171.129204,75.9501808 177.199472,78.5065323 180.23228,82.5948321 C180.971876,82.1478198 181.804503,81.7939351 182.716206,81.533178 C188.753913,79.8522255 197.76861,82.6413959 201.531711,86.166274 C204.852915,89.3000164 211.02553,95.1251452 211.02553,102.556724 L211.02553,134.643825 C211.030169,136.250275 209.727736,137.554061 208.122953,137.554061 Z" id="Path"></path>
                <path d="M151.108948,176.034369 C146.578342,176.034369 142.78268,174.525702 139.810342,171.550277 C138.675365,170.41412 138.680016,168.570195 139.814994,167.434038 C140.949971,166.302539 142.791984,166.297882 143.926961,167.438695 C145.117757,168.630728 147.150482,170.213896 151.108948,170.213896 C155.072066,170.213896 157.10014,168.630728 158.281633,167.438695 C159.41661,166.302539 161.267926,166.293226 162.3936,167.429382 C163.533229,168.560882 163.53788,170.404808 162.407555,171.54562 C159.44452,174.521046 155.644206,176.034369 151.108948,176.034369 Z" id="Path"></path>
                <path d="M175.096973,192.033683 L125.692899,192.033683 C119.883118,192.033683 113.143027,189.188636 108.91012,184.951332 C104.1888,180.225109 101.369963,174.115941 101.369963,168.616758 L101.369963,118.532757 C101.369963,117.624763 101.797905,116.772646 102.514243,116.223194 C103.230581,115.669085 104.170194,115.48283 105.044685,115.724961 C105.0912,115.73893 109.589245,116.93562 117.194524,116.93562 C126.181311,116.93562 135.554177,115.343138 145.052635,112.20474 L169.933757,103.981576 C171.171068,103.571815 172.543274,104.042109 173.264264,105.131701 C173.366598,105.285362 183.925608,120.954074 195.06141,120.288212 C195.833567,120.218366 196.666194,120.507061 197.252289,121.056514 C197.847687,121.605967 198.182598,122.378925 198.182598,123.189135 L198.182598,168.616758 C198.182598,174.423262 195.535868,180.681434 191.2704,184.951332 C186.828173,189.384204 180.785814,192.033683 175.096973,192.033683 Z M107.184396,122.057635 L107.184396,168.616758 C107.184396,173.315044 110.198598,178.013329 113.026738,180.839751 C116.18979,184.006088 121.399522,186.213211 125.697551,186.213211 L175.101625,186.213211 C179.222895,186.213211 183.84188,184.155092 187.158433,180.835094 C190.368,177.617537 192.368165,172.937877 192.368165,168.616758 L192.368165,126.029526 C181.864973,124.8794 172.989823,114.472396 169.738392,110.174559 L146.885344,117.727204 C136.791489,121.06117 126.80927,122.756092 117.199175,122.756092 C112.915101,122.756092 109.524124,122.406864 107.184396,122.057635 Z" id="Shape"></path>
                <path d="M97.5696495,157.180694 C91.6900948,157.180694 86.9083052,152.393938 86.9083052,146.508276 C86.9083052,140.622614 91.6900948,135.835858 97.5696495,135.835858 C99.174433,135.835858 100.476866,137.139643 100.476866,138.746094 C100.476866,140.352544 99.174433,141.65633 97.5696495,141.65633 C94.8996619,141.65633 92.7227381,143.830859 92.7227381,146.508276 C92.7227381,149.185693 94.8996619,151.360222 97.5696495,151.360222 C99.174433,151.360222 100.476866,152.664008 100.476866,154.270458 C100.476866,155.876908 99.174433,157.180694 97.5696495,157.180694 Z" id="Path"></path>
                <path d="M201.457287,157.180694 C199.852503,157.180694 198.55007,155.876908 198.55007,154.270458 C198.55007,152.664008 199.852503,151.360222 201.457287,151.360222 C204.127274,151.360222 206.304198,149.185693 206.304198,146.508276 C206.304198,143.835515 204.127274,141.65633 201.457287,141.65633 C199.852503,141.65633 198.55007,140.352544 198.55007,138.746094 C198.55007,137.139643 199.852503,135.835858 201.457287,135.835858 C207.336841,135.835858 212.118631,140.622614 212.118631,146.508276 C212.118631,152.393938 207.336841,157.180694 201.457287,157.180694 Z" id="Path"></path>
                <path d="M141.363959,137.554061 L126.762755,137.554061 C125.157971,137.554061 123.855538,136.250275 123.855538,134.643825 C123.855538,133.037374 125.157971,131.733589 126.762755,131.733589 L141.363959,131.733589 C142.968742,131.733589 144.271175,133.037374 144.271175,134.643825 C144.271175,136.250275 142.968742,137.554061 141.363959,137.554061 Z" id="Path"></path>
                <path d="M175.501658,137.554061 L160.900454,137.554061 C159.29567,137.554061 157.993237,136.250275 157.993237,134.643825 C157.993237,133.037374 159.29567,131.733589 160.900454,131.733589 L175.501658,131.733589 C177.106441,131.733589 178.408874,133.037374 178.408874,134.643825 C178.408874,136.250275 177.106441,137.554061 175.501658,137.554061 Z" id="Path"></path>
                <path d="M65.2041897,240.939621 C64.8878845,240.939621 64.5622763,240.888401 64.2459711,240.776648 C62.729567,240.24582 61.929501,238.58815 62.4597773,237.070171 L74.204932,203.357994 C74.7352082,201.840015 76.3865072,201.043774 77.9075629,201.569945 C79.423967,202.100772 80.224033,203.758443 79.6937567,205.276422 L67.9486021,238.988598 C67.5299629,240.189944 66.4089402,240.939621 65.2041897,240.939621 Z" id="Path"></path>
                <path d="M234.31581,240.967559 C233.11106,240.967559 231.990037,240.217882 231.571398,239.016537 L219.826243,205.30436 C219.295967,203.786381 220.096033,202.124054 221.612437,201.597883 C223.128841,201.081026 224.789443,201.87261 225.315068,203.385933 L237.060223,237.098109 C237.590499,238.616088 236.790433,240.278415 235.274029,240.804586 C234.953072,240.911683 234.632115,240.967559 234.31581,240.967559 Z" id="Path"></path>
                <rect id="Rectangle" x="146.852784" y="218.686791" width="5.81443299" height="20.3437153"></rect>
                <path d="M267.602276,240.939621 C265.997493,240.939621 264.69506,239.635835 264.69506,238.029385 L264.69506,6.20695181 L34.8295918,6.20695181 L34.8295918,238.029385 C34.8295918,239.635835 33.5271588,240.939621 31.9223753,240.939621 C30.3175918,240.939621 29.0151588,239.635835 29.0151588,238.029385 L29.0151588,3.29671559 C29.0151588,1.6902652 30.3175918,0.38647937 31.9223753,0.38647937 L267.602276,0.38647937 C269.20706,0.38647937 270.509493,1.6902652 270.509493,3.29671559 L270.509493,238.029385 C270.509493,239.635835 269.20706,240.939621 267.602276,240.939621 Z" id="Path"></path>
                <path d="M267.602276,180.900283 L192.80541,180.900283 C191.200627,180.900283 189.898194,179.596498 189.898194,177.990047 C189.898194,176.383597 191.200627,175.079811 192.80541,175.079811 L267.602276,175.079811 C269.20706,175.079811 270.509493,176.383597 270.509493,177.990047 C270.509493,179.596498 269.20706,180.900283 267.602276,180.900283 Z" id="Path"></path>
                <path d="M107.156487,180.900283 L31.9223753,180.900283 C30.3175918,180.900283 29.0151588,179.596498 29.0151588,177.990047 C29.0151588,176.383597 30.3175918,175.079811 31.9223753,175.079811 L107.156487,175.079811 C108.76127,175.079811 110.063703,176.383597 110.063703,177.990047 C110.063703,179.596498 108.76127,180.900283 107.156487,180.900283 Z" id="Path"></path>
                <path d="M267.602276,122.667621 L208.122953,122.667621 C206.518169,122.667621 205.215736,121.363835 205.215736,119.757385 C205.215736,118.150934 206.518169,116.847148 208.122953,116.847148 L267.602276,116.847148 C269.20706,116.847148 270.509493,118.150934 270.509493,119.757385 C270.509493,121.363835 269.20706,122.667621 267.602276,122.667621 Z" id="Path"></path>
                <path d="M91.4296082,122.667621 L31.9223753,122.667621 C30.3175918,122.667621 29.0151588,121.363835 29.0151588,119.757385 C29.0151588,118.150934 30.3175918,116.847148 31.9223753,116.847148 L91.4296082,116.847148 C93.0343918,116.847148 94.3368247,118.150934 94.3368247,119.757385 C94.3368247,121.363835 93.0343918,122.667621 91.4296082,122.667621 Z" id="Path"></path>
                <path d="M267.602276,64.4349581 L31.9223753,64.4349581 C30.3175918,64.4349581 29.0151588,63.1311723 29.0151588,61.5247219 C29.0151588,59.9182715 30.3175918,58.6144857 31.9223753,58.6144857 L267.602276,58.6144857 C269.20706,58.6144857 270.509493,59.9182715 270.509493,61.5247219 C270.509493,63.1311723 269.20706,64.4349581 267.602276,64.4349581 Z" id="Path"></path>
                <g transform="translate(59.830103, 22.369764)" id="Path">
                    <path d="M32.083266,42.0651943 C30.4784825,42.0651943 29.1760495,40.7614085 29.1760495,39.1549581 L29.1760495,3.24031496 C29.1760495,1.63386457 30.4784825,0.33007874 32.083266,0.33007874 C33.6880495,0.33007874 34.9904825,1.63386457 34.9904825,3.24031496 L34.9904825,39.1549581 C34.9904825,40.7614085 33.6880495,42.0651943 32.083266,42.0651943 Z"></path>
                    <path d="M8.22548454,42.0651943 C6.62070103,42.0651943 5.31826804,40.7614085 5.31826804,39.1549581 L5.31826804,3.24031496 C5.31826804,1.63386457 6.62070103,0.33007874 8.22548454,0.33007874 C9.83026804,0.33007874 11.132701,1.63386457 11.132701,3.24031496 L11.132701,39.1549581 C11.132701,40.7614085 9.82561649,42.0651943 8.22548454,42.0651943 Z"></path>
                    <path d="M36.9859959,6.15055118 L3.32740619,6.15055118 C1.72262268,6.15055118 0.420189691,4.84676535 0.420189691,3.24031496 C0.420189691,1.63386457 1.72262268,0.33007874 3.32740619,0.33007874 L36.9859959,0.33007874 C38.5907794,0.33007874 39.8932124,1.63386457 39.8932124,3.24031496 C39.8932124,4.84676535 38.5907794,6.15055118 36.9859959,6.15055118 Z"></path>
                </g>
                <g transform="translate(106.345567, 22.369764)" id="Path">
                    <path d="M32.083266,42.0651943 C30.4784825,42.0651943 29.1760495,40.7614085 29.1760495,39.1549581 L29.1760495,3.24031496 C29.1760495,1.63386457 30.4784825,0.33007874 32.083266,0.33007874 C33.6880495,0.33007874 34.9904825,1.63386457 34.9904825,3.24031496 L34.9904825,39.1549581 C34.9904825,40.7614085 33.6880495,42.0651943 32.083266,42.0651943 Z"></path>
                    <path d="M8.22548454,42.0651943 C6.62070103,42.0651943 5.31826804,40.7614085 5.31826804,39.1549581 L5.31826804,3.24031496 C5.31826804,1.63386457 6.62070103,0.33007874 8.22548454,0.33007874 C9.83026804,0.33007874 11.132701,1.63386457 11.132701,3.24031496 L11.132701,39.1549581 C11.132701,40.7614085 9.82561649,42.0651943 8.22548454,42.0651943 Z"></path>
                    <path d="M36.9859959,6.15055118 L3.32740619,6.15055118 C1.72262268,6.15055118 0.420189691,4.84676535 0.420189691,3.24031496 C0.420189691,1.63386457 1.72262268,0.33007874 3.32740619,0.33007874 L36.9859959,0.33007874 C38.5907794,0.33007874 39.8932124,1.63386457 39.8932124,3.24031496 C39.8932124,4.84676535 38.5907794,6.15055118 36.9859959,6.15055118 Z"></path>
                </g>
                <g transform="translate(199.376495, 22.369764)" id="Path">
                    <path d="M32.083266,42.0651943 C30.4784825,42.0651943 29.1760495,40.7614085 29.1760495,39.1549581 L29.1760495,3.24031496 C29.1760495,1.63386457 30.4784825,0.33007874 32.083266,0.33007874 C33.6880495,0.33007874 34.9904825,1.63386457 34.9904825,3.24031496 L34.9904825,39.1549581 C34.9904825,40.7614085 33.6880495,42.0651943 32.083266,42.0651943 Z"></path>
                    <path d="M8.22548454,42.0651943 C6.62070103,42.0651943 5.31826804,40.7614085 5.31826804,39.1549581 L5.31826804,3.24031496 C5.31826804,1.63386457 6.62070103,0.33007874 8.22548454,0.33007874 C9.83026804,0.33007874 11.132701,1.63386457 11.132701,3.24031496 L11.132701,39.1549581 C11.132701,40.7614085 9.82561649,42.0651943 8.22548454,42.0651943 Z"></path>
                    <path d="M36.9859959,6.15055118 L3.32740619,6.15055118 C1.72262268,6.15055118 0.420189691,4.84676535 0.420189691,3.24031496 C0.420189691,1.63386457 1.72262268,0.33007874 3.32740619,0.33007874 L36.9859959,0.33007874 C38.5907794,0.33007874 39.8932124,1.63386457 39.8932124,3.24031496 C39.8932124,4.84676535 38.5907794,6.15055118 36.9859959,6.15055118 Z"></path>
                </g>
                <g transform="translate(199.376495, 80.710551)" id="Path">
                    <path d="M32.083266,41.9570696 C30.4784825,41.9570696 29.1760495,40.6532838 29.1760495,39.0468334 L29.1760495,3.13219024 C29.1760495,1.52573984 30.4784825,0.221954016 32.083266,0.221954016 C33.6880495,0.221954016 34.9904825,1.52573984 34.9904825,3.13219024 L34.9904825,39.0468334 C34.9904825,40.6532838 33.6880495,41.9570696 32.083266,41.9570696 Z"></path>
                    <path d="M8.22548454,21.473663 C6.62070103,21.473663 5.31826804,20.1698772 5.31826804,18.5634268 L5.31826804,3.13219024 C5.31826804,1.52573984 6.62070103,0.221954016 8.22548454,0.221954016 C9.83026804,0.221954016 11.132701,1.52573984 11.132701,3.13219024 L11.132701,18.5634268 C11.132701,20.1745335 9.82561649,21.473663 8.22548454,21.473663 Z"></path>
                    <path d="M36.9859959,6.04242646 L3.32740619,6.04242646 C1.72262268,6.04242646 0.420189691,4.73864063 0.420189691,3.13219024 C0.420189691,1.52573984 1.72262268,0.221954016 3.32740619,0.221954016 L36.9859959,0.221954016 C38.5907794,0.221954016 39.8932124,1.52573984 39.8932124,3.13219024 C39.8932124,4.73864063 38.5907794,6.04242646 36.9859959,6.04242646 Z"></path>
                </g>
                <g transform="translate(152.861031, 22.369764)" id="Path">
                    <path d="M32.083266,42.0651943 C30.4784825,42.0651943 29.1760495,40.7614085 29.1760495,39.1549581 L29.1760495,3.24031496 C29.1760495,1.63386457 30.4784825,0.33007874 32.083266,0.33007874 C33.6880495,0.33007874 34.9904825,1.63386457 34.9904825,3.24031496 L34.9904825,39.1549581 C34.9904825,40.7614085 33.6880495,42.0651943 32.083266,42.0651943 Z"></path>
                    <path d="M8.22548454,42.0651943 C6.62070103,42.0651943 5.31826804,40.7614085 5.31826804,39.1549581 L5.31826804,3.24031496 C5.31826804,1.63386457 6.62070103,0.33007874 8.22548454,0.33007874 C9.83026804,0.33007874 11.132701,1.63386457 11.132701,3.24031496 L11.132701,39.1549581 C11.132701,40.7614085 9.82561649,42.0651943 8.22548454,42.0651943 Z"></path>
                    <path d="M36.9859959,6.15055118 L3.32740619,6.15055118 C1.72262268,6.15055118 0.420189691,4.84676535 0.420189691,3.24031496 C0.420189691,1.63386457 1.72262268,0.33007874 3.32740619,0.33007874 L36.9859959,0.33007874 C38.5907794,0.33007874 39.8932124,1.63386457 39.8932124,3.24031496 C39.8932124,4.84676535 38.5907794,6.15055118 36.9859959,6.15055118 Z"></path>
                </g>
                <g transform="translate(59.830103, 80.710551)" id="Path">
                    <path d="M32.083266,20.9707742 C30.4784825,20.9707742 29.1760495,19.6669883 29.1760495,18.060538 L29.1760495,3.13219024 C29.1760495,1.52573984 30.4784825,0.221954016 32.083266,0.221954016 C33.6880495,0.221954016 34.9904825,1.52573984 34.9904825,3.13219024 L34.9904825,18.060538 C34.9904825,19.6669883 33.6880495,20.9707742 32.083266,20.9707742 Z"></path>
                    <path d="M8.22548454,41.9570696 C6.62070103,41.9570696 5.31826804,40.6532838 5.31826804,39.0468334 L5.31826804,3.13219024 C5.31826804,1.52573984 6.62070103,0.221954016 8.22548454,0.221954016 C9.83026804,0.221954016 11.132701,1.52573984 11.132701,3.13219024 L11.132701,39.0468334 C11.132701,40.6532838 9.82561649,41.9570696 8.22548454,41.9570696 Z"></path>
                    <path d="M36.9859959,6.04242646 L3.32740619,6.04242646 C1.72262268,6.04242646 0.420189691,4.73864063 0.420189691,3.13219024 C0.420189691,1.52573984 1.72262268,0.221954016 3.32740619,0.221954016 L36.9859959,0.221954016 C38.5907794,0.221954016 39.8932124,1.52573984 39.8932124,3.13219024 C39.8932124,4.73864063 38.5907794,6.04242646 36.9859959,6.04242646 Z"></path>
                </g>
                <path d="M219.068041,374.256378 L80.4519588,374.256378 C78.8471753,374.256378 77.5447423,372.952592 77.5447423,371.346142 L77.5447423,258.815456 C77.5447423,257.209005 78.8471753,255.90522 80.4519588,255.90522 L219.068041,255.90522 C220.672825,255.90522 221.975258,257.209005 221.975258,258.815456 L221.975258,371.346142 C221.975258,372.952592 220.672825,374.256378 219.068041,374.256378 Z M83.3591753,368.435906 L216.165476,368.435906 L216.165476,261.725692 L83.3591753,261.725692 L83.3591753,368.435906 Z" id="Shape"></path>
            </g>
            <g id="Group" transform="translate(101.760000, 268.800000)" fill="#0B5439" fill-rule="nonzero">
                <path d="M48,85.7549714 C21.7827097,85.7549714 0.456774194,64.3431314 0.456774194,38.0259657 C0.456774194,36.41728 1.75741935,35.11168 3.36,35.11168 L92.64,35.11168 C94.2425806,35.11168 95.5432258,36.41728 95.5432258,38.0259657 C95.5432258,64.3431314 74.2172903,85.7549714 48,85.7549714 Z M6.36077419,40.9402514 C7.85651613,62.6878171 25.9633548,79.9264 48,79.9264 C70.0366452,79.9264 88.1434839,62.6878171 89.6392258,40.9402514 L6.36077419,40.9402514 Z" id="Shape"></path>
                <path d="M65.5447742,40.9402514 C64.9780645,40.9402514 64.4020645,40.7723886 63.9003871,40.4226743 C62.5811613,39.5087543 62.256,37.6949029 63.1664516,36.3659886 L87.3305806,1.25933714 C88.2456774,-0.0602514286 90.048,-0.395977143 91.371871,0.517942857 C92.6910968,1.43186286 93.0162581,3.24571429 92.1058065,4.57462857 L67.9416774,39.68128 C67.3749677,40.5019429 66.4738065,40.9402514 65.5447742,40.9402514 Z" id="Path"></path>
            </g>
            <g id="Group" transform="translate(139.520000, 315.520000)" fill="#073D1A" stroke="#0B5439" stroke-width="0.64">
                <path d="M7.90592,4.19456 L5.90528,4.19456 L5.29216,4.19456 L0.03264,9.51808 L5.22959454e-14,16.6176 L5.22816,21.87648 L5.90528,21.87648 L7.90592,21.87648 L8.22848,21.87648 L11.10016,21.84384 L12.68096,21.84384 L11.10016,23.48992 L10.42304,24.20032 L11.10016,24.20032 L19.26336,24.20032 L16.94016,21.68256 L18.4896,20.1984 L17.328,20.16704 L18.13376,19.328 L17.07008,18.1984 L15.26208,20.03776 C15.23008,20.03776 14.2304,20.00512 14.2304,20.00512 L17.68256,16.48768 L17.68256,9.2928 L14.58496,6.1632 L18.4896,2.29056 L16.13376,-4.54747351e-15 L12.0032,4.19456 L11.10016,4.19456 L9.32544,4.19456 L8.22848,4.19456 L7.90592,4.19456 Z M5.90528,4.6784 L7.90592,4.6784 L8.22848,4.6784 L9.32544,4.6784 L11.10016,4.6784 L12.19648,4.6784 L16.13376,0.64512 L17.81248,2.29056 L13.9072,6.1632 L17.23072,9.51808 L17.19936,16.2944 L13.1328,20.45568 C13.74656,20.48832 14.87488,20.5216 15.456,20.48832 L17.0368,18.87552 L17.48992,19.328 L16.2304,20.61888 L17.328,20.65152 L16.26304,21.65056 L18.19904,23.71648 L11.552,23.71648 L13.81056,21.36064 L11.10016,21.36064 L8.22848,21.392 L7.90592,21.392 L5.90528,21.392 L5.42208,21.42464 L0.48448,16.42304 L0.48448,9.712 L5.48608,4.6784 L5.90528,4.6784 Z" id="Fill-40"></path>
                <path d="M5.90528,14.907072 L3.808,12.810432 L5.90528,10.743872 L8.22848,8.388672 L9.32544,7.292352 L9.61536,7.001152 L9.32544,7.001152 L8.22848,7.001152 L7.90592,7.001152 L6.48512,7.033792 L5.90528,7.582912 L2.83968,10.453952 L2.83968,10.841152 L2.87232,11.842112 L2.83968,11.809472 L2.77504,15.778112 L5.90528,18.875712 L6.1632,19.166272 L7.90592,19.198912 L8.22848,19.198912 L10.13248,19.230272 L9.32544,18.391232 L8.22848,17.294912 L5.90528,14.907072 Z M5.90528,15.584832 L7.90592,17.649472 L8.22848,17.972032 L9.00288,18.714432 L8.22848,18.714432 L6.35712,18.681792 L5.90528,18.230592 L3.22688,15.584832 L3.29216,12.938432 L5.90528,15.584832 Z M8.22848,7.711552 L7.90592,8.034752 L5.90528,10.066752 L3.35616,12.615872 C3.35616,12.615872 3.29216,10.711872 3.32416,10.680512 L5.90528,8.227392 L6.67904,7.484992 L7.90592,7.484992 L8.22848,7.484992 L8.4864,7.484992 L8.22848,7.711552 Z" id="Fill-42"></path>
                <path d="M7.357504,12.810176 L7.905984,13.422656 L8.228544,13.777216 L9.325504,14.970816 L12.068544,17.940416 L14.649664,15.423296 L14.682304,10.648256 L12.133184,7.937216 L10.374464,9.735616 L8.228544,11.905856 L7.357504,12.810176 Z M8.228544,12.583616 L9.325504,11.486656 L10.374464,10.413376 L11.100224,9.679936 L12.133184,8.614336 L14.197824,10.841536 L14.197824,15.228736 L12.101184,17.262656 L9.325504,14.261056 L8.228544,13.100096 L8.001984,12.841536 L8.228544,12.583616 Z" id="Fill-44"></path>
            </g>
        </g>
    </g>
</svg>