<?xml version="1.0" encoding="UTF-8"?>
<svg width="590px" height="569px" viewBox="0 0 590 569" version="1.1" xmlns="http://www.w3.org/2000/svg" xmlns:xlink="http://www.w3.org/1999/xlink">
    <!-- Generator: Sketch 61.2 (89653) - https://sketch.com -->
    <title>Artboard</title>
    <desc>Created with Sketch.</desc>
    <defs>
        <rect id="path-1" x="47.7" y="45.9" width="495" height="477" rx="54.9"></rect>
        <filter x="-10.4%" y="-9.3%" width="120.8%" height="121.6%" filterUnits="objectBoundingBox" id="filter-2">
            <feMorphology radius="1.5" operator="dilate" in="SourceAlpha" result="shadowSpreadOuter1"></feMorphology>
            <feOffset dx="0" dy="7" in="shadowSpreadOuter1" result="shadowOffsetOuter1"></feOffset>
            <feGaussianBlur stdDeviation="14.5" in="shadowOffsetOuter1" result="shadowBlurOuter1"></feGaussianBlur>
            <feColorMatrix values="0 0 0 0 0.609290082   0 0 0 0 0.606712673   0 0 0 0 0.606712673  0 0 0 1 0" type="matrix" in="shadowBlurOuter1"></feColorMatrix>
        </filter>
    </defs>
    <g id="Artboard" stroke="none" stroke-width="1" fill="none" fill-rule="evenodd">
        <g id="Rectangle">
            <use fill="black" fill-opacity="1" filter="url(#filter-2)" xlink:href="#path-1"></use>
            <use fill="#CAD5E3" fill-rule="evenodd" xlink:href="#path-1"></use>
        </g>
        <g id="b" transform="translate(124.200000, 97.200000)" fill="#0B5439" fill-rule="nonzero" stroke="#045538" stroke-width="2.88">
            <path d="M185.976,228.888 C160.368447,228.888 139.536,208.055553 139.536,182.448 C139.536,156.840447 160.368447,136.008 185.976,136.008 C211.583553,136.008 232.416,156.840447 232.416,182.448 C232.416,208.055553 211.583553,228.888 185.976,228.888 Z M185.976,140.392855 C162.784501,140.392855 143.920855,159.256501 143.920855,182.448 C143.920855,205.639499 162.784501,224.503145 185.976,224.503145 C209.167499,224.503145 228.031145,205.639499 228.031145,182.448 C228.031145,159.256501 209.167499,140.392855 185.976,140.392855 Z" id="Shape"></path>
            <path d="M242.863523,66.888 C239.530665,66.888 236.232843,66.3354152 233.070788,65.2390169 C216.664891,59.5640593 208.190408,40.8288051 214.177291,23.4750128 C218.889716,9.82266102 231.275162,0.648 244.991998,0.648 C248.329236,0.648 251.627058,1.20497034 254.789113,2.29698305 C262.759944,5.05552118 269.110331,10.9322161 272.670928,18.8482118 C276.214006,26.7203517 276.573131,35.6713474 273.678231,44.0566017 C268.965805,57.713339 256.58474,66.888 242.863523,66.888 Z M244.991998,5.03359322 C233.140862,5.03359322 222.419656,13.0197585 218.320371,24.9047161 C213.121813,39.9692288 220.383152,56.2046949 234.50291,61.0902457 C237.20511,62.0243771 240.021177,62.4980212 242.867903,62.4980212 C254.723419,62.4980212 265.440245,54.5118559 269.54391,42.6268983 C272.070926,35.3073433 271.764356,27.5009873 268.685512,20.6550762 C265.624187,13.8486356 260.184752,8.8008178 253.36575,6.44575423 C250.654792,5.51162288 247.843103,5.03359322 244.991998,5.03359322 Z" id="Shape"></path>
            <path d="M205.779073,145.368 C205.545649,145.368 205.307902,145.328738 205.074477,145.250216 C203.94626,144.857603 203.34541,143.614329 203.73445,142.475752 L231.088305,62.5964737 C231.481668,61.4578963 232.717951,60.8602522 233.837523,61.2441403 C234.96574,61.6367533 235.56659,62.8800275 235.17755,64.018605 L207.823695,143.897882 C207.512464,144.800893 206.673865,145.368 205.779073,145.368 Z" id="Path"></path>
            <g id="Group" transform="translate(0.576000, 194.328000)">
                <path d="M32.0900953,63.8626027 C17.4791276,63.8626027 4.71698406,54.4110061 1.05876577,40.8787341 C-1.1361652,32.7523729 0.116829327,24.2280038 4.59431327,16.8714164 C9.04989168,9.54544491 16.1691788,4.25762438 24.6334635,1.97454552 C27.5688004,1.18727695 30.5829969,0.784895238 33.5884314,0.784895238 C48.199399,0.784895238 60.9571616,10.2364918 64.6153798,23.7643901 C69.1366748,40.498221 58.5607,57.9537147 41.040682,62.6729524 C38.1053452,63.4645947 35.0955297,63.8626027 32.0900953,63.8626027 Z M33.5884314,5.15860952 C30.9685337,5.15860952 28.3398739,5.50850666 25.7769305,6.19955352 C18.3991586,8.18521981 12.2086646,12.7819935 8.34015355,19.1370004 C4.49354797,25.4613912 3.41141634,32.7786152 5.29090813,39.7371946 C8.43215665,51.366901 19.4550036,59.4888884 32.0900953,59.4888884 C34.7099929,59.4888884 37.3342717,59.1389913 39.897215,58.4479444 C55.0864878,54.3541478 64.273654,39.3085706 60.3832374,24.9015558 C57.2419889,13.2805969 46.2235231,5.15860952 33.5884314,5.15860952 Z" id="Shape"></path>
                <path d="M62.4949276,26.5198301 C61.5310856,26.5198301 60.6461035,25.8768941 60.3832374,24.9015558 C60.0677983,23.7337741 60.7600121,22.5353764 61.9297656,22.2204689 L142.958206,0.395634667 C144.13234,0.0851009524 145.32838,0.771774095 145.643819,1.93955581 C145.959259,3.10733752 145.267045,4.30573523 144.097292,4.62064267 L63.0688516,26.445477 C62.8760832,26.4979615 62.687696,26.5198301 62.4949276,26.5198301 Z" id="Path"></path>
            </g>
            <g id="Group" transform="translate(174.096000, 227.448000)">
                <path d="M31.4545328,147.361552 C15.3556694,147.361552 1.64776926,134.265228 0.246170102,117.543442 C-0.478495717,108.913266 2.0600043,100.519533 7.40170265,93.9122604 C12.7607583,87.2830945 20.289472,83.2372891 28.603602,82.5323382 C45.7829552,81.0786506 60.914151,94.6347255 62.3938579,112.240985 C63.890922,130.083687 51.1637073,145.789643 34.0277474,147.252088 C33.1642234,147.326523 32.3050387,147.361552 31.4545328,147.361552 Z M31.1854952,86.7970724 C30.4521507,86.7970724 29.714467,86.8277225 28.9724439,86.8890226 C21.8386079,87.4976448 15.377366,90.9742347 10.7690121,96.6751425 C6.14330093,102.397943 3.94326757,109.679517 4.57246843,117.171263 C5.85256674,132.408711 18.8574976,144.156434 33.6719234,142.886646 C48.4212595,141.625616 59.3693545,128.04327 58.0805775,112.604406 C56.8568903,98.1375876 45.0496107,86.7970724 31.1854952,86.7970724 Z" id="Shape"></path>
                <path d="M28.7858533,86.9021582 C27.670649,86.9021582 26.7203388,86.0395785 26.6248738,84.8967699 L19.712343,2.45253977 C19.6125386,1.24843104 20.4977592,0.188815355 21.6910712,0.0881080792 C22.8757045,-0.0125991965 23.9344977,0.880630553 24.0343019,2.08473928 L30.9468328,84.5289694 C31.0466371,85.7330781 30.1614165,86.7926939 28.9681046,86.8934012 C28.9073542,86.8977797 28.8466037,86.9021582 28.7858533,86.9021582 Z" id="Path"></path>
            </g>
            <g id="Group" transform="translate(227.376000, 183.528000)">
                <path d="M82.7207095,62.8858237 C80.1616987,62.8858237 77.593954,62.5666003 75.0873462,61.9412723 C66.951788,59.9078632 60.0957353,54.8221539 55.7855925,47.6243229 C51.4754498,40.4264919 50.217779,31.9780048 52.2527602,23.8356225 C55.7506572,9.81165888 68.2618619,0.0206846193 82.6770404,0.0206846193 C85.2360511,0.0206846193 87.8037958,0.339907988 90.3104037,0.96523596 C107.101183,5.16761482 117.341592,22.2657432 113.144989,39.0752587 C109.647093,53.0904765 97.1358876,62.8858237 82.7207095,62.8858237 Z M82.6726735,4.38923455 C70.2662747,4.38923455 59.4974683,12.8202298 56.4842986,24.8894969 C54.7331666,31.9036652 55.8161609,39.1758359 59.5280367,45.3722676 C63.2442793,51.5686993 69.1439782,55.945995 76.1441391,57.6995371 C78.3057608,58.2417796 80.5154186,58.5129008 82.7163426,58.5129008 C95.1271083,58.5129008 105.895914,50.0819055 108.909085,38.0126384 C112.520521,23.5382638 103.703725,8.81900541 89.2492438,5.20259821 C87.091989,4.66035577 84.8779643,4.38923455 82.6726735,4.38923455 Z" id="Shape"></path>
                <path d="M54.3707129,26.5468347 C54.1916695,26.5468347 54.012626,26.5249701 53.8379495,26.4812408 L1.8760565,13.4236931 C0.705723925,13.1307073 -0.00608282969,11.9412724 0.290867227,10.7737019 C0.579083458,9.59738571 1.7712506,8.88022633 2.93721627,9.18633096 L54.8991093,22.2438786 C56.0694419,22.5368644 56.7812487,23.7262994 56.4842986,24.8938699 C56.2397514,25.8821504 55.3489013,26.5468347 54.3707129,26.5468347 Z" id="Path"></path>
            </g>
        </g>
    </g>
</svg>