<?xml version="1.0" encoding="UTF-8"?>
<svg width="145px" height="41px" viewBox="0 0 145 41" version="1.1" xmlns="http://www.w3.org/2000/svg" xmlns:xlink="http://www.w3.org/1999/xlink">
    <!-- Generator: Sketch 64 (93537) - https://sketch.com -->
    <title>Artboard</title>
    <desc>Created with Sketch.</desc>
    <g id="Artboard" stroke="none" stroke-width="1" fill="none" fill-rule="evenodd">
        <path d="M15.4203484,19.087007 L17.4006445,17.4698376 L16.2663002,16.049884 C17.4775492,14.9849188 18.2465963,13.1113689 18.2465963,11.1392111 C18.2465963,6.80046404 15.2857652,4 11.1329112,4 C7.07618813,4 4,6.93851508 4,11.1392111 C4,15.4779582 6.99928342,18.2784223 11.1329112,18.2784223 C12.2480294,18.2784223 13.4016,18.0812065 14.2667779,17.5684455 L15.4203484,19.087007 Z M11.1713636,15.4187935 C9.28719834,15.4187935 7.26844989,14.0580046 7.26844989,11.1392111 C7.26844989,8.45707657 9.03725806,6.95823666 11.1329112,6.95823666 C13.3246953,6.95823666 15.0742773,8.55568445 15.0742773,11.1392111 C15.0742773,12.1844548 14.9012417,13.0916473 14.4782658,13.7227378 L12.6517791,11.4941995 L10.8637448,13.1310905 L12.6325529,15.162413 C12.2864818,15.3399072 11.9211844,15.4187935 11.1713636,15.4187935 Z M25.9288271,18.1798144 C29.2165032,18.1798144 31.8120369,16.4443155 31.8120369,12.12529 L31.8120369,4.23665893 L28.6397179,4.23665893 L28.6397179,11.5336427 C28.6397179,13.7819026 27.9283494,15.2215777 25.9288271,15.2215777 C23.8716263,15.2215777 22.8910914,13.6832947 22.8910914,11.4547564 L22.8910914,4.23665893 L19.7187723,4.23665893 L19.7187723,12.0069606 C19.7187723,16.1090487 22.410437,18.1798144 25.9288271,18.1798144 Z M44.8199185,18.0417633 L44.8199185,15.3793503 L37.1679005,15.3793503 L37.1679005,12.3225058 L44.1470023,12.3225058 L44.1470023,9.7587007 L37.1679005,9.7587007 L37.1679005,6.89907193 L44.6468829,6.89907193 L44.6468829,4.23665893 L33.9955815,4.23665893 L33.9955815,18.0417633 L44.8199185,18.0417633 Z M57.7316692,18.0417633 L57.7316692,15.3793503 L50.0796512,15.3793503 L50.0796512,12.3225058 L57.058753,12.3225058 L57.058753,9.7587007 L50.0796512,9.7587007 L50.0796512,6.89907193 L57.5586336,6.89907193 L57.5586336,4.23665893 L46.9073322,4.23665893 L46.9073322,18.0417633 L57.7316692,18.0417633 Z M62.7030092,18.0417633 L62.7030092,10.8828306 C62.7030092,10.3700696 62.6645569,9.62064965 62.6068784,9.06844548 L62.7030092,9.08816705 C62.9721757,9.5812065 63.664318,10.5081206 63.991163,10.9222738 L69.6628849,18.0417633 L72.296871,18.0417633 L72.296871,4.23665893 L69.4129446,4.23665893 L69.4129446,11.474478 C69.4129446,11.9675174 69.4706231,12.7169374 69.5090755,13.2099768 L69.4129446,13.2099768 C69.1437781,12.6972158 68.586219,11.9083527 68.2786002,11.5336427 L62.4338428,4.23665893 L59.8190829,4.23665893 L59.8190829,18.0417633 L62.7030092,18.0417633 Z M90.3529973,18.0417633 L90.3529973,15.0835267 L82.9124673,15.0835267 L82.9124673,4.23665893 L79.7401482,4.23665893 L79.7401482,18.0417633 L90.3529973,18.0417633 Z M95.1513018,18.0417633 L95.1513018,13.0719258 L100.611536,4.23665893 L97.0546932,4.23665893 L94.6514212,8.18097448 L93.6324339,10.0545244 L92.6134466,8.1612529 L90.2678531,4.23665893 L86.5764274,4.23665893 L91.9789828,13.0719258 L91.9789828,18.0417633 L95.1513018,18.0417633 Z M104.140913,18.0417633 L104.140913,10.8828306 C104.140913,10.3700696 104.10246,9.62064965 104.044782,9.06844548 L104.140913,9.08816705 C104.410079,9.5812065 105.102221,10.5081206 105.429066,10.9222738 L111.100788,18.0417633 L113.734774,18.0417633 L113.734774,4.23665893 L110.850848,4.23665893 L110.850848,11.474478 C110.850848,11.9675174 110.908526,12.7169374 110.946979,13.2099768 L110.850848,13.2099768 C110.581681,12.6972158 110.024122,11.9083527 109.716504,11.5336427 L103.871746,4.23665893 L101.256986,4.23665893 L101.256986,18.0417633 L104.140913,18.0417633 Z M122.570576,18.2784223 C125.089205,18.2784223 127.184858,17.2331787 128.28075,15.675174 L126.646525,13.762181 C125.762121,14.8863109 124.35861,15.3201856 123.089682,15.3201856 C120.43647,15.3201856 118.763793,13.6241299 118.763793,11.0406032 C118.763793,8.59512761 120.398018,6.95823666 122.858968,6.95823666 C124.147122,6.95823666 125.435276,7.33294664 126.262001,8.18097448 L127.877,6.20881671 C126.954144,4.90719258 124.896943,4 122.64748,4 C118.379269,4 115.495343,7.19489559 115.495343,11.1392111 C115.495343,15.6160093 118.513853,18.2784223 122.570576,18.2784223 Z M132.867566,18.0417633 L132.867566,12.5591647 L138.827681,12.5591647 L138.827681,18.0417633 L142,18.0417633 L142,4.23665893 L138.827681,4.23665893 L138.827681,9.60092807 L132.867566,9.60092807 L132.867566,4.23665893 L129.695247,4.23665893 L129.695247,18.0417633 L132.867566,18.0417633 Z M7.88368751,37.7633411 L7.88368751,33.7795824 L10.4792212,33.7795824 C14.9012417,33.7795824 16.362431,31.2157773 16.362431,28.8886311 C16.362431,26.5220418 15.2473128,23.9582367 10.671483,23.9582367 L4.7113685,23.9582367 L4.7113685,37.7633411 L7.88368751,37.7633411 Z M10.2485071,31.0185615 L7.88368751,31.0185615 L7.88368751,26.7192575 L10.3638642,26.7192575 C12.4018388,26.7192575 13.0939812,27.7447796 13.0939812,28.8689095 C13.0939812,30.0916473 12.3249341,31.0185615 10.2485071,31.0185615 Z M21.1415094,37.7633411 L21.1415094,32.2807425 L27.1016238,32.2807425 L27.1016238,37.7633411 L30.2739429,37.7633411 L30.2739429,23.9582367 L27.1016238,23.9582367 L27.1016238,29.3225058 L21.1415094,29.3225058 L21.1415094,23.9582367 L17.9691903,23.9582367 L17.9691903,37.7633411 L21.1415094,37.7633411 Z M34.2070694,37.7633411 L35.3029615,35.2587007 L41.2438498,35.2587007 L42.3205156,37.7633411 L45.4543823,37.7633411 L39.5519463,23.9582367 L37.0909958,23.9582367 L31.1885598,37.7633411 L34.2070694,37.7633411 Z M40.0518269,32.5962877 L36.456532,32.5962877 L37.5908764,30.012761 C37.879269,29.3225058 38.0907569,28.75058 38.3022449,28.1194896 L38.3791496,28.1194896 C38.5906375,28.8491879 38.7828993,29.3816705 39.0328396,30.0324826 L40.0518269,32.5962877 Z M49.5413183,37.7633411 L49.5413183,32.9118329 L51.7138761,32.9118329 L55.0207784,37.7633411 L58.6737518,37.7633411 L54.9246475,32.4779582 C56.6934557,31.787703 57.6163121,30.1902552 57.6163121,28.4350348 C57.6163121,26.1670534 56.4627416,23.9582367 52.1753044,23.9582367 L46.3689993,23.9582367 L46.3689993,37.7633411 L49.5413183,37.7633411 Z M51.8484594,30.4466357 L49.5413183,30.4466357 L49.5413183,26.7192575 L51.7331023,26.7192575 C53.6941722,26.7192575 54.3478622,27.4686775 54.3478622,28.5139211 C54.3478622,29.6577726 53.3673272,30.4466357 51.8484594,30.4466357 Z M62.7799139,37.7633411 L62.7799139,31.0777262 C62.7799139,30.2691415 62.7606878,29.1844548 62.7222354,28.7900232 L62.7991401,28.7900232 C63.2413422,29.5 63.4528301,29.8549884 63.8181274,30.3480278 L66.6251491,34.1740139 L67.3365176,34.1740139 L70.1050869,30.3480278 C70.4703843,29.8352668 70.7203245,29.4013921 71.0279433,28.8491879 L71.1048481,28.8491879 C71.0718889,29.2379848 71.0671804,30.1339079 71.0665078,30.7669533 L71.0663957,37.7633411 L74.0464529,37.7633411 L74.0464529,23.9582367 L71.431693,23.9582367 L67.0865773,30.2888631 L62.5107475,23.9582367 L59.7998567,23.9582367 L59.7998567,37.7633411 L62.7799139,37.7633411 Z M77.9795795,37.7633411 L79.0754716,35.2587007 L85.0163599,35.2587007 L86.0930257,37.7633411 L89.2268924,37.7633411 L83.3244564,23.9582367 L80.8635059,23.9582367 L74.9610699,37.7633411 L77.9795795,37.7633411 Z M83.824337,32.5962877 L80.2290421,32.5962877 L81.3633865,30.012761 C81.6517791,29.3225058 81.863267,28.75058 82.074755,28.1194896 L82.1516597,28.1194896 C82.3631476,28.8491879 82.5554094,29.3816705 82.8053497,30.0324826 L83.824337,32.5962877 Z M95.7363265,38 C98.2549555,38 100.350609,36.9547564 101.446501,35.3967517 L99.8122758,33.4837587 C98.9278717,34.6078886 97.5243609,35.0417633 96.2554333,35.0417633 C93.602221,35.0417633 91.9295437,33.3457077 91.9295437,30.762181 C91.9295437,28.3167053 93.5637686,26.6798144 96.0247191,26.6798144 C97.3128729,26.6798144 98.6010267,27.0545244 99.4277523,27.9025522 L101.042751,25.9303944 C100.119895,24.6287703 98.0626938,23.7215777 95.8132312,23.7215777 C91.5450202,23.7215777 88.6610938,26.9164733 88.6610938,30.8607889 C88.6610938,35.337587 91.6796034,38 95.7363265,38 Z M109.244089,37.7633411 L109.244089,32.7935035 L114.704323,23.9582367 L111.14748,23.9582367 L108.744208,27.9025522 L107.725221,29.7761021 L106.706233,27.8828306 L104.36064,23.9582367 L100.669214,23.9582367 L106.07177,32.7935035 L106.07177,37.7633411 L109.244089,37.7633411 Z" id="QUEENLYNCHPHARMACY-Copy" fill="#0B5439" fill-rule="nonzero"></path>
    </g>
</svg>