<svg xmlns="http://www.w3.org/2000/svg" xmlns:xlink="http://www.w3.org/1999/xlink" width="830" height="340" viewBox="0 0 830 340">
  <defs>
    <path id="logo2-a" d="M305.42835,333.096774 L305.42835,311.628975 L321.529592,311.628975 C327.337447,311.628975 331.933171,310.090906 335.316766,307.014767 C338.70036,303.938628 340.392157,299.793661 340.392157,294.579867 C340.392157,289.313934 338.706842,285.23414 335.336212,282.340484 C331.965581,279.446828 327.207807,278 321.062889,278 L321.062889,278 L298,278 L298,333.096774 L305.42835,333.096774 Z M320.929195,306.903226 L306.117647,306.903226 L306.117647,284.322581 L320.623014,284.322581 C328.991985,284.322581 333.176471,288.018334 333.176471,295.40984 C333.176471,303.072097 329.094046,306.903226 320.929195,306.903226 L320.929195,306.903226 Z M364.454957,333.096774 L364.454957,312.585407 L388.48622,312.585407 L388.48622,333.096774 L394.509804,333.096774 L394.509804,288.83871 L388.48622,288.83871 L388.48622,307.559651 L364.454957,307.559651 L364.454957,288.83871 L358.431373,288.83871 L358.431373,333.096774 L364.454957,333.096774 Z M412.416183,333.096774 L417.473274,320.155452 L437.514338,320.155452 L442.540212,333.096774 L448.627451,333.096774 L430.95885,288.83871 L424.184845,288.83871 L406.235294,333.096774 L412.416183,333.096774 Z M436,316.83871 L418.862745,316.83871 L424.716077,301.988087 C425.778348,299.208272 426.580472,296.930963 427.122447,295.156158 L427.122447,295.156158 L427.415113,294.258065 L428.293113,296.920271 C428.900125,298.780609 429.507137,300.448497 430.11415,301.923937 L430.11415,301.923937 L436,316.83871 Z M466.303212,333.096774 L466.303212,314.721354 L479.979489,314.721354 L491.381579,333.096774 L498.235294,333.096774 L485.773994,314.030312 C489.117776,313.443974 491.739841,312.03048 493.64019,309.78983 C495.540538,307.549181 496.490712,304.785015 496.490712,301.497333 C496.490712,297.518609 495.14593,294.414158 492.456366,292.183979 C489.766802,289.953799 485.950529,288.83871 481.007546,288.83871 L481.007546,288.83871 L460.352941,288.83871 L460.352941,333.096774 L466.303212,333.096774 Z M481.650592,310.516129 L466.666667,310.516129 L466.666667,294.258065 L481.390567,294.258065 C484.792557,294.258065 487.398222,294.930273 489.207561,296.27469 C491.016899,297.619107 491.921569,299.573201 491.921569,302.136973 C491.921569,304.784119 491.027734,306.842432 489.240064,308.311911 C487.452394,309.78139 484.92257,310.516129 481.650592,310.516129 L481.650592,310.516129 Z M518.94089,333.096774 L518.94089,303.570457 L519.76253,299.796869 L518.719679,294.147165 L519.76253,297.602372 L521.532217,302.942238 L533.193187,333.096774 L537.427794,333.096774 L548.930757,302.942238 C549.752397,300.827232 550.679376,297.895541 551.711693,294.147165 C551.427279,296.901639 551.427279,300.303716 551.427279,303.570457 L551.427279,333.096774 L556.862745,333.096774 L556.862745,288.83871 L549.120366,288.83871 L537.490998,319.527233 C537.301388,319.966986 536.937971,321.040195 536.400744,322.746858 C535.863518,324.453521 535.510634,325.725665 535.342092,326.563291 C535.342092,324.453521 534.957607,324.914215 534.567855,323.500721 C534.178102,322.087227 533.772549,320.762731 533.351195,319.527233 L521.500615,288.83871 L513.568627,288.83871 L513.568627,333.096774 L518.94089,333.096774 Z M574.769124,333.096774 L579.826215,320.155452 L599.867279,320.155452 L604.893153,333.096774 L610.980392,333.096774 L593.311791,288.83871 L586.537786,288.83871 L568.588235,333.096774 L574.769124,333.096774 Z M598.352941,316.83871 L581.215686,316.83871 L587.069018,301.988087 C588.131289,299.208272 588.933413,296.930963 589.475388,295.156158 L589.475388,295.156158 L589.768054,294.258065 L590.646054,296.920271 C591.253066,298.780609 591.860079,300.448497 592.467091,301.923937 L592.467091,301.923937 L598.352941,316.83871 Z M642.400895,334 C646.740321,334 650.552965,333.013719 653.838829,331.041157 C657.124692,329.068595 659.675148,326.192807 661.490196,322.413793 L661.490196,322.413793 L656.608342,319.984427 C653.499811,326.068224 648.857877,329.110122 642.68254,329.110122 C637.863274,329.110122 634.040198,327.474972 631.213313,324.204672 C628.386427,320.934372 626.972984,316.610308 626.972984,311.232481 C626.972984,305.792362 628.329055,301.509826 631.041196,298.384872 C633.753337,295.259918 637.550335,293.697442 642.432189,293.697442 C645.54072,293.697442 648.226783,294.372265 650.490377,295.721913 C652.753972,297.071561 654.396904,299.023359 655.419172,301.577308 L655.419172,301.577308 L661.083375,299.708565 C659.602129,296.116426 657.286377,293.406748 654.136121,291.579533 C650.985865,289.752317 647.063691,288.83871 642.369601,288.83871 C635.651836,288.83871 630.394455,290.821654 626.597457,294.787542 C622.80046,298.75343 620.901961,304.235076 620.901961,311.232481 C620.901961,315.904338 621.752113,319.94809 623.452417,323.363737 C625.15272,326.779385 627.624941,329.406007 630.869079,331.243604 C634.113218,333.081201 637.957156,334 642.400895,334 Z M695.08046,333.096774 L695.08046,314.752764 L712,288.83871 L705.46856,288.83871 L692.187965,309.915474 L678.845166,288.83871 L672.313725,288.83871 L689.171062,314.752764 L689.171062,333.096774 L695.08046,333.096774 Z"/>
  </defs>
  <g fill="none" fill-rule="evenodd">
    <path stroke="#093022" stroke-linecap="round" stroke-width="9" d="M84.2930335,90.8005367 C104.789283,72.4489482 126.336572,65.9556815 148.934901,71.3207364" transform="rotate(-8 116.614 80.15)"/>
    <path stroke="#093022" stroke-linecap="round" stroke-width="13" d="M39.8235596,87.6570724 L22.7080783,41.5498532 C22.6080027,41.280121 22.7454859,40.9803095 23.0152011,40.8801884 C23.1380211,40.8345963 23.2735105,40.8369561 23.3946683,40.8867976 C55.1923264,53.9675966 73.7662912,56.9579301 79.1165629,49.8577981 C87.2342099,39.0851926 98.0577393,13.5002544 100.763622,13.5002544 C103.469504,13.5002544 116.998916,40.4317682 122.410681,49.8577981 C128.664107,57.8600895 148.632161,53.9735824 182.314844,38.1982769 C182.575407,38.0762497 182.885561,38.1885477 183.007594,38.4491079 C183.057537,38.555742 183.069881,38.6761499 183.042616,38.7906997 L171.210723,88.5002544 L171.210723,88.5002544" transform="rotate(-24 102.793 51)"/>
    <polyline stroke="#093022" stroke-linecap="square" stroke-linejoin="round" stroke-width="11.809" points="200 183 267 246 476 246"/>
    <path fill="#093022" fill-rule="nonzero" stroke="#003121" stroke-width="2.084" d="M294.058058 229C299.871809 229 304.500826 227.658756 307.945107 224.976269 310.461143 223.032081 312.195497 220.737201 313.148171 218.091628 314.100844 215.446056 314.577181 211.600747 314.577181 206.555702L314.577181 206.555702 314.577181 173 304.757315 173 304.757315 207.294001C304.757315 212.265216 303.932886 215.870578 302.284028 218.110086 300.63517 220.349593 297.966462 221.469347 294.277905 221.469347 290.418356 221.469347 287.621404 220.294221 285.88705 217.943968 284.152695 215.593716 283.285518 211.773017 283.285518 206.481872L283.285518 206.481872 283.285518 173 272 173 272 206.444957C272 211.268512 272.519085 215.027686 273.557255 217.722479 274.595425 220.417271 276.421383 222.749066 279.035128 224.717864 282.821395 227.572621 287.829038 229 294.058058 229zM369.718121 227.617284L369.718121 219.867534 345.400613 219.867534 345.400613 203.039506 363.931726 203.039506 363.931726 195.732599 345.400613 195.732599 345.400613 180.491425 367.996851 180.491425 367.996851 173 334.120805 173 334.120805 227.617284 369.718121 227.617284zM419.973154 227.617284L419.973154 219.867534 395.655647 219.867534 395.655647 203.039506 414.186759 203.039506 414.186759 195.732599 395.655647 195.732599 395.655647 180.491425 418.251885 180.491425 418.251885 173 384.375839 173 384.375839 227.617284 419.973154 227.617284zM445.047916 227.617284L445.047916 190.307774 469.919775 227.617284 480 227.617284 480 173 470.978929 173 470.978929 210.30951 445.924458 173 436.026846 173 436.026846 227.617284 445.047916 227.617284zM573.10739 227.617284L573.10739 205.244378 591.801205 174.382716 582.978592 174.382716 569.346932 196.86353 556.293805 174.382716 544 174.382716 561.97065 205.316316 561.97065 227.617284 573.10739 227.617284zM615.995832 227.617284L615.995832 191.252319 640.681844 227.617284 650.686747 227.617284 650.686747 174.382716 641.733083 174.382716 641.733083 210.747681 616.865824 174.382716 607.042169 174.382716 607.042169 227.617284 615.995832 227.617284zM694.477115 229C701.664368 229 707.850711 227.846847 713.036145 225.540541L713.036145 225.540541 713.036145 217.36036C707.681883 220.003003 702.375857 221.324324 697.118069 221.324324 691.257322 221.324324 686.680875 219.522523 683.388728 215.918919 680.09658 212.315315 678.450507 207.294294 678.450507 200.855856 678.450507 194.297297 679.982018 189.234234 683.045042 185.666667 686.108066 182.099099 690.461419 180.315315 696.1051 180.315315 700.518748 180.315315 705.993602 181.456456 712.52966 183.738739L712.52966 183.738739 712.52966 175.054054C706.765387 173.684685 700.964937 173 695.128309 173 685.987474 173 678.950961 175.42042 674.01877 180.261261 669.086578 185.102102 666.620482 192.015015 666.620482 201 666.620482 209.816817 669.068489 216.687688 673.964503 221.612613 678.860518 226.537538 685.698055 229 694.477115 229zM740.783093 227.617284L740.783093 203.338005 762.879557 203.338005 762.879557 227.617284 774 227.617284 774 174.382716 762.879557 174.382716 762.879557 196.000267 740.783093 196.000267 740.783093 174.382716 729.662651 174.382716 729.662651 227.617284 740.783093 227.617284z"/>
    <polyline stroke="#093022" stroke-linecap="square" stroke-linejoin="round" stroke-width="11.809" points="521 139 521 246 784 246"/>
    <ellipse cx="166.5" cy="166.5" stroke="#093022" stroke-width="18" rx="79.5" ry="80.5"/>
    <g fill="#093022" fill-rule="nonzero">
      <use xlink:href="#logo2-a"/>
      <use stroke="#093022" stroke-width="6" xlink:href="#logo2-a"/>
    </g>
  </g>
</svg>
