<?xml version="1.0" encoding="UTF-8"?>
<svg width="923px" height="200px" viewBox="0 0 923 200" version="1.1" xmlns="http://www.w3.org/2000/svg" xmlns:xlink="http://www.w3.org/1999/xlink">
    <!-- Generator: Sketch 61.2 (89653) - https://sketch.com -->
    <title>logo copy 2</title>
    <desc>Created with Sketch.</desc>
    <g id="logo-copy-2" stroke="none" stroke-width="1" fill="none" fill-rule="evenodd">
        <g id="queen" fill="#FFFFFF" fill-rule="nonzero">
            <path d="M174.965461,177.033787 C166.811521,177.033787 160.484112,174.353292 155.618733,168.8389 C145.811451,157.723323 144.293034,137.736679 146.141716,122.74165 C149.851165,92.6143374 151.993865,63.0663188 137.617234,32.8078076 C136.423042,30.2928249 133.42447,29.2250673 130.9072,30.4220054 C128.397986,31.6209617 127.332678,34.6304635 128.52687,37.1474646 C141.753612,64.989897 139.804238,91.823107 136.147149,121.504343 C135.120103,129.840521 132.947196,158.371244 148.07498,175.521972 C148.53413,176.044749 149.003349,176.547342 149.48465,177.033787 L105.446528,177.033787 C112.847301,170.261904 120.693127,159.784155 121.990024,145.172631 C122.23571,142.397269 120.191687,139.944858 117.42269,139.698607 C114.655707,139.442265 112.208921,141.501079 111.961222,144.276441 C109.981641,166.545946 87.5336373,177.403163 87.320173,177.504085 C85.177473,178.505234 84.0175151,180.86076 84.5290244,183.171879 C85.0385197,185.480981 87.0805288,187.126013 89.4427346,187.126013 L174.965461,187.126013 C177.74654,187.126013 180,184.867373 180,182.0799 C180,179.292428 177.74654,177.033787 174.965461,177.033787 L174.965461,177.033787 Z M37.2808798,27.1036814 C37.9360412,27.7603489 39.1221786,28.9774072 40.8392922,30.7548561 C42.5577482,28.9774072 43.744557,27.7603489 44.3997184,27.1036814 L59.287858,12.1833348 L74.17197,27.1036814 C75.1164496,28.0483138 76.3972365,28.5811834 77.7323962,28.5811834 C79.0675562,28.5811834 80.3483428,28.0503322 81.2908086,27.1036814 L96.1789482,12.1833348 L111.067088,27.1036814 C113.032572,29.0736839 116.218428,29.0736839 118.185926,27.1036814 L138.407107,6.71253145 L132.335807,-4.206413e-11 L114.6255,16.3998667 L99.7393744,1.4795204 C97.7718765,-0.49250051 94.58602,-0.49250051 92.618522,1.4795204 L77.7323962,16.3998667 L62.8462704,1.4795204 C61.901791,0.532869581 60.6230179,-4.206413e-11 59.287858,-4.206413e-11 C57.9526983,-4.206413e-11 56.6719114,0.532869581 55.7274318,1.4795204 L40.8392922,16.3998667 L24.6482505,-4.206413e-11 L17.0385131,6.71253145 L37.2808798,27.1036814 Z M34.3890405,94.8467378 C34.3890405,99.6809138 38.2998706,103.600734 43.1229593,103.600734 C47.9480617,103.600734 51.858892,99.6809138 51.858892,94.8467378 C51.858892,90.0105432 47.9480617,86.0907226 43.1229593,86.0907226 C38.2998706,86.0907226 34.3890405,90.0105432 34.3890405,94.8467378 L34.3890405,94.8467378 Z M64.2619828,187 L54.2093916,187 L54.1929044,171.202499 L47.7728597,171.202499 C29.4753301,171.202499 14.5871905,156.282153 14.5871905,137.940542 L14.5871905,127.497107 L14.2730353,127.497107 C9.63924528,127.497107 5.42634271,125.339389 2.71373307,121.57297 C0.00112317871,117.80857 -0.717808857,113.117703 0.738179811,108.709419 L16.7460011,60.3111412 C16.7480148,60.3071042 16.7480148,60.3030674 16.7500286,60.2990306 C21.3364675,48.3170127 24.7178456,41.2839421 26.8941629,39.1998187 L34.8310936,45.0174313 C30.2375663,53.2432354 27.4259371,59.3079739 26.396206,63.2116469 C26.3398191,63.4195467 26.2713492,63.6213911 26.1928105,63.8191988 L10.2957492,111.884433 C9.86882039,113.180275 10.0802709,114.558873 10.8777419,115.664981 C11.6731991,116.771089 12.9116958,117.404881 14.2730353,117.404881 L19.6217299,117.404881 C22.4028092,117.404881 24.6562691,119.665539 24.6562691,122.450994 L24.6562691,137.940542 C24.6562691,150.7173 35.0274201,161.110274 47.7728597,161.110274 C61.0136982,161.110274 85.0425475,155.172008 97.2039806,115.400565 C103.448152,94.9779367 101.803536,71.607033 92.270132,45.2878539 L97.908816,36.9274542 C111.469851,66.3160155 114.443586,93.459393 106.83002,118.357587 C98.738508,144.82344 83.6348901,162.343544 64.2619828,168.602742 L64.2619828,187 Z" id="Shape"></path>
        </g>
        <text id="QUEEN-LYNCH-PHARMACY-Copy" font-family="StemText-Regular, Stem Text" font-size="100" font-weight="normal" letter-spacing="-2.14285544" fill="#FFFFFF">
            <tspan x="209" y="78">QUEEN LYNCH</tspan>
            <tspan x="209" y="178">PHARMACY</tspan>
        </text>
    </g>
</svg>