<?xml version="1.0" encoding="UTF-8"?>
<svg width="719px" height="174px" viewBox="0 0 719 174" version="1.1" xmlns="http://www.w3.org/2000/svg" xmlns:xlink="http://www.w3.org/1999/xlink">
    <!-- Generator: Sketch 64 (93537) - https://sketch.com -->
    <title>QUEENLYNCHPHARMACY</title>
    <desc>Created with Sketch.</desc>
    <g id="Page-1" stroke="none" stroke-width="1" fill="none" fill-rule="evenodd">
        <path d="M60.2,77.3 L70.5,69.1 L64.6,61.9 C70.9,56.5 74.9,47 74.9,37 C74.9,15 59.5,0.8 37.9,0.8 C16.8,0.8 0.8,15.7 0.8,37 C0.8,59 16.4,73.2 37.9,73.2 C43.7,73.2 49.7,72.2 54.2,69.6 L60.2,77.3 Z M38.1,58.7 C28.3,58.7 17.8,51.8 17.8,37 C17.8,23.4 27,15.8 37.9,15.8 C49.3,15.8 58.4,23.9 58.4,37 C58.4,42.3 57.5,46.9 55.3,50.1 L45.8,38.8 L36.5,47.1 L45.7,57.4 C43.9,58.3 42,58.7 38.1,58.7 Z M114.857145,72.7 C131.957145,72.7 145.457145,63.9 145.457145,42 L145.457145,2 L128.957145,2 L128.957145,39 C128.957145,50.4 125.257145,57.7 114.857145,57.7 C104.157145,57.7 99.0571446,49.9 99.0571446,38.6 L99.0571446,2 L82.5571446,2 L82.5571446,41.4 C82.5571446,62.2 96.5571446,72.7 114.857145,72.7 Z M213.114289,72 L213.114289,58.5 L173.314289,58.5 L173.314289,43 L209.614289,43 L209.614289,30 L173.314289,30 L173.314289,15.5 L212.214289,15.5 L212.214289,2 L156.814289,2 L156.814289,72 L213.114289,72 Z M280.271434,72 L280.271434,58.5 L240.471434,58.5 L240.471434,43 L276.771434,43 L276.771434,30 L240.471434,30 L240.471434,15.5 L279.371434,15.5 L279.371434,2 L223.971434,2 L223.971434,72 L280.271434,72 Z M306.128578,72 L306.128578,35.7 C306.128578,33.1 305.928578,29.3 305.628578,26.5 L306.128578,26.6 C307.528578,29.1 311.128578,33.8 312.828578,35.9 L342.328578,72 L356.028578,72 L356.028578,2 L341.028578,2 L341.028578,38.7 C341.028578,41.2 341.328578,45 341.528578,47.5 L341.028578,47.5 C339.628578,44.9 336.728578,40.9 335.128578,39 L304.728578,2 L291.128578,2 L291.128578,72 L306.128578,72 Z M449.942867,72 L449.942867,57 L411.242867,57 L411.242867,2 L394.742867,2 L394.742867,72 L449.942867,72 Z M474.900012,72 L474.900012,46.8 L503.300012,2 L484.800012,2 L472.300012,22 L467.000012,31.5 L461.700012,21.9 L449.500012,2 L430.300012,2 L458.400012,46.8 L458.400012,72 L474.900012,72 Z M521.657156,72 L521.657156,35.7 C521.657156,33.1 521.457156,29.3 521.157156,26.5 L521.657156,26.6 C523.057156,29.1 526.657156,33.8 528.357156,35.9 L557.857156,72 L571.557156,72 L571.557156,2 L556.557156,2 L556.557156,38.7 C556.557156,41.2 556.857156,45 557.057156,47.5 L556.557156,47.5 C555.157156,44.9 552.257156,40.9 550.657156,39 L520.257156,2 L506.657156,2 L506.657156,72 L521.657156,72 Z M617.514301,73.2 C630.614301,73.2 641.514301,67.9 647.214301,60 L638.714301,50.3 C634.114301,56 626.814301,58.2 620.214301,58.2 C606.414301,58.2 597.714301,49.6 597.714301,36.5 C597.714301,24.1 606.214301,15.8 619.014301,15.8 C625.714301,15.8 632.414301,17.7 636.714301,22 L645.114301,12 C640.314301,5.4 629.614301,0.8 617.914301,0.8 C595.714301,0.8 580.714301,17 580.714301,37 C580.714301,59.7 596.414301,73.2 617.514301,73.2 Z M671.071446,72 L671.071446,44.2 L702.071446,44.2 L702.071446,72 L718.571446,72 L718.571446,2 L702.071446,2 L702.071446,29.2 L671.071446,29.2 L671.071446,2 L654.571446,2 L654.571446,72 L671.071446,72 Z M21,172 L21,151.8 L34.5,151.8 C57.5,151.8 65.1,138.8 65.1,127 C65.1,115 59.3,102 35.5,102 L4.5,102 L4.5,172 L21,172 Z M33.3,137.8 L21,137.8 L21,116 L33.9,116 C44.5,116 48.1,121.2 48.1,126.9 C48.1,133.1 44.1,137.8 33.3,137.8 Z M89.9571446,172 L89.9571446,144.2 L120.957145,144.2 L120.957145,172 L137.457145,172 L137.457145,102 L120.957145,102 L120.957145,129.2 L89.9571446,129.2 L89.9571446,102 L73.4571446,102 L73.4571446,172 L89.9571446,172 Z M157.914289,172 L163.614289,159.3 L194.514289,159.3 L200.114289,172 L216.414289,172 L185.714289,102 L172.914289,102 L142.214289,172 L157.914289,172 Z M188.314289,145.8 L169.614289,145.8 L175.514289,132.7 C177.014289,129.2 178.114289,126.3 179.214289,123.1 L179.614289,123.1 C180.714289,126.8 181.714289,129.5 183.014289,132.8 L188.314289,145.8 Z M237.671434,172 L237.671434,147.4 L248.971434,147.4 L266.171434,172 L285.171434,172 L265.671434,145.2 C274.871434,141.7 279.671434,133.6 279.671434,124.7 C279.671434,113.2 273.671434,102 251.371434,102 L221.171434,102 L221.171434,172 L237.671434,172 Z M249.671434,134.9 L237.671434,134.9 L237.671434,116 L249.071434,116 C259.271434,116 262.671434,119.8 262.671434,125.1 C262.671434,130.9 257.571434,134.9 249.671434,134.9 Z M306.528578,172 L306.528578,138.1 C306.528578,134 306.428578,128.5 306.228578,126.5 L306.628578,126.5 C308.928578,130.1 310.028578,131.9 311.928578,134.4 L326.528578,153.8 L330.228578,153.8 L344.628578,134.4 C346.528578,131.8 347.828578,129.6 349.428578,126.8 L349.828578,126.8 C349.650007,128.853571 349.630874,133.697321 349.628824,136.918212 L349.628578,172 L365.128578,172 L365.128578,102 L351.528578,102 L328.928578,134.1 L305.128578,102 L291.028578,102 L291.028578,172 L306.528578,172 Z M385.585723,172 L391.285723,159.3 L422.185723,159.3 L427.785723,172 L444.085723,172 L413.385723,102 L400.585723,102 L369.885723,172 L385.585723,172 Z M415.985723,145.8 L397.285723,145.8 L403.185723,132.7 C404.685723,129.2 405.785723,126.3 406.885723,123.1 L407.285723,123.1 C408.385723,126.8 409.385723,129.5 410.685723,132.8 L415.985723,145.8 Z M477.942867,173.2 C491.042867,173.2 501.942867,167.9 507.642867,160 L499.142867,150.3 C494.542867,156 487.242867,158.2 480.642867,158.2 C466.842867,158.2 458.142867,149.6 458.142867,136.5 C458.142867,124.1 466.642867,115.8 479.442867,115.8 C486.142867,115.8 492.842867,117.7 497.142867,122 L505.542867,112 C500.742867,105.4 490.042867,100.8 478.342867,100.8 C456.142867,100.8 441.142867,117 441.142867,137 C441.142867,159.7 456.842867,173.2 477.942867,173.2 Z M548.200012,172 L548.200012,146.8 L576.600012,102 L558.100012,102 L545.600012,122 L540.300012,131.5 L535.000012,121.9 L522.800012,102 L503.600012,102 L531.700012,146.8 L531.700012,172 L548.200012,172 Z" id="QUEENLYNCHPHARMACY" fill="#093022" fill-rule="nonzero"></path>
    </g>
</svg>