<?xml version="1.0" encoding="UTF-8"?>
<svg width="73px" height="19px" viewBox="0 0 73 19" version="1.1" xmlns="http://www.w3.org/2000/svg" xmlns:xlink="http://www.w3.org/1999/xlink">
    <!-- Generator: Sketch 61.2 (89653) - https://sketch.com -->
    <title>QUEENLYNCHPHARMACY</title>
    <desc>Created with Sketch.</desc>
    <g id="Page-1" stroke="none" stroke-width="1" fill="none" fill-rule="evenodd">
        <path d="M6.32,8.53 L7.35,7.71 L6.76,6.99 C7.39,6.45 7.79,5.5 7.79,4.5 C7.79,2.3 6.25,0.88 4.09,0.88 C1.98,0.88 0.38,2.37 0.38,4.5 C0.38,6.7 1.94,8.12 4.09,8.12 C4.67,8.12 5.27,8.02 5.72,7.76 L6.32,8.53 Z M4.11,6.67 C3.13,6.67 2.08,5.98 2.08,4.5 C2.08,3.14 3,2.38 4.09,2.38 C5.23,2.38 6.14,3.19 6.14,4.5 C6.14,5.03 6.05,5.49 5.83,5.81 L4.88,4.68 L3.95,5.51 L4.87,6.54 C4.69,6.63 4.5,6.67 4.11,6.67 Z M11.7857145,8.07 C13.4957145,8.07 14.8457145,7.19 14.8457145,5 L14.8457145,1 L13.1957145,1 L13.1957145,4.7 C13.1957145,5.84 12.8257145,6.57 11.7857145,6.57 C10.7157145,6.57 10.2057145,5.79 10.2057145,4.66 L10.2057145,1 L8.55571446,1 L8.55571446,4.94 C8.55571446,7.02 9.95571446,8.07 11.7857145,8.07 Z M21.6114289,8 L21.6114289,6.65 L17.6314289,6.65 L17.6314289,5.1 L21.2614289,5.1 L21.2614289,3.8 L17.6314289,3.8 L17.6314289,2.35 L21.5214289,2.35 L21.5214289,1 L15.9814289,1 L15.9814289,8 L21.6114289,8 Z M28.3271434,8 L28.3271434,6.65 L24.3471434,6.65 L24.3471434,5.1 L27.9771434,5.1 L27.9771434,3.8 L24.3471434,3.8 L24.3471434,2.35 L28.2371434,2.35 L28.2371434,1 L22.6971434,1 L22.6971434,8 L28.3271434,8 Z M30.9128578,8 L30.9128578,4.37 C30.9128578,4.11 30.8928578,3.73 30.8628578,3.45 L30.9128578,3.46 C31.0528578,3.71 31.4128578,4.18 31.5828578,4.39 L34.5328578,8 L35.9028578,8 L35.9028578,1 L34.4028578,1 L34.4028578,4.67 C34.4028578,4.92 34.4328578,5.3 34.4528578,5.55 L34.4028578,5.55 C34.2628578,5.29 33.9728578,4.89 33.8128578,4.7 L30.7728578,1 L29.4128578,1 L29.4128578,8 L30.9128578,8 Z M45.2942868,8 L45.2942868,6.5 L41.4242868,6.5 L41.4242868,1 L39.7742868,1 L39.7742868,8 L45.2942868,8 Z M47.7900012,8 L47.7900012,5.48 L50.6300012,1 L48.7800012,1 L47.5300012,3 L47.0000012,3.95 L46.4700012,2.99 L45.2500012,1 L43.3300012,1 L46.1400012,5.48 L46.1400012,8 L47.7900012,8 Z M52.4657157,8 L52.4657157,4.37 C52.4657157,4.11 52.4457157,3.73 52.4157157,3.45 L52.4657157,3.46 C52.6057157,3.71 52.9657157,4.18 53.1357157,4.39 L56.0857157,8 L57.4557157,8 L57.4557157,1 L55.9557157,1 L55.9557157,4.67 C55.9557157,4.92 55.9857157,5.3 56.0057157,5.55 L55.9557157,5.55 C55.8157157,5.29 55.5257157,4.89 55.3657157,4.7 L52.3257157,1 L50.9657157,1 L50.9657157,8 L52.4657157,8 Z M62.0514301,8.12 C63.3614301,8.12 64.4514301,7.59 65.0214301,6.8 L64.1714301,5.83 C63.7114301,6.4 62.9814301,6.62 62.3214301,6.62 C60.9414301,6.62 60.0714301,5.76 60.0714301,4.45 C60.0714301,3.21 60.9214301,2.38 62.2014301,2.38 C62.8714301,2.38 63.5414301,2.57 63.9714301,3 L64.8114301,2 C64.3314301,1.34 63.2614301,0.88 62.0914301,0.88 C59.8714301,0.88 58.3714301,2.5 58.3714301,4.5 C58.3714301,6.77 59.9414301,8.12 62.0514301,8.12 Z M67.4071446,8 L67.4071446,5.22 L70.5071446,5.22 L70.5071446,8 L72.1571446,8 L72.1571446,1 L70.5071446,1 L70.5071446,3.72 L67.4071446,3.72 L67.4071446,1 L65.7571446,1 L65.7571446,8 L67.4071446,8 Z M2.4,18 L2.4,15.98 L3.75,15.98 C6.05,15.98 6.81,14.68 6.81,13.5 C6.81,12.3 6.23,11 3.85,11 L0.75,11 L0.75,18 L2.4,18 Z M3.63,14.58 L2.4,14.58 L2.4,12.4 L3.69,12.4 C4.75,12.4 5.11,12.92 5.11,13.49 C5.11,14.11 4.71,14.58 3.63,14.58 Z M9.29571446,18 L9.29571446,15.22 L12.3957145,15.22 L12.3957145,18 L14.0457145,18 L14.0457145,11 L12.3957145,11 L12.3957145,13.72 L9.29571446,13.72 L9.29571446,11 L7.64571446,11 L7.64571446,18 L9.29571446,18 Z M16.0914289,18 L16.6614289,16.73 L19.7514289,16.73 L20.3114289,18 L21.9414289,18 L18.8714289,11 L17.5914289,11 L14.5214289,18 L16.0914289,18 Z M19.1314289,15.38 L17.2614289,15.38 L17.8514289,14.07 C18.0014289,13.72 18.1114289,13.43 18.2214289,13.11 L18.2614289,13.11 C18.3714289,13.48 18.4714289,13.75 18.6014289,14.08 L19.1314289,15.38 Z M24.0671434,18 L24.0671434,15.54 L25.1971434,15.54 L26.9171434,18 L28.8171434,18 L26.8671434,15.32 C27.7871434,14.97 28.2671434,14.16 28.2671434,13.27 C28.2671434,12.12 27.6671434,11 25.4371434,11 L22.4171434,11 L22.4171434,18 L24.0671434,18 Z M25.2671434,14.29 L24.0671434,14.29 L24.0671434,12.4 L25.2071434,12.4 C26.2271434,12.4 26.5671434,12.78 26.5671434,13.31 C26.5671434,13.89 26.0571434,14.29 25.2671434,14.29 Z M30.9528578,18 L30.9528578,14.61 C30.9528578,14.2 30.9428578,13.65 30.9228578,13.45 L30.9628578,13.45 C31.1928578,13.81 31.3028578,13.99 31.4928578,14.24 L32.9528578,16.18 L33.3228578,16.18 L34.7628578,14.24 C34.9528578,13.98 35.0828578,13.76 35.2428578,13.48 L35.2828578,13.48 C35.265715,13.6771429 35.263266,14.1314286 35.2629161,14.4524198 L35.2628578,18 L36.8128578,18 L36.8128578,11 L35.4528578,11 L33.1928578,14.21 L30.8128578,11 L29.4028578,11 L29.4028578,18 L30.9528578,18 Z M38.8585723,18 L39.4285723,16.73 L42.5185723,16.73 L43.0785723,18 L44.7085723,18 L41.6385723,11 L40.3585723,11 L37.2885723,18 L38.8585723,18 Z M41.8985723,15.38 L40.0285723,15.38 L40.6185723,14.07 C40.7685723,13.72 40.8785723,13.43 40.9885723,13.11 L41.0285723,13.11 C41.1385723,13.48 41.2385723,13.75 41.3685723,14.08 L41.8985723,15.38 Z M48.0942868,18.12 C49.4042868,18.12 50.4942868,17.59 51.0642868,16.8 L50.2142868,15.83 C49.7542868,16.4 49.0242868,16.62 48.3642868,16.62 C46.9842868,16.62 46.1142868,15.76 46.1142868,14.45 C46.1142868,13.21 46.9642868,12.38 48.2442868,12.38 C48.9142868,12.38 49.5842868,12.57 50.0142868,13 L50.8542868,12 C50.3742868,11.34 49.3042868,10.88 48.1342868,10.88 C45.9142868,10.88 44.4142868,12.5 44.4142868,14.5 C44.4142868,16.77 45.9842868,18.12 48.0942868,18.12 Z M55.1200012,18 L55.1200012,15.48 L57.9600012,11 L56.1100012,11 L54.8600012,13 L54.3300012,13.95 L53.8000012,12.99 L52.5800012,11 L50.6600012,11 L53.4700012,15.48 L53.4700012,18 L55.1200012,18 Z" id="QUEENLYNCHPHARMACY" fill="#FFFFFF" fill-rule="nonzero"></path>
    </g>
</svg>