<?xml version="1.0" encoding="UTF-8"?>
<svg width="19px" height="14px" viewBox="0 0 19 14" version="1.1" xmlns="http://www.w3.org/2000/svg" xmlns:xlink="http://www.w3.org/1999/xlink">
    <!-- Generator: Sketch 64 (93537) - https://sketch.com -->
    <title>mail</title>
    <desc>Created with Sketch.</desc>
    <g id="Page-1" stroke="none" stroke-width="1" fill="none" fill-rule="evenodd">
        <g id="mail" fill="#0B5439">
            <path d="M2.03797,1.59494 C1.79329,1.59494 1.59494,1.79329 1.59494,2.03797 L1.59494,11.962 C1.59494,12.2067 1.79329,12.4051 2.03797,12.4051 L16.9241,12.4051 C17.1687,12.4051 17.3671,12.2067 17.3671,11.962 L17.3671,2.03797 C17.3671,1.79329 17.1687,1.59494 16.9241,1.59494 L2.03797,1.59494 Z M0,2.03797 C0,0.912432 0.912432,0 2.03797,0 L16.9241,0 C18.0496,0 18.962,0.912432 18.962,2.03797 L18.962,11.962 C18.962,13.0876 18.0496,14 16.9241,14 L2.03797,14 C0.912432,14 0,13.0876 0,11.962 L0,2.03797 Z" id="Shape"></path>
            <path d="M0.445666,0.766391 C0.714184,0.417283 1.21487,0.351952 1.56398,0.620471 L8.2991,5.80083 L8.29915,5.80086 C8.63798,6.06152 9.05348,6.20285 9.48097,6.20285 C9.90846,6.20285 10.324,6.06152 10.6628,5.80086 L10.6628,5.80083 L17.398,0.620471 C17.7471,0.351953 18.2478,0.417283 18.5163,0.766391 C18.7848,1.1155 18.7195,1.61618 18.3704,1.8847 L11.6353,7.06502 C11.6353,7.06503 11.6353,7.06504 11.6352,7.06506 C11.0176,7.54017 10.2602,7.79778 9.48097,7.79778 C8.70173,7.79778 7.94435,7.54017 7.32671,7.06506 C7.32669,7.06504 7.32668,7.06503 7.32666,7.06502 L0.591587,1.8847 C0.242479,1.61618 0.177148,1.1155 0.445666,0.766391 Z" id="Path"></path>
        </g>
    </g>
</svg>