<?xml version="1.0" encoding="UTF-8"?>
<svg width="43px" height="42px" viewBox="0 0 43 42" version="1.1" xmlns="http://www.w3.org/2000/svg" xmlns:xlink="http://www.w3.org/1999/xlink">
    <!-- Generator: Sketch 64 (93537) - https://sketch.com -->
    <title>medical-icon</title>
    <desc>Created with Sketch.</desc>
    <g id="Page-1" stroke="none" stroke-width="1" fill="none" fill-rule="evenodd">
        <g id="medical-icon">
            <circle id="Oval" fill="#0B5439" fill-rule="nonzero" cx="21.2323" cy="21" r="21"></circle>
            <path d="M21.2035,15.7716 C22.5212,15.7716 23.5893,14.7034 23.5893,13.3858 C23.5893,12.0681 22.5212,11 21.2035,11 C19.8859,11 18.8177,12.0681 18.8177,13.3858 C18.8177,14.7034 19.8859,15.7716 21.2035,15.7716 Z" id="Path" stroke="#FFFFFF" stroke-width="1.6" stroke-linecap="round" stroke-linejoin="round"></path>
            <path d="M24.0453,21.5555 C24.3165,21.5511 24.5847,21.6126 24.8269,21.7346 C25.0691,21.8566 25.2781,22.0355 25.4361,22.256 C25.594,22.4765 25.6961,22.732 25.7336,23.0006 C25.7711,23.2692 25.743,23.5429 25.6515,23.7982" id="Path" stroke="#FFFFFF" stroke-width="1.6" stroke-linecap="round" stroke-linejoin="round"></path>
            <line x1="21.2035" y1="15.7715" x2="21.2035" y2="30.9999" id="Path" stroke="#FFFFFF" stroke-width="1.6" stroke-linecap="round" stroke-linejoin="round"></line>
            <path d="M23.3911,14.3334 L30.4036,14.3334 C32.7831,14.3334 29.3369,20.0694 24.384,18.1556" id="Path" stroke="#FFFFFF" stroke-width="1.6" stroke-linecap="round" stroke-linejoin="round"></path>
            <path d="M19.0133,14.3334 L12.0026,14.3334 C9.62397,14.3334 13.0693,20.0694 18.0222,18.1556" id="Path" stroke="#FFFFFF" stroke-width="1.6" stroke-linecap="round" stroke-linejoin="round"></path>
            <path d="M18.3609,21.5554143 C17.9139,21.551 17.4833,21.7239 17.1636,22.0363 C16.8439,22.3487 16.661,22.7752 16.6552,23.2222 C16.6575,23.6776 16.8367,24.1143 17.155,24.44 C17.4733,24.7657 17.9057,24.955 18.3609,24.968 L22.9085,24.968 C23.3609,24.968 23.7948,25.1477 24.1147,25.4676 C24.4345,25.7875 24.6143,26.2213 24.6143,26.6737 C24.6143,27.1261 24.4345,27.56 24.1147,27.8799 C23.7948,28.1998 23.3609,28.3795 22.9085,28.3795 L19.7823,28.3795 C19.3962,28.3884 19.0295,28.5502 18.7628,28.8294 C18.4961,29.1086 18.3512,29.4824 18.36,29.8684 C18.3589,30.0756 18.4002,30.2808 18.4814,30.4714 C18.5626,30.6621 18.6819,30.8341 18.832,30.9768" id="Path" stroke="#FFFFFF" stroke-width="1.6" stroke-linecap="round" stroke-linejoin="round"></path>
        </g>
    </g>
</svg>