<?xml version="1.0" encoding="UTF-8"?>
<svg width="151px" height="216px" viewBox="0 0 151 216" version="1.1" xmlns="http://www.w3.org/2000/svg" xmlns:xlink="http://www.w3.org/1999/xlink">
    <!-- Generator: Sketch 64 (93537) - https://sketch.com -->
    <title>object-1-hero</title>
    <desc>Created with Sketch.</desc>
    <defs>
        <rect id="path-1" x="0.5" y="0" width="93" height="219"></rect>
    </defs>
    <g id="Page-1" stroke="none" stroke-width="1" fill="none" fill-rule="evenodd">
        <g id="object-1-hero" transform="translate(-1.000000, 0.000000)">
            <g id="Clipped">
                <mask id="mask-2" fill="white">
                    <use xlink:href="#path-1"></use>
                </mask>
                <g id="Rectangle"></g>
                <g id="Group" mask="url(#mask-2)" fill="#98C5B5" fill-rule="nonzero">
                    <g transform="translate(1.000000, 0.000000)" id="Oval">
                        <circle cx="5.19048" cy="4.69048" r="4.69048"></circle>
                        <circle cx="5.19048" cy="117.262" r="4.69048"></circle>
                        <circle cx="5.19048" cy="42.2144" r="4.69048"></circle>
                        <circle cx="5.19048" cy="154.786" r="4.69048"></circle>
                        <circle cx="5.19048" cy="79.7381" r="4.69048"></circle>
                        <circle cx="5.19048" cy="192.31" r="4.69048"></circle>
                        <circle cx="5.19048" cy="210.69" r="4.69048"></circle>
                        <circle cx="5.19048" cy="23.4524" r="4.69048"></circle>
                        <circle cx="5.19048" cy="136.024" r="4.69048"></circle>
                        <circle cx="5.19048" cy="60.9761" r="4.69048"></circle>
                        <circle cx="5.19048" cy="173.548" r="4.69048"></circle>
                        <circle cx="5.19048" cy="98.5" r="4.69048"></circle>
                        <circle cx="80.2381" cy="4.69048" r="4.69048"></circle>
                        <circle cx="80.2381" cy="117.262" r="4.69048"></circle>
                        <circle cx="80.2381" cy="42.2144" r="4.69048"></circle>
                        <circle cx="80.2381" cy="154.786" r="4.69048"></circle>
                        <circle cx="80.2381" cy="79.7381" r="4.69048"></circle>
                        <circle cx="80.2383" cy="192.31" r="4.69048"></circle>
                        <circle cx="80.2383" cy="210.69" r="4.69048"></circle>
                        <circle cx="80.2381" cy="23.4524" r="4.69048"></circle>
                        <circle cx="80.2381" cy="136.024" r="4.69048"></circle>
                        <circle cx="80.2381" cy="60.9761" r="4.69048"></circle>
                        <circle cx="80.2381" cy="173.548" r="4.69048"></circle>
                        <circle cx="80.2381" cy="98.5" r="4.69048"></circle>
                        <circle cx="61.4762" cy="4.69048" r="4.69048"></circle>
                        <circle cx="61.4762" cy="117.262" r="4.69048"></circle>
                        <circle cx="61.4762" cy="42.2144" r="4.69048"></circle>
                        <circle cx="61.4762" cy="154.786" r="4.69048"></circle>
                        <circle cx="61.4762" cy="79.7381" r="4.69048"></circle>
                        <circle cx="61.4761" cy="192.31" r="4.69048"></circle>
                        <circle cx="61.4761" cy="210.69" r="4.69048"></circle>
                        <circle cx="61.4762" cy="23.4524" r="4.69048"></circle>
                        <circle cx="61.4762" cy="136.024" r="4.69048"></circle>
                        <circle cx="61.4762" cy="60.9761" r="4.69048"></circle>
                        <circle cx="61.4762" cy="173.548" r="4.69048"></circle>
                        <circle cx="61.4762" cy="98.5" r="4.69048"></circle>
                        <circle cx="23.9524" cy="4.69048" r="4.69048"></circle>
                        <circle cx="23.9524" cy="117.262" r="4.69048"></circle>
                        <circle cx="23.9524" cy="42.2144" r="4.69048"></circle>
                        <circle cx="23.9524" cy="154.786" r="4.69048"></circle>
                        <circle cx="23.9524" cy="79.7381" r="4.69048"></circle>
                        <circle cx="23.9522" cy="192.31" r="4.69048"></circle>
                        <circle cx="23.9522" cy="210.69" r="4.69048"></circle>
                        <circle cx="23.9524" cy="23.4524" r="4.69048"></circle>
                        <circle cx="23.9524" cy="136.024" r="4.69048"></circle>
                        <circle cx="23.9524" cy="60.9761" r="4.69048"></circle>
                        <circle cx="23.9524" cy="173.548" r="4.69048"></circle>
                        <circle cx="23.9524" cy="98.5" r="4.69048"></circle>
                        <circle cx="42.7143" cy="4.69048" r="4.69048"></circle>
                        <circle cx="42.7143" cy="117.262" r="4.69048"></circle>
                        <circle cx="42.7143" cy="42.2144" r="4.69048"></circle>
                        <circle cx="42.7143" cy="154.786" r="4.69048"></circle>
                        <circle cx="42.7143" cy="79.7381" r="4.69048"></circle>
                        <circle cx="42.7144" cy="192.31" r="4.69048"></circle>
                        <circle cx="42.7144" cy="210.69" r="4.69048"></circle>
                        <circle cx="42.7143" cy="23.4524" r="4.69048"></circle>
                        <circle cx="42.7143" cy="136.024" r="4.69048"></circle>
                        <circle cx="42.7143" cy="60.9761" r="4.69048"></circle>
                        <circle cx="42.7143" cy="173.548" r="4.69048"></circle>
                        <circle cx="42.7143" cy="98.5" r="4.69048"></circle>
                    </g>
                </g>
            </g>
            <rect id="Rectangle" fill="#0B5439" fill-rule="nonzero" x="36.5" y="19" width="115" height="107"></rect>
        </g>
    </g>
</svg>