<?xml version="1.0" encoding="UTF-8"?>
<svg width="590px" height="569px" viewBox="0 0 590 569" version="1.1" xmlns="http://www.w3.org/2000/svg" xmlns:xlink="http://www.w3.org/1999/xlink">
    <!-- Generator: Sketch 61.2 (89653) - https://sketch.com -->
    <title>Artboard</title>
    <desc>Created with Sketch.</desc>
    <defs>
        <rect id="path-1" x="47.7" y="45.9" width="495" height="477" rx="54.9"></rect>
        <filter x="-10.4%" y="-9.3%" width="120.8%" height="121.6%" filterUnits="objectBoundingBox" id="filter-2">
            <feMorphology radius="1.5" operator="dilate" in="SourceAlpha" result="shadowSpreadOuter1"></feMorphology>
            <feOffset dx="0" dy="7" in="shadowSpreadOuter1" result="shadowOffsetOuter1"></feOffset>
            <feGaussianBlur stdDeviation="14.5" in="shadowOffsetOuter1" result="shadowBlurOuter1"></feGaussianBlur>
            <feColorMatrix values="0 0 0 0 0.609290082   0 0 0 0 0.606712673   0 0 0 0 0.606712673  0 0 0 1 0" type="matrix" in="shadowBlurOuter1"></feColorMatrix>
        </filter>
    </defs>
    <g id="Artboard" stroke="none" stroke-width="1" fill="none" fill-rule="evenodd">
        <g id="Rectangle">
            <use fill="black" fill-opacity="1" filter="url(#filter-2)" xlink:href="#path-1"></use>
            <use fill="#CAD5E3" fill-rule="evenodd" xlink:href="#path-1"></use>
        </g>
        <g id="d" transform="translate(160.200000, 107.100000)" fill="#045538" fill-rule="nonzero" stroke="#045538">
            <g id="Group" stroke-width="1.8">
                <path d="M269.271835,354.641386 L0.296164949,354.641386 L0.296164949,212.504052 L269.271835,212.504052 L269.271835,354.641386 Z M5.52915463,349.402961 L264.038846,349.402961 L264.038846,217.742477 L5.52915463,217.742477 L5.52915463,349.402961 Z" id="Shape"></path>
                <path d="M69.2585963,186.529845 C68.6850606,186.529845 68.1157113,186.345452 67.6300899,185.964095 C66.4955778,185.067276 66.3113765,183.416125 67.2072643,182.284625 C68.5552825,180.574803 70.8326796,179.351106 73.1435678,179.082899 L113.295251,173.894763 C114.701879,173.685226 116.037338,174.720339 116.225726,176.157762 C116.409927,177.590996 115.39682,178.906888 113.965074,179.091281 L73.775713,184.283608 C72.8044701,184.396757 71.7997361,184.912219 71.3015555,185.540829 C70.7908157,186.190394 70.024706,186.529845 69.2585963,186.529845 Z" id="Path"></path>
                <path d="M200.309404,186.529845 C199.539108,186.529845 198.777184,186.190394 198.262258,185.536639 C197.764078,184.908028 196.76353,184.392567 195.825778,184.287798 L155.607113,179.08709 C154.17118,178.902698 153.16226,177.590996 153.346461,176.153572 C153.534848,174.716148 154.853562,173.685226 156.276935,173.890572 L196.46211,179.082899 C198.735321,179.342725 201.008531,180.570612 202.360736,182.280434 C203.26081,183.411933 203.072422,185.063085 201.93791,185.959904 C201.456475,186.345452 200.882939,186.529845 200.309404,186.529845 Z" id="Path"></path>
                <path d="M134.913778,199.437324 C134.294192,199.437324 133.67042,199.219405 133.176425,198.775187 L111.89281,179.849804 C111.331833,179.351106 111.013668,178.638681 111.013668,177.892729 L111.013668,171.820346 C111.013668,170.374541 112.185858,169.201134 113.630162,169.201134 C115.074468,169.201134 116.246658,170.374541 116.246658,171.820346 L116.246658,176.715131 L134.884473,193.289508 L152.877586,176.744466 L152.877586,171.820346 C152.877586,170.374541 154.049774,169.201134 155.49408,169.201134 C156.938386,169.201134 158.110574,170.374541 158.110574,171.820346 L158.110574,177.892729 C158.110574,178.626109 157.804969,179.325962 157.264924,179.82047 L136.684622,198.745852 C136.186441,199.206833 135.55011,199.437324 134.913778,199.437324 Z" id="Path"></path>
                <path d="M120.67586,136.534315 C119.541348,136.534315 118.49475,136.11524 117.703522,135.319 C116.908107,134.522759 116.489468,133.433167 116.489468,132.343574 C116.489468,131.253981 116.908107,130.164389 117.703522,129.368148 C119.252487,127.817575 122.057369,127.817575 123.606334,129.410056 C124.397562,130.164389 124.862252,131.253981 124.862252,132.343574 C124.862252,133.433167 124.401749,134.522759 123.648198,135.319 C122.848597,136.11524 121.764322,136.534315 120.67586,136.534315 Z" id="Path"></path>
                <path d="M151.403975,136.534315 C150.27365,136.534315 149.185188,136.073333 148.431637,135.319 C147.636222,134.522759 147.217584,133.475074 147.217584,132.343574 C147.217584,131.212075 147.636222,130.164389 148.431637,129.368148 C149.938738,127.817575 152.785484,127.817575 154.33445,129.410056 C155.125678,130.164389 155.548503,131.212075 155.548503,132.343574 C155.548503,133.475074 155.125678,134.522759 154.33445,135.319 C153.580899,136.073333 152.488251,136.534315 151.403975,136.534315 Z" id="Path"></path>
                <path d="M187.310658,123.798655 C185.866352,123.798655 184.694162,122.625247 184.694162,121.179442 L184.694162,92.3010516 C184.694162,88.2150803 181.131543,84.5146568 177.799175,81.3674109 C175.806453,79.5025315 169.539424,77.3945892 165.863772,78.4213205 C164.42784,78.8236316 164.055251,79.5612019 163.891982,80.1604777 C163.544512,81.4176998 162.33883,82.2390848 161.015931,82.0546923 C159.718149,81.8786812 158.751093,80.7681351 158.751093,79.4606242 C158.751093,76.2966153 153.413443,73.5852065 149.04285,73.5852065 L103.733532,76.9755152 C98.400069,76.9838967 93.5857188,78.6266668 90.6719904,81.3716016 C86.8414416,84.9714475 84.8989559,88.6509173 84.8989559,92.3052429 L84.8989559,121.183633 C84.8989559,122.629439 83.7267662,123.802845 82.282461,123.802845 C80.8381559,123.802845 79.6659662,122.629439 79.6659662,121.183633 L79.6659662,92.3052429 C79.6659662,87.1464415 82.1652421,82.1846052 87.0842524,77.5538374 C91.0069011,73.8617953 97.0018146,71.7454715 103.536772,71.7454715 L148.84609,68.3551627 C148.850276,68.3551627 148.858649,68.3551627 148.862836,68.3551627 C154.016284,68.3551627 159.479525,70.6558791 162.209052,74.3353489 C162.874688,73.9330378 163.624053,73.6145416 164.444585,73.3798602 C169.878522,71.8670029 177.991749,74.3772563 181.37854,77.5496466 C184.367624,80.3700148 189.922988,85.6126307 189.922988,92.3010516 L189.922988,121.179442 C189.927152,122.625247 188.754962,123.798655 187.310658,123.798655 Z" id="Path"></path>
                <path d="M135.998053,158.430932 C131.920508,158.430932 128.504412,157.073132 125.829308,154.395249 C124.807828,153.372708 124.812014,151.713176 125.833495,150.690634 C126.854974,149.672285 128.512786,149.668094 129.534265,150.694826 C130.605981,151.767655 132.435434,153.192506 135.998053,153.192506 C139.564859,153.192506 141.390126,151.767655 142.45347,150.694826 C143.474949,149.672285 145.141133,149.663903 146.15424,150.686444 C147.179906,151.704794 147.184092,153.364327 146.166799,154.391058 C143.500068,157.068941 140.079785,158.430932 135.998053,158.430932 Z" id="Path"></path>
                <path d="M157.587276,172.830315 L113.123609,172.830315 C107.894806,172.830315 101.828724,170.269772 98.019108,166.456199 C93.76992,162.202598 91.2329667,156.704347 91.2329667,151.755082 L91.2329667,106.679481 C91.2329667,105.862287 91.6181145,105.095381 92.2628187,104.600875 C92.9075229,104.102176 93.7531746,103.934547 94.5402165,104.152465 C94.58208,104.165037 98.6303205,105.242058 105.475072,105.242058 C113.56318,105.242058 121.998759,103.808824 130.547372,100.984266 L152.940381,93.5834184 C154.053961,93.2146335 155.288947,93.6378981 155.937838,94.6185309 C156.029938,94.7568258 165.533047,108.858667 175.555269,108.259391 C176.25021,108.196529 176.999575,108.456355 177.52706,108.950863 C178.062918,109.44537 178.364338,110.141032 178.364338,110.870221 L178.364338,151.755082 C178.364338,156.980936 175.982281,162.613291 172.14336,166.456199 C168.145356,170.445784 162.707233,172.830315 157.587276,172.830315 Z M96.4659564,109.851872 L96.4659564,151.755082 C96.4659564,155.98354 99.1787382,160.211996 101.724064,162.755776 C104.570811,165.605479 109.25957,167.59189 113.127796,167.59189 L157.591463,167.59189 C161.300606,167.59189 165.457692,165.739583 168.44259,162.751585 C171.3312,159.855783 173.131349,155.644089 173.131349,151.755082 L173.131349,113.426573 C163.678476,112.39146 155.690841,103.025156 152.764553,99.1571031 L132.19681,105.954484 C123.11234,108.955053 114.128343,110.480483 105.479258,110.480483 C101.623591,110.480483 98.5717116,110.166178 96.4659564,109.851872 Z" id="Shape"></path>
                <path d="M87.8126846,141.462625 C82.5210853,141.462625 78.2174747,137.154544 78.2174747,131.857448 C78.2174747,126.560353 82.5210853,122.252272 87.8126846,122.252272 C89.2569897,122.252272 90.4291794,123.425679 90.4291794,124.871485 C90.4291794,126.31729 89.2569897,127.490697 87.8126846,127.490697 C85.4096957,127.490697 83.4504643,129.447773 83.4504643,131.857448 C83.4504643,134.267124 85.4096957,136.2242 87.8126846,136.2242 C89.2569897,136.2242 90.4291794,137.397607 90.4291794,138.843412 C90.4291794,140.289217 89.2569897,141.462625 87.8126846,141.462625 Z" id="Path"></path>
                <path d="M181.311558,141.462625 C179.867253,141.462625 178.695063,140.289217 178.695063,138.843412 C178.695063,137.397607 179.867253,136.2242 181.311558,136.2242 C183.714547,136.2242 185.673778,134.267124 185.673778,131.857448 C185.673778,129.451964 183.714547,127.490697 181.311558,127.490697 C179.867253,127.490697 178.695063,126.31729 178.695063,124.871485 C178.695063,123.425679 179.867253,122.252272 181.311558,122.252272 C186.603157,122.252272 190.906768,126.560353 190.906768,131.857448 C190.906768,137.154544 186.603157,141.462625 181.311558,141.462625 Z" id="Path"></path>
                <path d="M127.227563,123.798655 L114.086479,123.798655 C112.642174,123.798655 111.469984,122.625247 111.469984,121.179442 C111.469984,119.733637 112.642174,118.56023 114.086479,118.56023 L127.227563,118.56023 C128.671868,118.56023 129.844058,119.733637 129.844058,121.179442 C129.844058,122.625247 128.671868,123.798655 127.227563,123.798655 Z" id="Path"></path>
                <path d="M157.951492,123.798655 L144.810409,123.798655 C143.366103,123.798655 142.193913,122.625247 142.193913,121.179442 C142.193913,119.733637 143.366103,118.56023 144.810409,118.56023 L157.951492,118.56023 C159.395797,118.56023 160.567987,119.733637 160.567987,121.179442 C160.567987,122.625247 159.395797,123.798655 157.951492,123.798655 Z" id="Path"></path>
                <path d="M58.6837707,216.845659 C58.3990961,216.845659 58.1060487,216.799561 57.821374,216.698983 C56.4566103,216.221238 55.7365509,214.729335 56.2137996,213.363154 L66.7844388,183.022195 C67.2616874,181.656014 68.7478565,180.939397 70.1168066,181.41295 C71.4815703,181.890695 72.2016297,183.382599 71.724381,184.74878 L61.1537419,215.089738 C60.7769666,216.17095 59.7680462,216.845659 58.6837707,216.845659 Z" id="Path"></path>
                <path d="M210.884229,216.870803 C209.799954,216.870803 208.791033,216.196094 208.414258,215.114883 L197.843619,184.773924 C197.36637,183.407743 198.08643,181.911649 199.451193,181.438095 C200.815957,180.972923 202.310499,181.685349 202.783561,183.04734 L213.354201,213.388298 C213.831449,214.754479 213.11139,216.250574 211.746626,216.724127 C211.457765,216.820515 211.168904,216.870803 210.884229,216.870803 Z" id="Path"></path>
                <rect id="Rectangle" x="132.167506" y="196.818112" width="5.23298969" height="18.3093438"></rect>
                <path d="M240.842048,216.845659 C239.397744,216.845659 238.225554,215.672251 238.225554,214.226446 L238.225554,5.58625663 L31.3466326,5.58625663 L31.3466326,214.226446 C31.3466326,215.672251 30.1744429,216.845659 28.7301378,216.845659 C27.2858326,216.845659 26.1136429,215.672251 26.1136429,214.226446 L26.1136429,2.96704403 C26.1136429,1.52123868 27.2858326,0.347831433 28.7301378,0.347831433 L240.842048,0.347831433 C242.286354,0.347831433 243.458544,1.52123868 243.458544,2.96704403 L243.458544,214.226446 C243.458544,215.672251 242.286354,216.845659 240.842048,216.845659 Z" id="Path"></path>
                <path d="M240.842048,162.810255 L173.524869,162.810255 C172.080564,162.810255 170.908375,161.636848 170.908375,160.191042 C170.908375,158.745237 172.080564,157.57183 173.524869,157.57183 L240.842048,157.57183 C242.286354,157.57183 243.458544,158.745237 243.458544,160.191042 C243.458544,161.636848 242.286354,162.810255 240.842048,162.810255 Z" id="Path"></path>
                <path d="M96.4408383,162.810255 L28.7301378,162.810255 C27.2858326,162.810255 26.1136429,161.636848 26.1136429,160.191042 C26.1136429,158.745237 27.2858326,157.57183 28.7301378,157.57183 L96.4408383,157.57183 C97.885143,157.57183 99.0573327,158.745237 99.0573327,160.191042 C99.0573327,161.636848 97.885143,162.810255 96.4408383,162.810255 Z" id="Path"></path>
                <path d="M240.842048,110.400859 L187.310658,110.400859 C185.866352,110.400859 184.694162,109.227452 184.694162,107.781647 C184.694162,106.335841 185.866352,105.162433 187.310658,105.162433 L240.842048,105.162433 C242.286354,105.162433 243.458544,106.335841 243.458544,107.781647 C243.458544,109.227452 242.286354,110.400859 240.842048,110.400859 Z" id="Path"></path>
                <path d="M82.2866474,110.400859 L28.7301378,110.400859 C27.2858326,110.400859 26.1136429,109.227452 26.1136429,107.781647 C26.1136429,106.335841 27.2858326,105.162433 28.7301378,105.162433 L82.2866474,105.162433 C83.7309526,105.162433 84.9031422,106.335841 84.9031422,107.781647 C84.9031422,109.227452 83.7309526,110.400859 82.2866474,110.400859 Z" id="Path"></path>
                <path d="M240.842048,57.9914623 L28.7301378,57.9914623 C27.2858326,57.9914623 26.1136429,56.8180551 26.1136429,55.3722497 C26.1136429,53.9264444 27.2858326,52.7530371 28.7301378,52.7530371 L240.842048,52.7530371 C242.286354,52.7530371 243.458544,53.9264444 243.458544,55.3722497 C243.458544,56.8180551 242.286354,57.9914623 240.842048,57.9914623 Z" id="Path"></path>
                <g id="Path" transform="translate(53.847093, 20.132788)">
                    <path d="M28.8749394,37.8586749 C27.4306343,37.8586749 26.2584446,36.6852677 26.2584446,35.2394623 L26.2584446,2.91628346 C26.2584446,1.47047811 27.4306343,0.297070866 28.8749394,0.297070866 C30.3192446,0.297070866 31.4914343,1.47047811 31.4914343,2.91628346 L31.4914343,35.2394623 C31.4914343,36.6852677 30.3192446,37.8586749 28.8749394,37.8586749 Z"></path>
                    <path d="M7.40293609,37.8586749 C5.95863093,37.8586749 4.78644124,36.6852677 4.78644124,35.2394623 L4.78644124,2.91628346 C4.78644124,1.47047811 5.95863093,0.297070866 7.40293609,0.297070866 C8.84724124,0.297070866 10.0194309,1.47047811 10.0194309,2.91628346 L10.0194309,35.2394623 C10.0194309,36.6852677 8.84305484,37.8586749 7.40293609,37.8586749 Z"></path>
                    <path d="M33.2873963,5.53549606 L2.99466557,5.53549606 C1.55036041,5.53549606 0.378170722,4.36208881 0.378170722,2.91628346 C0.378170722,1.47047811 1.55036041,0.297070866 2.99466557,0.297070866 L33.2873963,0.297070866 C34.7317015,0.297070866 35.9038912,1.47047811 35.9038912,2.91628346 C35.9038912,4.36208881 34.7317015,5.53549606 33.2873963,5.53549606 Z"></path>
                </g>
                <g id="Path" transform="translate(95.711010, 20.132788)">
                    <path d="M28.8749394,37.8586749 C27.4306343,37.8586749 26.2584446,36.6852677 26.2584446,35.2394623 L26.2584446,2.91628346 C26.2584446,1.47047811 27.4306343,0.297070866 28.8749394,0.297070866 C30.3192446,0.297070866 31.4914343,1.47047811 31.4914343,2.91628346 L31.4914343,35.2394623 C31.4914343,36.6852677 30.3192446,37.8586749 28.8749394,37.8586749 Z"></path>
                    <path d="M7.40293609,37.8586749 C5.95863093,37.8586749 4.78644124,36.6852677 4.78644124,35.2394623 L4.78644124,2.91628346 C4.78644124,1.47047811 5.95863093,0.297070866 7.40293609,0.297070866 C8.84724124,0.297070866 10.0194309,1.47047811 10.0194309,2.91628346 L10.0194309,35.2394623 C10.0194309,36.6852677 8.84305484,37.8586749 7.40293609,37.8586749 Z"></path>
                    <path d="M33.2873963,5.53549606 L2.99466557,5.53549606 C1.55036041,5.53549606 0.378170722,4.36208881 0.378170722,2.91628346 C0.378170722,1.47047811 1.55036041,0.297070866 2.99466557,0.297070866 L33.2873963,0.297070866 C34.7317015,0.297070866 35.9038912,1.47047811 35.9038912,2.91628346 C35.9038912,4.36208881 34.7317015,5.53549606 33.2873963,5.53549606 Z"></path>
                </g>
                <g id="Path" transform="translate(179.438846, 20.132788)">
                    <path d="M28.8749394,37.8586749 C27.4306343,37.8586749 26.2584446,36.6852677 26.2584446,35.2394623 L26.2584446,2.91628346 C26.2584446,1.47047811 27.4306343,0.297070866 28.8749394,0.297070866 C30.3192446,0.297070866 31.4914343,1.47047811 31.4914343,2.91628346 L31.4914343,35.2394623 C31.4914343,36.6852677 30.3192446,37.8586749 28.8749394,37.8586749 Z"></path>
                    <path d="M7.40293609,37.8586749 C5.95863093,37.8586749 4.78644124,36.6852677 4.78644124,35.2394623 L4.78644124,2.91628346 C4.78644124,1.47047811 5.95863093,0.297070866 7.40293609,0.297070866 C8.84724124,0.297070866 10.0194309,1.47047811 10.0194309,2.91628346 L10.0194309,35.2394623 C10.0194309,36.6852677 8.84305484,37.8586749 7.40293609,37.8586749 Z"></path>
                    <path d="M33.2873963,5.53549606 L2.99466557,5.53549606 C1.55036041,5.53549606 0.378170722,4.36208881 0.378170722,2.91628346 C0.378170722,1.47047811 1.55036041,0.297070866 2.99466557,0.297070866 L33.2873963,0.297070866 C34.7317015,0.297070866 35.9038912,1.47047811 35.9038912,2.91628346 C35.9038912,4.36208881 34.7317015,5.53549606 33.2873963,5.53549606 Z"></path>
                </g>
                <g id="Path" transform="translate(179.438846, 72.639496)">
                    <path d="M28.8749394,37.7613626 C27.4306343,37.7613626 26.2584446,36.5879554 26.2584446,35.1421501 L26.2584446,2.81897122 C26.2584446,1.37316586 27.4306343,0.199758614 28.8749394,0.199758614 C30.3192446,0.199758614 31.4914343,1.37316586 31.4914343,2.81897122 L31.4914343,35.1421501 C31.4914343,36.5879554 30.3192446,37.7613626 28.8749394,37.7613626 Z"></path>
                    <path d="M7.40293609,19.3262967 C5.95863093,19.3262967 4.78644124,18.1528895 4.78644124,16.7070841 L4.78644124,2.81897122 C4.78644124,1.37316586 5.95863093,0.199758614 7.40293609,0.199758614 C8.84724124,0.199758614 10.0194309,1.37316586 10.0194309,2.81897122 L10.0194309,16.7070841 C10.0194309,18.1570801 8.84305484,19.3262967 7.40293609,19.3262967 Z"></path>
                    <path d="M33.2873963,5.43818381 L2.99466557,5.43818381 C1.55036041,5.43818381 0.378170722,4.26477657 0.378170722,2.81897122 C0.378170722,1.37316586 1.55036041,0.199758614 2.99466557,0.199758614 L33.2873963,0.199758614 C34.7317015,0.199758614 35.9038912,1.37316586 35.9038912,2.81897122 C35.9038912,4.26477657 34.7317015,5.43818381 33.2873963,5.43818381 Z"></path>
                </g>
                <g id="Path" transform="translate(137.574928, 20.132788)">
                    <path d="M28.8749394,37.8586749 C27.4306343,37.8586749 26.2584446,36.6852677 26.2584446,35.2394623 L26.2584446,2.91628346 C26.2584446,1.47047811 27.4306343,0.297070866 28.8749394,0.297070866 C30.3192446,0.297070866 31.4914343,1.47047811 31.4914343,2.91628346 L31.4914343,35.2394623 C31.4914343,36.6852677 30.3192446,37.8586749 28.8749394,37.8586749 Z"></path>
                    <path d="M7.40293609,37.8586749 C5.95863093,37.8586749 4.78644124,36.6852677 4.78644124,35.2394623 L4.78644124,2.91628346 C4.78644124,1.47047811 5.95863093,0.297070866 7.40293609,0.297070866 C8.84724124,0.297070866 10.0194309,1.47047811 10.0194309,2.91628346 L10.0194309,35.2394623 C10.0194309,36.6852677 8.84305484,37.8586749 7.40293609,37.8586749 Z"></path>
                    <path d="M33.2873963,5.53549606 L2.99466557,5.53549606 C1.55036041,5.53549606 0.378170722,4.36208881 0.378170722,2.91628346 C0.378170722,1.47047811 1.55036041,0.297070866 2.99466557,0.297070866 L33.2873963,0.297070866 C34.7317015,0.297070866 35.9038912,1.47047811 35.9038912,2.91628346 C35.9038912,4.36208881 34.7317015,5.53549606 33.2873963,5.53549606 Z"></path>
                </g>
                <g id="Path" transform="translate(53.847093, 72.639496)">
                    <path d="M28.8749394,18.8736968 C27.4306343,18.8736968 26.2584446,17.7002895 26.2584446,16.2544842 L26.2584446,2.81897122 C26.2584446,1.37316586 27.4306343,0.199758614 28.8749394,0.199758614 C30.3192446,0.199758614 31.4914343,1.37316586 31.4914343,2.81897122 L31.4914343,16.2544842 C31.4914343,17.7002895 30.3192446,18.8736968 28.8749394,18.8736968 Z"></path>
                    <path d="M7.40293609,37.7613626 C5.95863093,37.7613626 4.78644124,36.5879554 4.78644124,35.1421501 L4.78644124,2.81897122 C4.78644124,1.37316586 5.95863093,0.199758614 7.40293609,0.199758614 C8.84724124,0.199758614 10.0194309,1.37316586 10.0194309,2.81897122 L10.0194309,35.1421501 C10.0194309,36.5879554 8.84305484,37.7613626 7.40293609,37.7613626 Z"></path>
                    <path d="M33.2873963,5.43818381 L2.99466557,5.43818381 C1.55036041,5.43818381 0.378170722,4.26477657 0.378170722,2.81897122 C0.378170722,1.37316586 1.55036041,0.199758614 2.99466557,0.199758614 L33.2873963,0.199758614 C34.7317015,0.199758614 35.9038912,1.37316586 35.9038912,2.81897122 C35.9038912,4.26477657 34.7317015,5.43818381 33.2873963,5.43818381 Z"></path>
                </g>
                <path d="M197.161237,336.83074 L72.4067629,336.83074 C70.9624578,336.83074 69.7902681,335.657333 69.7902681,334.211528 L69.7902681,232.93391 C69.7902681,231.488104 70.9624578,230.314698 72.4067629,230.314698 L197.161237,230.314698 C198.605543,230.314698 199.777732,231.488104 199.777732,232.93391 L199.777732,334.211528 C199.777732,335.657333 198.605543,336.83074 197.161237,336.83074 Z M75.0232578,331.592315 L194.548928,331.592315 L194.548928,235.553123 L75.0232578,235.553123 L75.0232578,331.592315 Z" id="Shape"></path>
            </g>
            <g id="Group" transform="translate(91.584000, 241.920000)" stroke-width="1.8">
                <path d="M43.2,77.1794743 C19.6044387,77.1794743 0.411096775,57.9088183 0.411096775,34.2233691 C0.411096775,32.775552 1.58167741,31.600512 3.024,31.600512 L83.376,31.600512 C84.8183225,31.600512 85.9889032,32.775552 85.9889032,34.2233691 C85.9889032,57.9088183 66.7955613,77.1794743 43.2,77.1794743 Z M5.72469677,36.8462263 C7.07086452,56.4190354 23.3670193,71.93376 43.2,71.93376 C63.0329807,71.93376 79.3291355,56.4190354 80.6753032,36.8462263 L5.72469677,36.8462263 Z" id="Shape"></path>
                <path d="M58.9902968,36.8462263 C58.480258,36.8462263 57.961858,36.6951497 57.5103484,36.3804069 C56.3230452,35.5578789 56.0304,33.9254126 56.8498064,32.7293897 L78.5975225,1.13340343 C79.4211097,-0.0542262857 81.0432,-0.356379429 82.2346839,0.466148571 C83.4219871,1.28867657 83.7146323,2.92114286 82.8952258,4.11716571 L61.1475097,35.713152 C60.6374709,36.4517486 59.8264258,36.8462263 58.9902968,36.8462263 Z" id="Path"></path>
            </g>
            <g id="Group" transform="translate(125.568000, 283.968000)" stroke-width="0.576">
                <path d="M7.115328,3.775104 L5.314752,3.775104 L4.762944,3.775104 L0.029376,8.566272 L4.70663509e-14,14.95584 L4.705344,19.688832 L5.314752,19.688832 L7.115328,19.688832 L7.405632,19.688832 L9.990144,19.659456 L11.412864,19.659456 L9.990144,21.140928 L9.380736,21.780288 L9.990144,21.780288 L17.337024,21.780288 L15.246144,19.514304 L16.64064,18.17856 L15.5952,18.150336 L16.320384,17.3952 L15.363072,16.37856 L13.735872,18.033984 C13.707072,18.033984 12.80736,18.004608 12.80736,18.004608 L15.914304,14.838912 L15.914304,8.36352 L13.126464,5.54688 L16.64064,2.061504 L14.520384,-4.09272616e-15 L10.80288,3.775104 L9.990144,3.775104 L8.392896,3.775104 L7.405632,3.775104 L7.115328,3.775104 Z M5.314752,4.21056 L7.115328,4.21056 L7.405632,4.21056 L8.392896,4.21056 L9.990144,4.21056 L10.976832,4.21056 L14.520384,0.580608 L16.031232,2.061504 L12.51648,5.54688 L15.507648,8.566272 L15.479424,14.66496 L11.81952,18.410112 C12.371904,18.439488 13.387392,18.46944 13.9104,18.439488 L15.33312,16.987968 L15.740928,17.3952 L14.60736,18.556992 L15.5952,18.586368 L14.636736,19.485504 L16.379136,21.344832 L10.3968,21.344832 L12.429504,19.224576 L9.990144,19.224576 L7.405632,19.2528 L7.115328,19.2528 L5.314752,19.2528 L4.879872,19.282176 L0.436032,14.780736 L0.436032,8.7408 L4.937472,4.21056 L5.314752,4.21056 Z" id="Fill-40"></path>
                <path d="M5.314752,13.4163648 L3.4272,11.5293888 L5.314752,9.6694848 L7.405632,7.5498048 L8.392896,6.5631168 L8.653824,6.3010368 L8.392896,6.3010368 L7.405632,6.3010368 L7.115328,6.3010368 L5.836608,6.3304128 L5.314752,6.8246208 L2.555712,9.4085568 L2.555712,9.7570368 L2.585088,10.6579008 L2.555712,10.6285248 L2.497536,14.2003008 L5.314752,16.9881408 L5.54688,17.2496448 L7.115328,17.2790208 L7.405632,17.2790208 L9.119232,17.3072448 L8.392896,16.5521088 L7.405632,15.5654208 L5.314752,13.4163648 Z M5.314752,14.0263488 L7.115328,15.8845248 L7.405632,16.1748288 L8.102592,16.8429888 L7.405632,16.8429888 L5.721408,16.8136128 L5.314752,16.4075328 L2.904192,14.0263488 L2.962944,11.6445888 L5.314752,14.0263488 Z M7.405632,6.9403968 L7.115328,7.2312768 L5.314752,9.0600768 L3.020544,11.3542848 C3.020544,11.3542848 2.962944,9.6406848 2.991744,9.6124608 L5.314752,7.4046528 L6.011136,6.7364928 L7.115328,6.7364928 L7.405632,6.7364928 L7.63776,6.7364928 L7.405632,6.9403968 Z" id="Fill-42"></path>
                <path d="M6.6217536,11.317664 L7.1153856,11.868896 L7.4056896,12.188 L8.3929536,13.26224 L10.8616896,15.93488 L13.1846976,13.669472 L13.2140736,9.371936 L10.9198656,6.932 L9.3370176,8.55056 L7.4056896,10.503776 L6.6217536,11.317664 Z M7.4056896,11.11376 L8.3929536,10.126496 L9.3370176,9.160544 L9.9902016,8.500448 L10.9198656,7.541408 L12.7780416,9.545888 L12.7780416,13.494368 L10.8910656,15.324896 L8.3929536,12.623456 L7.4056896,11.578592 L7.2017856,11.345888 L7.4056896,11.11376 Z" id="Fill-44"></path>
            </g>
        </g>
    </g>
</svg>