<?xml version="1.0" encoding="UTF-8"?>
<svg width="590px" height="569px" viewBox="0 0 590 569" version="1.1" xmlns="http://www.w3.org/2000/svg" xmlns:xlink="http://www.w3.org/1999/xlink">
    <!-- Generator: Sketch 61.2 (89653) - https://sketch.com -->
    <title>Artboard</title>
    <desc>Created with Sketch.</desc>
    <defs>
        <rect id="path-1" x="47.7" y="45.9" width="495" height="477" rx="54.9"></rect>
        <filter x="-10.4%" y="-9.3%" width="120.8%" height="121.6%" filterUnits="objectBoundingBox" id="filter-2">
            <feMorphology radius="1.5" operator="dilate" in="SourceAlpha" result="shadowSpreadOuter1"></feMorphology>
            <feOffset dx="0" dy="7" in="shadowSpreadOuter1" result="shadowOffsetOuter1"></feOffset>
            <feGaussianBlur stdDeviation="14.5" in="shadowOffsetOuter1" result="shadowBlurOuter1"></feGaussianBlur>
            <feColorMatrix values="0 0 0 0 0.609290082   0 0 0 0 0.606712673   0 0 0 0 0.606712673  0 0 0 1 0" type="matrix" in="shadowBlurOuter1"></feColorMatrix>
        </filter>
    </defs>
    <g id="Artboard" stroke="none" stroke-width="1" fill="none" fill-rule="evenodd">
        <g id="Rectangle">
            <use fill="black" fill-opacity="1" filter="url(#filter-2)" xlink:href="#path-1"></use>
            <use fill="#CAD5E3" fill-rule="evenodd" xlink:href="#path-1"></use>
        </g>
        <g id="a" transform="translate(118.800000, 124.200000)" fill="#0B5439" fill-rule="nonzero" stroke="#045538" stroke-width="3.24">
            <g id="Group" transform="translate(242.190000, 45.603000)">
                <path d="M74.5746842,110.082199 C65.0632853,110.082199 56.1183108,106.385951 49.3891887,99.6675552 L10.7409175,61.0763687 C-3.14327793,47.214306 -3.14780932,24.6567848 10.7409175,10.7901979 C17.7419234,3.80035237 26.6868978,0.0995797413 36.1982967,0.0995797413 C45.714227,0.0995797413 54.6546701,3.79582819 61.3792608,10.5142235 L100.032063,49.1099341 C106.756655,55.8238051 110.463335,64.7545205 110.463335,74.2507574 C110.463335,83.7469941 106.761185,92.6777097 100.032063,99.391581 C93.0265263,106.385951 84.0860831,110.082199 74.5746842,110.082199 Z M36.1937653,4.62827582 C27.892249,4.62827582 20.0846548,7.85401039 14.2119663,13.7173372 C1.81860001,26.0954716 1.81860001,45.7801435 13.9400826,57.8823034 L52.5883538,96.4734894 C58.4610422,102.332292 66.2686365,105.562551 74.5701528,105.562551 C82.8762005,105.562551 90.6792633,102.336817 96.5474199,96.4734894 C102.691993,90.3387123 105.922877,82.5435644 105.922877,74.2552815 C105.922877,65.9669986 102.691993,58.1718504 96.8193045,52.3130477 L58.1665015,13.7173372 C52.3028759,7.85853456 44.499813,4.62827582 36.1937653,4.62827582 Z" id="Shape"></path>
                <path d="M20.9728083,23.0145105 C20.4109152,23.0145105 19.858085,22.8244953 19.4502595,22.4218439 C18.5666373,21.5441546 18.4216326,20.2547656 19.3007234,19.3680279 L19.5771385,19.0875292 C28.7396199,9.93965364 43.6388479,9.94417785 52.8013294,19.0830051 C53.6849515,19.9652186 53.6849515,21.3993811 52.8013294,22.2815946 C51.9177073,23.1638081 50.481255,23.1638081 49.5976328,22.2815946 C42.206927,14.9026702 30.1806037,14.9071944 22.7898978,22.2815946 C22.3141013,22.7566327 21.634392,23.0145105 20.9728083,23.0145105 Z" id="Path"></path>
                <path d="M31.6669013,81.0370152 C31.0868827,81.0370152 30.5068641,80.8153307 30.0627874,80.376486 C29.1791653,79.4942726 29.1791653,78.06011 30.0627874,77.1778966 L77.4929028,29.818865 C78.3765248,28.9366515 79.8129772,28.9366515 80.6965993,29.818865 C81.5802215,30.7010786 81.5802215,32.1352411 80.6965993,33.0174545 L33.2710153,80.376486 C32.8269386,80.8198549 32.24692,81.0370152 31.6669013,81.0370152 Z" id="Path"></path>
            </g>
            <path d="M35.8598794,232.713 C26.338873,232.713 17.3936608,229.010486 10.6609491,222.280701 C-3.5072152,208.118697 -3.5072152,185.527468 10.3843866,171.641906 L49.0578079,132.985299 C55.7859857,126.260046 64.7357317,122.553 74.2522044,122.553 C83.7686769,122.553 92.718423,126.260046 99.4466007,132.985299 C106.455875,139.982462 110.16,148.928317 110.16,158.440652 C110.16,167.952987 106.455875,176.898842 99.7231635,183.624094 L61.0497421,222.280701 C54.3215642,229.005954 45.376352,232.713 35.8598794,232.713 Z M74.2522044,127.084841 C65.9462597,127.084841 58.1345006,130.316045 52.2632134,136.18931 L13.589792,174.845918 C1.4663772,186.964061 1.4663772,206.682103 13.589792,218.804779 C19.7376419,224.949955 27.5494009,228.181159 35.8553456,228.181159 C44.1612903,228.181159 51.9730493,224.949955 57.8443366,219.07669 L96.5177577,180.420082 C102.389045,174.551348 105.626187,166.742986 105.626187,158.440652 C105.626187,150.138319 102.393579,142.329956 96.5177577,136.461221 C90.3653739,130.320576 82.558149,127.084841 74.2522044,127.084841 Z" id="Shape"></path>
            <g id="Group" transform="translate(84.240000, 0.243000)">
                <path d="M39.6490228,79.2198937 C17.8882849,79.2198937 0.187014147,61.518623 0.187014147,39.757885 C0.187014147,18.0016777 17.8928155,0.300407004 39.6490228,0.300407004 C61.4052301,0.300407004 79.1065008,18.0016777 79.1065008,39.757885 C79.1065008,61.518623 61.4052301,79.2198937 39.6490228,79.2198937 Z M39.6490228,4.83106242 C20.3892066,4.83106242 4.71766956,20.4980688 4.71766956,39.757885 C4.71766956,59.0177012 20.3892066,74.6892382 39.6490228,74.6892382 C58.908839,74.6892382 74.5758454,59.0222318 74.5758454,39.757885 C74.5758454,20.4980688 58.908839,4.83106242 39.6490228,4.83106242 Z" id="Shape"></path>
                <path d="M64.4452999,42.0232127 C63.194839,42.0232127 62.1799722,41.0083459 62.1799722,39.757885 C62.1799722,27.3348279 52.0720799,17.2269356 39.6490228,17.2269356 C38.3985619,17.2269356 37.3836951,16.2120688 37.3836951,14.9616079 C37.3836951,13.711147 38.3985619,12.6962802 39.6490228,12.6962802 C54.568471,12.6962802 66.7106275,24.8384367 66.7106275,39.757885 C66.7106275,41.0128765 65.6957608,42.0232127 64.4452999,42.0232127 Z" id="Path"></path>
            </g>
            <g id="Group" transform="translate(85.050000, 241.623000)">
                <path d="M39.5543375,79.0915251 C29.0716403,79.0915251 19.2196166,74.9867512 11.8092011,67.5338232 C4.39428077,60.080895 0.31742602,50.1723516 0.31742602,39.6295164 C0.31742602,29.0866813 4.39878559,19.1781379 11.8092011,11.7252097 C19.2196166,4.26775093 29.0716403,0.167507779 39.5543375,0.167507779 C50.0370348,0.167507779 59.8890584,4.27228159 67.2994739,11.7252097 C82.597815,27.1113155 82.597815,52.1431867 67.2994739,67.5292925 C59.8890584,74.9867512 50.0370348,79.0915251 39.5543375,79.0915251 Z M39.5543375,4.6981632 C30.274425,4.6981632 21.5531092,8.33174884 14.9941031,14.9283832 C8.43059222,21.5250174 4.8222379,30.2963663 4.8222379,39.6295164 C4.8222379,48.9626666 8.43509703,57.7340155 14.9941031,64.3306497 C21.5531092,70.9318147 30.274425,74.5608697 39.5543375,74.5608697 C48.83425,74.5608697 57.5555657,70.9272841 64.1145719,64.3306497 C77.6560364,50.7114995 77.6560364,28.552064 64.1145719,14.9329138 C57.5555657,8.33174884 48.83425,4.6981632 39.5543375,4.6981632 Z" id="Shape"></path>
                <path d="M26.2966761,55.2240324 C25.7200602,55.2240324 25.1434443,55.0020303 24.7019728,54.5625567 C23.8235344,53.6790789 23.8235344,52.2428612 24.7019728,51.3593833 L51.2218003,24.6919455 C52.1002386,23.8084677 53.5282639,23.8084677 54.4067023,24.6919455 C55.2851406,25.5754233 55.2851406,27.0116411 54.4067023,27.8951189 L27.8868748,54.5625567 C27.449908,55.0065609 26.8732921,55.2240324 26.2966761,55.2240324 Z" id="Path"></path>
            </g>
            <g id="Group" transform="translate(189.540000, 179.253000)">
                <path d="M86.1196255,100.963214 C73.3668531,100.963214 50.4642839,91.9522188 30.232476,72.1768353 C30.151133,72.1135686 30.074309,72.0503018 30.0065233,71.977997 L31.2176299,69.9941319 L31.2176299,69.9941319 L29.6404798,71.5983963 C29.5003891,71.4628247 29.3693365,71.3001388 29.2563601,71.1193765 L29.2156887,71.1600481 C8.43707513,49.9927958 -7.46999743,15.2457842 3.93609665,3.83969014 C6.38542429,1.3903625 10.1723921,0.147622454 15.1840238,0.147622454 C27.9367961,0.147622454 50.8348463,9.15861753 71.0711734,28.9340009 C71.1434782,28.9882296 71.211264,29.0469773 71.2745308,29.1147631 L71.6586504,29.5079208 C71.7942221,29.6434925 71.9297937,29.8106976 72.0518082,29.9959788 L72.0969988,29.9553073 C92.8756125,51.1270786 108.787204,85.8786092 97.3765908,97.2801846 C94.9182246,99.7204734 91.1312568,100.963214 86.1196255,100.963214 Z M32.8128562,68.4576534 C32.9529469,68.5435154 33.0885185,68.6474536 33.210533,68.7649491 C52.5837205,87.7811313 74.2164354,96.4441593 86.1196255,96.4441593 C89.8388075,96.4441593 92.6225451,95.6216916 94.1770998,94.0716558 C101.037025,87.2162494 93.2552127,57.9508511 68.8658747,33.1050884 C68.816165,33.0508598 68.7664554,32.9966311 68.7167458,32.9378834 C68.5947314,32.8203879 68.4546406,32.6848163 68.4456026,32.6757782 L68.4727169,32.6305876 C68.3371453,32.5447256 68.2060927,32.4453064 68.0931163,32.3323301 C48.7154097,13.3161478 27.0826949,4.65312 15.1795048,4.65312 C11.4648418,4.65312 8.68110409,5.4710689 7.12654927,7.02110466 C0.271143283,13.8765107 8.05295548,43.1419089 32.4377746,67.9831526 C32.4920033,68.0373813 32.5417129,68.096129 32.5914225,68.1593957 C32.708918,68.2723721 32.8444896,68.4034247 32.8444896,68.4079438 L32.8128562,68.4576534 Z" id="Shape"></path>
                <path d="M39.3112569,64.1464752 C38.7328179,64.1464752 38.1543789,63.9250415 37.7115115,63.4866932 C36.8302958,62.6054775 36.8302958,61.1729372 37.7115115,60.2917215 L60.388128,37.6196241 C61.2693437,36.7384084 62.701884,36.7384084 63.5830997,37.6196241 C64.4643154,38.5008397 64.4643154,39.9333801 63.5830997,40.8145957 L40.9064832,63.4866932 C40.4681349,63.9250415 39.8896959,64.1464752 39.3112569,64.1464752 Z" id="Path"></path>
            </g>
        </g>
    </g>
</svg>