<svg height='300px' width='300px'  fill="#000000" xmlns="http://www.w3.org/2000/svg" xmlns:xlink="http://www.w3.org/1999/xlink" viewBox="0 0 100 100" version="1.1" x="0px" y="0px"><title>slice-1 copy 20</title><desc>Created with Sketch.</desc><g stroke="none" stroke-width="1" fill="none" fill-rule="evenodd"><path d="M85.0786997,84.7730841 C81.6729987,84.7730841 79.030195,83.6560748 76.9980455,81.3581308 C72.9017838,76.7260748 72.2675782,68.3972897 73.0397277,62.1485981 C74.5890735,49.5940187 75.4840268,37.2808411 69.4792604,24.6715888 C68.9804754,23.6235514 67.7280455,23.1785981 66.6766436,23.6773832 C65.6286062,24.1770093 65.183653,25.4311215 65.682438,26.48 C71.206924,38.0824299 70.3927184,49.2642991 68.8652417,61.6329907 C68.4362698,65.1068224 67.5286997,76.9960748 73.8472044,84.1430841 C74.0389801,84.3609346 74.2349614,84.5703738 74.4359894,84.7730841 L56.0423445,84.7730841 C59.133466,81.9511215 62.4104754,77.5848598 62.9521576,71.4959813 C63.0547745,70.3394393 62.2010361,69.3174766 61.0444941,69.2148598 C59.8887931,69.1080374 58.8668305,69.9659813 58.7633726,71.1225234 C57.9365502,80.4026168 48.5605688,84.9270093 48.47141,84.9690654 C47.5764567,85.3862617 47.0919707,86.3678505 47.3056156,87.3309346 C47.5184193,88.2931776 48.3713165,88.9786916 49.357952,88.9786916 L85.0786997,88.9786916 C86.2402885,88.9786916 87.1815034,88.0374766 87.1815034,86.8758879 C87.1815034,85.7142991 86.2402885,84.7730841 85.0786997,84.7730841 L85.0786997,84.7730841 Z M27.571223,22.2945794 C27.9816903,22.7050467 28.5200081,22.9102804 29.0574847,22.9102804 C29.5958025,22.9102804 30.1341202,22.7050467 30.5445875,22.2945794 L36.7629987,16.0770093 L42.9797277,22.2945794 C43.3742137,22.6882243 43.909167,22.9102804 44.4668305,22.9102804 C45.0244941,22.9102804 45.5594473,22.6890654 45.9530922,22.2945794 L52.1715034,16.0770093 L58.3899146,22.2945794 C59.2108492,23.115514 60.5415034,23.115514 61.3632791,22.2945794 L69.067952,14.5899065 C69.8888866,13.768972 69.8888866,12.4374766 69.067952,11.6165421 C68.2461763,10.7947664 66.9155221,10.7947664 66.0945875,11.6165421 L59.8761763,17.8341121 L53.6586062,11.6165421 C52.8368305,10.7947664 51.5061763,10.7947664 50.6844006,11.6165421 L44.4668305,17.8341121 L38.2492604,11.6165421 C37.8547745,11.2220561 37.3206623,11 36.7629987,11 C36.2053352,11 35.6703819,11.2220561 35.2758959,11.6165421 L29.0574847,17.8341121 L24.4876716,13.2634579 C23.6658959,12.4433645 22.3352417,12.4425234 21.5143072,13.2642991 C20.6925315,14.0852336 20.6925315,15.416729 21.5143072,16.2385047 L27.571223,22.2945794 Z M26.3633726,50.5242991 C26.3633726,52.538785 27.9968305,54.172243 30.0113165,54.172243 C32.0266436,54.172243 33.6601016,52.538785 33.6601016,50.5242991 C33.6601016,48.508972 32.0266436,46.875514 30.0113165,46.875514 C27.9968305,46.875514 26.3633726,48.508972 26.3633726,50.5242991 L26.3633726,50.5242991 Z M38.8405688,81.2597196 L38.8405688,87.2400935 C38.8405688,88.4016822 37.8993539,89.3428972 36.7377651,89.3428972 C35.5761763,89.3428972 34.6349614,88.4016822 34.6349614,87.2400935 L34.6349614,82.3430841 L31.953466,82.3430841 C24.3110361,82.3430841 18.0926249,76.125514 18.0926249,68.482243 L18.0926249,64.1302804 L17.96141,64.1302804 C16.0259894,64.1302804 14.2663632,63.2311215 13.1333726,61.6615888 C12.0003819,60.0928972 11.7001016,58.1381308 12.3082324,56.3011215 L18.9943072,36.1327103 C18.9951483,36.131028 18.9951483,36.1293458 18.9959894,36.1276636 C19.7698212,33.2628037 21.0272978,30.571215 22.7322511,28.1243925 C23.3950548,27.1730841 24.7088866,26.9384112 25.6585128,27.601215 C26.6115034,28.2648598 26.8470174,29.5753271 26.1825315,30.5283178 C24.732438,32.6092523 23.6701016,34.9013084 23.0249614,37.3414019 C23.00141,37.4280374 22.9728118,37.5121495 22.9400081,37.5945794 L16.300195,57.6242056 C16.1218773,58.1642056 16.210195,58.7386916 16.5432791,59.1996262 C16.8755221,59.6605607 17.3928118,59.9246729 17.96141,59.9246729 L20.1954287,59.9246729 C21.3570174,59.9246729 22.2982324,60.866729 22.2982324,62.0274766 L22.2982324,68.482243 C22.2982324,73.8065421 26.6300081,78.1374766 31.953466,78.1374766 C37.4838399,78.1374766 47.5201016,75.6628972 52.5996343,59.0894393 C56.5116903,46.3237383 54.6713165,32.6681308 50.5388866,29.872243 C49.5766436,29.221215 49.323466,27.9141121 49.9753352,26.9518692 C50.6255221,25.9896262 51.9359894,25.738972 52.8940268,26.3883178 C58.544681,30.211215 61.390195,44.7584112 56.620195,60.3216822 C53.2405688,71.3504673 46.9321576,78.6514019 38.8405688,81.2597196 L38.8405688,81.2597196 Z" fill="#000000"></path></g></svg>