<?xml version="1.0" encoding="UTF-8"?>
<svg width="96px" height="97px" viewBox="0 0 96 97" version="1.1" xmlns="http://www.w3.org/2000/svg" xmlns:xlink="http://www.w3.org/1999/xlink">
    <!-- Generator: Sketch 64 (93537) - https://sketch.com -->
    <title>Artboard Copy 2</title>
    <desc>Created with Sketch.</desc>
    <g id="Artboard-Copy-2" stroke="none" stroke-width="1" fill="none" fill-rule="evenodd">
        <circle id="Oval" fill="#F3F9FF" cx="48" cy="48" r="48"></circle>
        <g id="Group" transform="translate(19.000000, 20.000000)" fill="#0B5439" fill-rule="nonzero">
            <path d="M57.1698113,28.3122002 C56.924157,28.0502998 56.5734699,27.9 56.2087547,27.9 L19.3794878,27.9 L12.6229174,17.5682253 C12.8694275,17.0118896 13.0087547,16.3975496 13.0087547,15.7497751 C13.0087547,13.2646952 10.9938724,11.25 8.50920451,11.25 C6.02362285,11.25 4.00875474,13.2646952 4.00875474,15.7497751 C4.00875474,18.0228601 5.69494281,19.8962557 7.88342754,20.2014456 C7.88297776,20.2014456 7.88297776,20.2014456 7.88297776,20.2014456 L11.5102024,27.9 L1.30875474,27.9 C0.944023035,27.9 0.59333799,28.0502998 0.34768299,28.3122002 C0.10202799,28.5741005 -0.0201470102,28.9169117 0.0027129898,29.278125 C0.956757945,44.1500839 13.587493,55.8 28.7587547,55.8 C43.9300164,55.8 56.5607361,44.1500839 57.514782,29.2776752 C57.5376404,28.9169117 57.4154656,28.5741005 57.1698113,28.3122002 Z M4.90875474,15.7497751 C4.90875474,13.7647808 6.52375272,12.15 8.50920451,12.15 C10.4941928,12.15 12.1087547,13.7647808 12.1087547,15.7497751 C12.1087547,17.7349943 10.4941928,19.35 8.50920451,19.35 C6.52375272,19.35 4.90875474,17.7349943 4.90875474,15.7497751 Z M8.15455294,20.2319996 C8.27186803,20.2412247 8.38967754,20.25 8.50920451,20.25 C8.38922776,20.25 8.27146294,20.2427542 8.15455294,20.2319996 Z M8.89151754,20.2306503 C10.212493,20.1192747 11.367823,19.4372108 12.1166674,18.4315498 C12.1157679,18.4326296 12.1153173,18.4337557 12.1144624,18.4346105 L18.3041683,27.9 L12.5051526,27.9 L8.89151754,20.2306503 Z M1.00418799,28.9283409 C1.08154299,28.8457203 1.18967794,28.8 1.30875474,28.8 L56.2087547,28.8 C56.3278156,28.8 56.435952,28.8457203 56.5133061,28.9283409 C56.5871067,29.0065498 56.6236019,29.1102745 56.616581,29.2201206 C56.5567776,30.15 56.4482361,31.066246 56.2966316,31.9675953 C56.267202,31.961879 56.2399319,31.95 56.2087547,31.95 L1.30875474,31.95 C1.27756299,31.95 1.25029299,31.961879 1.22086294,31.9675953 C1.06925794,31.066246 0.960717945,30.1504497 0.900958035,29.2205704 C0.893892945,29.1102745 0.930387945,29.0065498 1.00418799,28.9283409 Z M28.7587547,54.9 C15.3220171,54.9 3.94768276,45.4702046 1.38871299,32.85 L56.1287795,32.85 C53.5698113,45.4702046 42.1954769,54.9 28.7587547,54.9 Z" id="Shape"></path>
            <path d="M35.6990517,27.5341501 C57.8733895,24.9073208 53.6348812,3.23415014 53.6348812,3.23415014 C29.8292523,6.189705 35.6990517,27.5341501 35.6990517,27.5341501 Z M38.7457768,11.9265304 C41.5059406,7.80822027 46.2569061,5.22643491 52.8746067,4.24579437 C53.1690403,6.67025942 53.611573,13.8649495 49.5356522,19.4565596 C46.8466316,23.1455695 42.6678856,25.4810242 37.1083607,26.419049 L46.2274319,13.392134 C46.3698113,13.188644 46.3206269,12.9080695 46.1166863,12.7654644 C45.9127903,12.6230841 45.6328552,12.6720891 45.4900605,12.8762091 L36.3019608,26.0022148 C35.8532654,23.3395649 35.3017551,17.0650806 38.7457768,11.9265304 Z" id="Shape"></path>
            <path d="M31.8156044,23.0341501 C31.8156044,23.0341501 38.6306229,9.91584005 22.6437422,5.03415014 C22.6437422,5.03415014 16.9075932,18.5686644 31.8156044,23.0341501 Z M23.2009773,6.15959987 C27.5177374,7.63177469 30.3421181,9.88834505 31.6024319,12.8757603 C32.9682728,16.1127891 32.1768108,19.5075457 31.5501438,21.3108296 L28.2612715,14.7328651 C28.1496727,14.5105207 27.8798519,14.4206543 27.6574629,14.5316248 C27.4351167,14.6428201 27.3450271,14.9130443 27.4562225,15.1354351 L30.7534187,21.7296455 C27.1947273,20.4141151 24.7500582,18.3926703 23.4817775,15.7051792 C21.716067,11.9630247 22.6745228,7.83918027 23.2009773,6.15959987 Z" id="Shape"></path>
            <circle id="Oval" cx="47.2087547" cy="10.8840377" r="1"></circle>
            <circle id="Oval" cx="26.5087547" cy="12.6840377" r="1"></circle>
            <circle id="Oval" cx="31.9087547" cy="50.4" r="1"></circle>
            <path d="M49.6516609,39.6439659 C49.4279656,39.5358295 49.1595043,39.6329384 49.0522606,39.8566337 C49.0144608,39.9361954 45.1345154,47.8230297 34.0910687,49.5052666 C33.8454109,49.5426167 33.6766609,49.7720249 33.714011,50.0176792 C33.7478523,50.2404751 33.9394608,50.4 34.158305,50.4 C34.1807068,50.4 34.2035686,50.3982456 34.226427,50.3947334 C45.7624904,48.6377998 49.7031044,40.5848247 49.8652317,40.2429165 C49.9715656,40.0183663 49.8762112,39.7502998 49.6516609,39.6439659 Z" id="Path"></path>
            <path d="M37.3355683,0 C37.3355683,0 28.8971688,3.71160004 33.9957108,11.7 C33.9957108,11.7 42.7636933,8.60800522 37.3355683,0 Z M33.4815438,5.29254 C34.1161312,3.18163509 35.9758934,1.81493991 37.0011273,1.19992504 C38.1845814,3.33193486 38.4996727,5.23453518 37.9371727,6.86448013 C37.2459267,8.86837522 35.3685726,10.0471954 34.3591316,10.5547946 C33.299157,8.64999018 33.0038685,6.8827054 33.4815438,5.29254 Z" id="Shape"></path>
        </g>
    </g>
</svg>