<?xml version="1.0" encoding="UTF-8"?>
<svg width="96px" height="97px" viewBox="0 0 96 97" version="1.1" xmlns="http://www.w3.org/2000/svg" xmlns:xlink="http://www.w3.org/1999/xlink">
    <!-- Generator: Sketch 64 (93537) - https://sketch.com -->
    <title>Artboard</title>
    <desc>Created with Sketch.</desc>
    <g id="Artboard" stroke="none" stroke-width="1" fill="none" fill-rule="evenodd">
        <circle id="Oval" fill="#F3F9FF" cx="48" cy="48" r="48"></circle>
        <g id="Group" transform="translate(19.000000, 20.000000)" fill="#0B5439" fill-rule="nonzero">
            <path d="M33.855281,40.8899888 L31.5725241,39.6562956 C31.3218956,39.533715 31.0124668,39.6176446 30.8709164,39.8466 C30.7293659,40.0755554 30.8060178,40.3681385 31.044719,40.5100112 L33.3274759,41.7437044 C33.5781044,41.866285 33.8875332,41.7823554 34.0290836,41.5534 C34.1706341,41.3244446 34.0939822,41.0318615 33.855281,40.8899888 Z" id="Path"></path>
            <path d="M10.690566,5.50002185 C10.0537372,5.49761271 9.44239586,5.75003416 8.99277765,6.20105706 L6.20075335,8.99203932 C5.26641555,9.93112586 5.26641555,11.4487073 6.20075335,12.3877938 L16.2116456,22.39921 C17.150683,23.3335967 18.668185,23.3335967 19.6072224,22.39921 L22.3992466,19.6070396 C23.3335845,18.667953 23.3335845,17.1503716 22.3992466,16.2112851 L12.3883544,6.1998689 C11.9385404,5.74928176 11.3272234,5.49729815 10.690566,5.50002185 Z M21.7267846,16.8837823 C22.290239,17.4517116 22.290239,18.3678011 21.7267846,18.9357305 L18.9347603,21.7279009 C18.3668607,22.2913848 17.4508191,22.2913848 16.8829195,21.7279009 L6.87321537,11.7152966 C6.30976102,11.1473672 6.30976102,10.2312777 6.87321537,9.66334838 L9.66523967,6.87117796 C10.2331393,6.30769412 11.1491809,6.30769412 11.7170805,6.87117796 L21.7279727,16.8825941 L21.7267846,16.8837823 Z" id="Shape"></path>
            <path d="M55.3372413,52.2555002 L48.0559728,44.9832194 C48.0461453,44.9549496 48.0336895,44.9276609 48.0187684,44.9017104 L37.7407425,27.0416502 C37.0516093,25.9031076 36.2394512,24.8435406 35.3188536,23.8819778 L12.6889544,1.27641583 C10.9805751,-0.425471943 8.21539634,-0.425471943 6.50701702,1.27641583 L1.27799332,6.49778643 C-0.425997773,8.20405701 -0.425997773,10.9658225 1.27799332,12.6720931 L23.9054923,35.2728605 C24.8676251,36.1922398 25.9262784,37.0052433 27.0630689,37.6977532 L29.1393165,38.896415 C29.3672719,39.0155148 29.6487083,38.9339684 29.7774534,38.7115143 C29.9061985,38.4890602 29.8364809,38.2047852 29.6193738,38.066941 L27.5431261,36.8682793 C26.4786791,36.2158908 25.4865998,35.4524585 24.5835731,34.590822 L1.9560742,11.9888559 C0.626073764,10.6572927 0.626073764,8.50179892 1.9560742,7.17023567 L7.18389776,1.95485838 C8.51683346,0.625839952 10.6755375,0.625839952 12.0084732,1.95485838 L34.6407727,24.5580231 C35.5011848,25.4597783 36.2616755,26.4516166 36.9090433,27.5163203 L47.0034473,45.0599337 L45.0484141,47.0137524 L35.9717315,41.7528259 L35.9717315,41.7528259 L35.8517172,41.6809062 C35.7029047,41.5864232 35.5142072,41.58103 35.3602284,41.6668589 C35.2062496,41.7526878 35.1117784,41.9159214 35.1141649,42.0920233 C35.1165515,42.2681252 35.2154116,42.4287451 35.3716599,42.5103802 L35.4916742,42.5822999 L35.4916742,42.5822999 L44.8863948,48.0278202 C44.9127609,48.0427912 44.9404881,48.055233 44.9692047,48.0649787 L52.2516733,55.3384583 C52.7228764,55.817862 53.364907,56.0915086 54.0374863,56.0998093 C54.5871394,56.1072806 55.1170009,55.8949069 55.5088618,55.5098669 C56.3597633,54.6612144 56.2829541,53.2000457 55.3372413,52.2555002 Z M54.8307809,54.8314243 C54.3507237,55.310889 53.5010223,55.2305787 52.9297542,54.6600157 L45.8405086,47.5783221 L47.5687147,45.8522491 L54.6579603,52.9327441 C55.2292284,53.5033071 55.3072378,54.3555556 54.8295808,54.8314243 L54.8307809,54.8314243 Z" id="Shape"></path>
        </g>
    </g>
</svg>