<?xml version="1.0" encoding="UTF-8"?>
<svg width="96px" height="97px" viewBox="0 0 96 97" version="1.1" xmlns="http://www.w3.org/2000/svg" xmlns:xlink="http://www.w3.org/1999/xlink">
    <!-- Generator: Sketch 64 (93537) - https://sketch.com -->
    <title>Artboard</title>
    <desc>Created with Sketch.</desc>
    <g id="Artboard" stroke="none" stroke-width="1" fill="none" fill-rule="evenodd">
        <circle id="Oval" fill="#F3F9FF" cx="48" cy="48" r="48"></circle>
        <path d="M81.9674396,40.0896149 C82.2135122,39.9937777 82.4894479,40.1199432 82.5838155,40.3698478 C82.6781831,40.6197524 82.5539523,40.8999852 82.3078798,40.9958224 C79.1483563,42.2235092 73.014461,44.4107811 67.5984763,45.4649903 C64.0483425,46.156474 60.7872842,46.3578534 58.8103423,45.4916792 C57.6420951,44.9797387 56.592106,44.3416327 55.5421169,43.7035268 C53.0813916,42.2089516 50.6206663,40.7143765 46.5951109,41.000675 C45.3074109,41.0916596 43.062895,41.7564544 41.2018222,42.7888274 C41.1385123,42.8240081 41.0752023,42.8591889 41.0130869,42.8955827 C41.1815152,43.0532895 41.3176913,43.2473902 41.4060863,43.4354252 C41.4885086,43.6125421 41.5350952,43.7981508 41.5327061,43.9643495 C41.5207608,44.7977693 41.1540411,45.4322358 40.5508051,45.9587339 C40.2115594,46.2547374 39.7970586,46.5131339 39.3299986,46.7521204 C39.435117,46.7727436 39.5438189,46.7885143 39.6549099,46.8018587 C40.34893,46.8782858 41.1110381,46.8018587 41.6175175,46.6793326 C42.2350879,46.5289046 42.7284275,46.2547374 43.3018004,45.9356844 C43.7903618,45.6639435 44.3314825,45.3630875 45.0637275,45.0646577 C46.0492121,44.6631119 46.9976664,44.8475076 47.8433914,45.5523356 C48.4167643,46.0303085 48.8981586,46.7375628 49.2326261,47.5867533 C49.4141942,48.0453161 49.5539538,48.5463384 49.6435434,49.0752628 C49.8693089,48.9527367 50.0592387,48.8471945 50.2061655,48.7610623 C50.9037692,48.2818763 51.6467649,48.2406299 52.2571681,48.4771901 C52.5689396,48.5972899 52.8460698,48.7938168 53.0646682,49.0425083 C53.2856557,49.2924129 53.4457223,49.5956952 53.522172,49.9305188 C53.6177342,50.3490484 53.5830929,50.8124637 53.3716616,51.2734528 C53.5603969,51.1703368 53.7228525,51.0793522 53.855445,51.0017119 C54.6235258,50.4727876 55.4417766,50.4279018 56.1119062,50.6875114 C56.4535409,50.8197425 56.7581452,51.0344664 56.9982451,51.3074204 C57.2407341,51.5815876 57.4163295,51.913985 57.4999464,52.2815632 C57.6564294,52.9681943 57.4939738,53.7652201 56.839373,54.5040158 C56.8262332,54.5185734 56.8118989,54.5331309 56.7975646,54.5464753 C56.6888627,54.6508044 56.5049055,54.7988062 56.2695837,54.9759231 C56.4045653,55.0013988 56.5347687,55.0402189 56.660194,55.0923835 C56.9600203,55.2149095 57.2263997,55.4053708 57.437831,55.6431441 C57.6516513,55.8845568 57.8105234,56.1769209 57.8893621,56.4959739 C58.0362889,57.0904072 57.9108636,57.7685464 57.3637703,58.3872423 C57.3518251,58.4005867 57.3386853,58.4139311 57.3255455,58.4260624 C57.1583117,58.5922611 56.882376,58.8555102 56.5347687,59.1842682 C55.0487773,60.5939243 52.2261104,63.2713004 52.2428338,63.6898299 C52.2464173,63.7735358 52.2679188,63.8608811 52.3049492,63.9470133 C52.3730372,64.103507 52.4901008,64.2454431 52.6418057,64.3449197 C52.7947052,64.4456094 52.9834404,64.5050527 53.1936771,64.4965608 C53.2522089,64.4941346 53.3119353,64.4868558 53.3752452,64.4722983 C55.1646464,63.7917328 56.8286223,62.3590272 58.4914037,60.9263217 C59.5581161,60.0079829 60.6236341,59.0896441 61.7357386,58.3447828 C62.4249805,57.792809 62.8968186,57.2347696 63.2097847,56.6827958 C63.6218964,55.9561314 63.759267,55.2318933 63.759267,54.5452622 C63.759267,54.2783738 63.9718928,54.0624368 64.2346887,54.0624368 C64.4974846,54.0624368 64.7101104,54.2783738 64.7101104,54.5452622 C64.7113049,55.3835345 64.5404876,56.2703319 64.0340082,57.1644081 C64.0089231,57.2080807 63.9838381,57.2529665 63.956364,57.2966392 C67.1588904,56.4450225 74.5159812,55.7559651 79.1961374,55.3168124 C80.5626761,55.1882207 81.693893,55.0826784 82.4703354,54.9953331 C82.7319368,54.966218 82.9672586,55.1578924 82.9971218,55.4235677 C83.0257904,55.689243 82.8370552,55.9282295 82.5754538,55.9585577 C81.8886009,56.036198 80.7072138,56.1465927 79.2821433,56.2800369 C73.905578,56.7834855 64.9490158,57.6229709 63.1942558,58.5837692 C62.8872624,58.7523942 62.5814636,58.9392161 62.2780537,59.1418087 C62.0283976,59.3395487 61.754851,59.5348625 61.4550248,59.7289632 C60.6654425,60.3233965 59.886611,60.99547 59.106585,61.6675436 C55.612594,64.6773171 52.1197975,67.6870906 47.3775259,64.5948243 C46.9940828,64.3449197 46.7026183,64.0840969 46.491187,63.8135691 C46.4505731,64.1277696 46.3597891,64.4286256 46.2068896,64.7052191 C45.9082579,65.2511272 45.3898333,65.6878537 44.5918894,65.9304795 C43.6565748,66.2143518 42.9219408,65.5726064 42.2924252,65.0218458 L42.2936197,65.0206326 L42.2040302,64.9429924 C40.5591667,63.5127131 38.7470695,62.9680181 36.764155,62.3711585 C33.626133,61.4261309 30.0783882,60.3585772 25.9727995,55.6686198 C25.8246782,55.5 25.6777514,55.3993051 25.5152957,55.3313699 C25.3253659,55.2513034 25.0960168,55.2027782 24.8236647,55.1469743 C22.9530356,54.7660517 20.8853097,54.6398863 18.7853315,54.6520176 C16.6901314,54.6641489 14.5387886,54.81579 12.5164546,54.9880544 C12.2536587,55.0098907 12.0231151,54.8109375 12.0016136,54.5440491 C11.9801121,54.2771607 12.1760145,54.0430267 12.4388104,54.0211904 C14.4575608,53.8489261 16.6196543,53.6972849 18.7817479,53.6851536 C20.9390634,53.6730223 23.0700993,53.8040403 25.0100109,54.1995204 C25.3349222,54.2662425 25.6108579,54.3244727 25.8772373,54.4372937 C26.1722855,54.5610329 26.4326923,54.7369366 26.6847375,55.0256614 C30.6111472,59.5118131 34.0191323,60.5369072 37.031729,61.4443278 C39.1185674,62.0727287 41.0238377,62.6453257 42.8227951,64.2102624 L42.9135791,64.2903289 L42.9147737,64.2891157 C43.3615267,64.6797433 43.8835349,65.1358799 44.3183427,65.0036488 C44.8546853,64.8410895 45.1915418,64.5693486 45.3731099,64.2369512 C45.5833466,63.8536024 45.6048481,63.3683507 45.4985352,62.863689 C44.6241416,62.5664723 44.0005986,61.7694464 43.7760275,61.483148 C43.7413862,61.4382622 43.7724439,61.4770823 43.7437753,61.4419016 C43.3292745,60.9226823 43.15129,60.3864792 43.1596517,59.8429973 C42.4142669,59.4147627 41.5064265,59.0047251 40.5878354,58.5898349 C38.6371731,57.7091031 36.6411187,56.8077481 35.7715032,55.5412413 C35.6209928,55.3216649 35.6747465,55.0195957 35.8909558,54.8667414 C36.1071652,54.7138872 36.4046024,54.768478 36.5551128,54.9880544 C36.6494804,55.125138 36.7629604,55.2585822 36.8931639,55.388387 C36.7259301,54.3184071 37.5812113,53.2144595 38.8211302,52.195431 C40.3357902,50.9507605 42.4297958,49.8237635 43.7342191,49.1201485 C44.1021333,48.9224085 44.4067377,48.758636 44.6074182,48.6409625 C45.1975145,48.2369905 45.8270301,48.204236 46.3442602,48.4044023 C46.6094452,48.5075183 46.844767,48.673717 47.0323077,48.8860146 C47.2210429,49.0995253 47.357219,49.359135 47.422918,49.6442203 C47.46831,49.8455998 47.4790607,50.0578974 47.448003,50.2762606 C47.8875889,50.0287823 48.3056733,49.8019271 48.6855328,49.5956952 C48.4430439,49.2171989 48.2411688,48.8289975 48.0404883,48.4407962 C47.6415164,47.6716723 46.488798,45.5317124 45.4161129,45.9684389 C44.7435943,46.2426061 44.2251696,46.5313309 43.7581096,46.7909405 C43.1214268,47.1451742 42.5743335,47.4496697 41.8349214,47.6292128 C41.2472142,47.7711489 40.3608753,47.8597073 39.5521806,47.7699358 C39.0206162,47.7104924 38.5129423,47.574622 38.1211375,47.3259305 C37.6648282,47.0359926 37.365002,46.6126105 37.3387224,46.0133247 C37.3267771,45.7537151 37.3709746,45.4674166 37.4808711,45.152003 C37.5573208,44.9336397 37.6588556,44.720129 37.7830864,44.5114708 C35.4322575,44.4326174 33.360948,44.7443916 31.2896385,45.0573789 C26.5127256,45.7779777 21.7346183,46.4985764 13.5270243,42.6396125 C13.288119,42.5280046 13.1830006,42.240493 13.2940916,41.996654 C13.4039881,41.7540282 13.6870909,41.6472728 13.9271908,41.7600938 C21.876767,45.4965317 26.5151147,44.7977693 31.1522679,44.0977937 C33.4696499,43.7484125 35.787032,43.3990313 38.5177204,43.5773613 C39.1161783,42.9659442 39.8938153,42.4176098 40.7455129,41.9444895 C42.7248439,40.8453944 45.1353991,40.136927 46.5306064,40.0386635 C50.8500155,39.7317418 53.4397497,41.3051704 56.0294838,42.8785989 C57.0460262,43.4960817 58.061374,44.1135644 59.1854238,44.6060949 C60.9640742,45.3861369 64.0340082,45.1774787 67.4169082,44.5187496 C72.7588322,43.4790979 78.8341957,41.311236 81.9662451,40.0944675 L81.9674396,40.0896149 Z M16.1800685,52.1553977 C16.3449132,52.167529 16.4679494,52.3118914 16.4560042,52.4793032 C16.4440589,52.646715 16.3019102,52.7716674 16.1370655,52.7595361 L12.7231078,52.5023527 C12.5582631,52.4902214 12.4352268,52.345859 12.4471721,52.1784472 C12.4591174,52.0110354 12.601266,51.8860831 12.7661108,51.8982143 L16.1800685,52.1553977 Z M74.7345796,53.8877462 C74.5697349,53.8998775 74.4275862,53.7737121 74.415641,53.6075134 C74.4036957,53.4401015 74.5279265,53.2957392 74.6915767,53.2836079 L78.1055344,53.0264245 C78.2703791,53.0142932 78.4125278,53.1404586 78.424473,53.3066573 C78.4364183,53.4740691 78.3121875,53.6184315 78.1485373,53.6305628 L74.7345796,53.8877462 Z M40.1100246,43.4742453 C39.7218034,43.7532651 39.3741961,44.0492686 39.0898987,44.3574034 C39.0695918,44.3853054 39.0468958,44.4095679 39.0218107,44.4326174 C38.7279571,44.7638017 38.5081642,45.1107566 38.3839334,45.4674166 C38.3158453,45.6627304 38.2883712,45.8277159 38.2943439,45.9647995 C38.2979274,46.035161 38.3110672,46.0994569 38.3337632,46.1589002 C38.9740296,45.8713886 39.5294846,45.5729588 39.9320401,45.2211514 C40.3310121,44.8729833 40.5746956,44.4653719 40.5818627,43.9510051 C40.5818627,43.9376607 40.568723,43.9012668 40.5448324,43.8503154 C40.5006349,43.7569044 40.4325469,43.6610672 40.34893,43.5894926 C40.2892037,43.5373281 40.2282828,43.5021473 40.1793072,43.5021473 C40.1661674,43.5021473 40.149444,43.5057867 40.1291371,43.5167049 L40.1088301,43.4742453 L40.1100246,43.4742453 Z M43.3113566,51.0368926 C43.219378,50.786988 43.3448033,50.5079683 43.5908759,50.4145574 C43.8369484,50.3211464 44.1116896,50.448525 44.2036681,50.6984296 C44.2239751,50.7542335 44.2550328,50.81489 44.2968412,50.8816121 C44.3398442,50.9483342 44.3935979,51.0186957 44.4592969,51.0926966 C44.6360868,51.2904366 44.622947,51.5973583 44.4270446,51.7769014 C44.2323368,51.9564445 43.9301215,51.9431001 43.7533315,51.7441469 C43.6517967,51.6313259 43.5657908,51.5172918 43.4941192,51.4044708 C43.4176695,51.2831579 43.3567486,51.1606318 43.3113566,51.0356795 L43.3113566,51.0368926 Z M49.1932067,51.1751894 C49.1012282,50.9252847 49.2266535,50.646265 49.472726,50.5528541 C49.7187985,50.4594431 49.9935397,50.5868217 50.0855183,50.8367263 C50.1141869,50.9143666 50.1559954,50.9980725 50.2133327,51.0878441 C50.2694754,51.1776156 50.341147,51.2710266 50.4283475,51.3680769 C50.6051375,51.565817 50.5919977,51.8727386 50.3960953,52.0522818 C50.2013874,52.2318249 49.8991721,52.2184804 49.7223821,52.0195273 C49.5993459,51.8824437 49.4966166,51.7465732 49.4106106,51.6107027 C49.3186321,51.4663404 49.2469604,51.3195517 49.1932067,51.1727631 L49.1932067,51.1751894 Z M53.0563065,54.5610329 C52.9201305,54.3317515 52.9929966,54.0333217 53.2187622,53.8962381 C53.4445278,53.7579414 53.7383814,53.8319423 53.8733629,54.0612237 C53.8996425,54.1061094 53.8793355,54.073355 53.8924753,54.0964044 C54.0465693,54.3414565 54.254417,54.5234259 54.5040731,54.5889349 C54.7608963,54.655657 55.0810295,54.6010661 55.4585,54.3693585 C55.5086701,54.3390302 55.4979194,54.346309 55.5122537,54.3378171 C55.5218099,54.3317515 55.5313662,54.3256858 55.5421169,54.3196202 C55.8204416,54.1121751 56.0330674,53.9471895 56.1346022,53.8501392 C56.5514921,53.3770188 56.6613885,52.8966197 56.5706045,52.4975002 C56.524018,52.2924813 56.4248722,52.1068726 56.2898907,51.9528052 C56.1525201,51.7975246 55.9757301,51.6725723 55.7726606,51.5949321 C55.370105,51.4384384 54.8695983,51.472406 54.388204,51.8048034 C54.3738696,51.8157216 54.3595353,51.8254266 54.3440065,51.8339185 C54.0429857,52.0110354 53.6045944,52.2475955 53.0718354,52.533894 C51.2884068,53.4934792 48.4263205,55.0341533 46.4063756,56.6949271 C44.6563938,58.1324852 43.5419003,59.6416179 44.486771,60.8268451 C44.5357466,60.8875015 44.5178287,60.8656652 44.5261904,60.8753702 C44.7292599,61.1337668 45.3766935,61.9611209 46.1304399,61.999941 C46.2140568,61.6966587 46.3585945,61.3909501 46.5533024,61.0816022 C47.6940756,59.276466 50.7675931,57.4761823 52.8998235,56.3103652 C52.9177414,56.2909551 52.9368539,56.271545 52.9583553,56.2545612 C53.2928229,55.9864597 53.655959,55.7098662 54.0167061,55.4417647 C53.6344575,55.2767791 53.3214915,54.9832018 53.0897533,54.6156237 C53.0575011,54.5634591 53.0634737,54.5768036 53.055112,54.562246 L53.0563065,54.5610329 Z M40.4612155,57.4652641 C40.6224767,57.539265 40.7849323,57.6120528 40.9461934,57.6848405 C40.881689,57.5635276 40.8291298,57.4397884 40.7897104,57.3172624 C40.6774249,57.3767057 40.5675284,57.426444 40.4612155,57.4652641 Z M40.7490965,56.1769209 C40.9796402,55.1566793 41.8743408,54.1230933 43.0569224,53.1513768 C43.3244964,52.9318004 43.6075992,52.7134372 43.9002583,52.5011395 C43.9169817,52.4817295 43.9360941,52.4635325 43.9575956,52.4477619 C44.3697074,52.1177907 44.8212385,51.7781146 45.223794,51.4748323 C45.688465,51.1254511 46.0862424,50.8258082 46.2200294,50.6996427 C46.4840199,50.3987867 46.5556915,50.0991438 46.4995487,49.8540917 C46.4708801,49.7303525 46.4111537,49.6175315 46.3287314,49.5241205 C46.2451145,49.4294965 46.135218,49.3530693 46.0109872,49.3045442 C45.7613311,49.2074938 45.4507541,49.2293302 45.1461498,49.4367752 C45.1318155,49.4476934 45.1174812,49.4573984 45.1019523,49.4658903 C44.8833539,49.594482 44.5691933,49.7643201 44.1857502,49.9705521 C42.9111901,50.6559701 40.8673547,51.7574914 39.4291443,52.9390792 C38.233423,53.9217138 37.4605641,54.9407423 38.0721619,55.7086531 L38.1008305,55.745047 L38.1008305,55.745047 C38.0984414,55.7426207 38.0972469,55.7401944 38.1008305,55.745047 C38.2178941,55.8942619 38.5404164,56.3067258 38.9274431,56.4523013 L38.9991147,56.4814164 C39.2224912,56.5748273 39.9404018,56.8732571 40.7490965,56.1769209 Z M38.1008305,55.745047 C38.2901696,55.9059686 38.1639435,55.852328 38.1008305,55.745047 L38.1008305,55.745047 Z M49.5491757,53.3952157 C50.0222084,53.0955728 50.4928519,52.7510442 50.9097418,52.4247124 C51.5332848,51.9358213 52.0242353,51.4930292 52.2189432,51.3001417 C52.5773013,50.8937434 52.6716689,50.4849189 52.5952192,50.1464558 C52.5557998,49.9741915 52.4721829,49.8164847 52.3587029,49.6866799 C52.2428338,49.5544488 52.0923234,49.4501197 51.9203115,49.3833976 C51.5786768,49.2511665 51.1534253,49.2802816 50.7425081,49.5629407 C50.7281737,49.5738588 50.7138394,49.5835639 50.6983106,49.5920558 C50.4307365,49.7497626 50.0413208,49.9596339 49.5670936,50.214391 C47.9855401,51.0660077 45.4483651,52.4319912 43.6589639,53.9023037 C42.1323586,55.1566793 41.1552356,56.468072 41.9567631,57.4858873 L41.9973771,57.5368388 C42.1873068,57.7782515 42.8251842,58.5934743 43.529955,58.5097684 C43.976708,57.6399547 44.7985425,56.7725674 45.8067231,55.942787 C46.9200222,55.0280876 48.2626703,54.1558477 49.5491757,53.3940026 L49.5491757,53.3952157 Z M53.6296794,58.5206865 C53.4935034,58.2914051 53.5663695,57.9929753 53.7921351,57.8558917 C54.0179006,57.717595 54.3117542,57.7915959 54.4467358,58.0208773 C54.4730154,58.0657631 54.4527084,58.0330086 54.4658482,58.056058 C54.6199422,58.3011101 54.8277898,58.4830795 55.077446,58.5485885 C55.3342692,58.6153106 55.6544024,58.5607198 56.0318729,58.3290121 L56.0509853,58.3180939 C56.3197539,58.0621237 56.5335742,57.858318 56.657805,57.7357919 C56.9636038,57.388837 57.038859,57.032177 56.9647984,56.7301079 C56.9241844,56.5675485 56.8417621,56.4171205 56.7294766,56.289742 C56.6136075,56.158724 56.4690697,56.0543949 56.3066141,55.9888859 C55.991259,55.8602942 55.6078159,55.8760649 55.2494578,56.121117 C55.2351235,56.1320352 55.2207892,56.1417402 55.2052603,56.1502321 C54.9615768,56.2933813 54.6079969,56.4838426 54.1779672,56.7155503 C52.1914691,57.7855302 48.5230772,59.7605045 47.357219,61.6044609 C46.8722411,62.3711585 46.9021043,63.1281511 47.8959506,63.7759621 C49.2804072,64.6785302 50.5621345,64.9696812 51.7745792,64.8556471 C51.631236,64.7003665 51.5153669,64.5232497 51.4341391,64.3352147 C51.3505222,64.1423271 51.3015466,63.9360952 51.2931849,63.7250107 C51.2657108,63.0311008 53.2295129,61.0270114 54.8289844,59.4839111 C54.3368393,59.35168 53.9426455,59.0168563 53.6643207,58.5752773 C53.6320685,58.5231128 53.6380411,58.5364572 53.6296794,58.5218996 L53.6296794,58.5206865 Z" id="Shape" fill="#0B5439" fill-rule="nonzero"></path>
    </g>
</svg>