<svg height='300px' width='300px'  fill="#000000" xmlns="http://www.w3.org/2000/svg" xmlns:xlink="http://www.w3.org/1999/xlink" version="1.1" x="0px" y="0px" viewBox="0 0 100 100" style="enable-background:new 0 0 100 100;" xml:space="preserve"><rect x="34.8" y="61.2" width="4" height="30.8"></rect><rect x="43.6" y="52.4" width="4" height="39.6"></rect><rect x="43.6" y="25" width="4" height="13.8"></rect><rect x="43.6" y="8" width="4" height="13"></rect><rect x="52.4" y="79" width="4" height="13"></rect><rect x="52.4" y="61.2" width="4" height="13.8"></rect><rect x="52.4" y="8" width="4" height="22.8"></rect><polygon points="65.2,92 61.2,92 61.2,61.2 92,61.2 92,65.2 65.2,65.2 "></polygon><rect x="61.2" y="25.5" width="4" height="5.3"></rect><rect x="61.2" y="8" width="4" height="13.5"></rect><polygon points="38.8,38.8 8,38.8 8,34.8 34.8,34.8 34.8,8 38.8,8 "></polygon><rect x="52.4" y="34.8" width="39.6" height="4"></rect><rect x="8" y="43.6" width="18" height="4"></rect><rect x="30" y="43.6" width="7" height="4"></rect><rect x="41" y="43.6" width="19" height="4"></rect><rect x="63" y="43.6" width="29" height="4"></rect><rect x="8" y="52.4" width="8" height="4"></rect><rect x="20" y="52.4" width="18.8" height="4"></rect><rect x="52.4" y="52.4" width="22.6" height="4"></rect><rect x="79" y="52.4" width="13" height="4"></rect><rect x="8" y="61.2" width="22" height="4"></rect></svg>